<svg width="56" height="56" viewBox="0 0 56 56" fill="none" xmlns="http://www.w3.org/2000/svg">
<circle cx="28.1028" cy="28.14" r="27.2869" fill="#D9D9D9"/>
<path fill-rule="evenodd" clip-rule="evenodd" d="M21.4328 17.9419C21.4328 16.3044 22.0833 14.7341 23.2412 13.5762C24.399 12.4184 25.9694 11.7679 27.6068 11.7679C29.2443 11.7679 30.8147 12.4184 31.9725 13.5762C33.1304 14.7341 33.7808 16.3044 33.7808 17.9419C33.7808 19.5793 33.1304 21.1497 31.9725 22.3076C30.8147 23.4654 29.2443 24.1159 27.6068 24.1159C25.9694 24.1159 24.399 23.4654 23.2412 22.3076C22.0833 21.1497 21.4328 19.5793 21.4328 17.9419ZM21.4328 27.2029C19.386 27.2029 17.423 28.016 15.9757 29.4633C14.5284 30.9106 13.7153 32.8736 13.7153 34.9204C13.7153 36.1485 14.2032 37.3263 15.0716 38.1946C15.94 39.063 17.1177 39.5509 18.3458 39.5509H36.8678C38.0959 39.5509 39.2737 39.063 40.1421 38.1946C41.0105 37.3263 41.4983 36.1485 41.4983 34.9204C41.4983 32.8736 40.6852 30.9106 39.2379 29.4633C37.7906 28.016 35.8276 27.2029 33.7808 27.2029H21.4328Z" fill="white"/>
</svg>
