<svg width="12" height="12" viewBox="0 0 12 12" fill="none" xmlns="http://www.w3.org/2000/svg">
<rect width="12" height="12" rx="6" fill="black"/>
<path fill-rule="evenodd" clip-rule="evenodd" d="M6 10.7143C7.25031 10.7143 8.4494 10.2176 9.3335 9.3335C10.2176 8.4494 10.7143 7.25031 10.7143 6C10.7143 4.74969 10.2176 3.5506 9.3335 2.6665C8.4494 1.7824 7.25031 1.28571 6 1.28571C4.74969 1.28571 3.5506 1.7824 2.6665 2.6665C1.7824 3.5506 1.28571 4.74969 1.28571 6C1.28571 7.25031 1.7824 8.4494 2.6665 9.3335C3.5506 10.2176 4.74969 10.7143 6 10.7143ZM6 12C7.5913 12 9.11742 11.3679 10.2426 10.2426C11.3679 9.11742 12 7.5913 12 6C12 4.4087 11.3679 2.88258 10.2426 1.75736C9.11742 0.632141 7.5913 0 6 0C4.4087 0 2.88258 0.632141 1.75736 1.75736C0.632141 2.88258 0 4.4087 0 6C0 7.5913 0.632141 9.11742 1.75736 10.2426C2.88258 11.3679 4.4087 12 6 12Z" fill="black"/>
</svg>
