<svg width="18" height="15" viewBox="0 0 18 15" fill="none" xmlns="http://www.w3.org/2000/svg">
<path d="M17.4 13.8002H16.2V8.40019L16.3755 8.57569C16.4883 8.68828 16.6412 8.75145 16.8005 8.75131C16.9599 8.75117 17.1127 8.68773 17.2253 8.57494C17.3378 8.46216 17.401 8.30927 17.4009 8.14991C17.4007 7.99056 17.3373 7.83778 17.2245 7.72519L9.84825 0.351194C9.62323 0.12632 9.31812 0 9 0C8.68188 0 8.37677 0.12632 8.15175 0.351194L0.7755 7.72519C0.663015 7.83778 0.599861 7.99044 0.599932 8.14958C0.600002 8.30873 0.663291 8.46133 0.775875 8.57382C0.888459 8.6863 1.04112 8.74946 1.20027 8.74939C1.35941 8.74932 1.51202 8.68603 1.6245 8.57344L1.8 8.40019V13.8002H0.6C0.44087 13.8002 0.288258 13.8634 0.175736 13.9759C0.0632141 14.0885 0 14.2411 0 14.4002C0 14.5593 0.0632141 14.7119 0.175736 14.8245C0.288258 14.937 0.44087 15.0002 0.6 15.0002H17.4C17.5591 15.0002 17.7117 14.937 17.8243 14.8245C17.9368 14.7119 18 14.5593 18 14.4002C18 14.2411 17.9368 14.0885 17.8243 13.9759C17.7117 13.8634 17.5591 13.8002 17.4 13.8002ZM3 7.20019L9 1.20019L15 7.20019V13.8002H11.4V9.60019C11.4 9.44106 11.3368 9.28845 11.2243 9.17593C11.1117 9.06341 10.9591 9.00019 10.8 9.00019H7.2C7.04087 9.00019 6.88826 9.06341 6.77574 9.17593C6.66321 9.28845 6.6 9.44106 6.6 9.60019V13.8002H3V7.20019ZM10.2 13.8002H7.8V10.2002H10.2V13.8002Z" fill="#E1EDFF"/>
</svg>
