<svg width="112" height="45" viewBox="0 0 112 45" fill="none" xmlns="http://www.w3.org/2000/svg">
<rect width="111.06" height="44.9619" rx="8.08" fill="#3B72C5"/>
<path d="M23.091 22.7267C22.7675 22.5956 22.4212 22.5291 22.0717 22.531L22.0714 22.5311L12.7857 22.5311C12.0602 22.5311 11.3643 22.8193 10.8513 23.3323C10.3382 23.8454 10.05 24.5412 10.05 25.2668V25.6106C10.0513 25.6948 10.0569 25.7789 10.067 25.8625L10.067 25.8629C10.169 26.7757 10.4971 27.6486 11.0215 28.4027L23.091 22.7267ZM23.091 22.7267C22.6762 23.2013 22.3156 23.725 22.0189 24.2882H12.7857C12.5262 24.2882 12.2773 24.3913 12.0938 24.5748C11.9102 24.7583 11.8071 25.0072 11.8071 25.2668V25.585H11.8069L11.8073 25.5894L11.816 25.6872L11.816 25.6872L11.8161 25.6886C11.8878 26.3011 12.1088 26.8867 12.4598 27.3938L12.46 27.394C13.0824 28.2823 14.4163 29.3406 17.4286 29.3406C19.1342 29.3406 20.3014 29.0006 21.1073 28.545C21.1441 29.1575 21.2504 29.7639 21.4242 30.3525C20.4037 30.8092 19.096 31.0977 17.4286 31.0977C13.9409 31.0977 12.0236 29.8333 11.0216 28.4028L23.091 22.7267ZM15.2046 12.8285C14.6147 13.4183 14.2833 14.2183 14.2833 15.0525C14.2833 15.8866 14.6147 16.6867 15.2046 17.2765C15.7944 17.8663 16.5944 18.1977 17.4286 18.1977C18.2627 18.1977 19.0627 17.8663 19.6526 17.2765C20.2424 16.6867 20.5738 15.8866 20.5738 15.0525C20.5738 14.2183 20.2424 13.4183 19.6526 12.8285C19.0627 12.2386 18.2627 11.9072 17.4286 11.9072C16.5944 11.9072 15.7944 12.2386 15.2046 12.8285ZM13.9621 11.586C14.8814 10.6666 16.1284 10.1501 17.4286 10.1501C18.7288 10.1501 19.9757 10.6666 20.8951 11.586C21.8145 12.5053 22.331 13.7523 22.331 15.0525C22.331 16.3527 21.8145 17.5996 20.8951 18.519C19.9757 19.4384 18.7288 19.9549 17.4286 19.9549C16.1284 19.9549 14.8814 19.4384 13.9621 18.519C13.0427 17.5996 12.5262 16.3527 12.5262 15.0525C12.5262 13.7523 13.0427 12.5053 13.9621 11.586ZM27.2229 14.942C26.8652 15.2997 26.6643 15.7848 26.6643 16.2906C26.6643 16.7964 26.8652 17.2815 27.2229 17.6391C27.5805 17.9968 28.0656 18.1977 28.5714 18.1977C29.0772 18.1977 29.5623 17.9968 29.92 17.6391C30.2776 17.2815 30.4786 16.7964 30.4786 16.2906C30.4786 15.7848 30.2776 15.2997 29.92 14.942C29.5623 14.5844 29.0772 14.3834 28.5714 14.3834C28.0656 14.3834 27.5805 14.5844 27.2229 14.942ZM25.9804 13.6995C26.6676 13.0123 27.5996 12.6263 28.5714 12.6263C29.5433 12.6263 30.4753 13.0123 31.1625 13.6995C31.8497 14.3867 32.2357 15.3187 32.2357 16.2906C32.2357 17.2624 31.8497 18.1944 31.1625 18.8816C30.4753 19.5688 29.5433 19.9549 28.5714 19.9549C27.5996 19.9549 26.6676 19.5688 25.9804 18.8816C25.2932 18.1944 24.9071 17.2624 24.9071 16.2906C24.9071 15.3187 25.2932 14.3867 25.9804 13.6995ZM33.9702 23.2728C35.2378 24.5404 35.95 26.2597 35.95 28.0525C35.95 29.8452 35.2378 31.5645 33.9702 32.8322C32.7025 34.0998 30.9832 34.812 29.1905 34.812C27.3977 34.812 25.6784 34.0998 24.4108 32.8322C23.1431 31.5645 22.431 29.8452 22.431 28.0525C22.431 26.2597 23.1431 24.5404 24.4108 23.2728C25.6784 22.0051 27.3977 21.293 29.1905 21.293C30.9832 21.293 32.7025 22.0051 33.9702 23.2728ZM29.8608 31.7705L29.8595 28.7215H32.901C33.0785 28.7215 33.2487 28.651 33.3741 28.5256C33.4996 28.4001 33.5701 28.2299 33.5701 28.0525C33.5701 27.875 33.4996 27.7049 33.3741 27.5794C33.2487 27.4539 33.0785 27.3834 32.901 27.3834H29.8595V24.3382C29.8595 24.1608 29.789 23.9906 29.6636 23.8651C29.5381 23.7396 29.3679 23.6691 29.1905 23.6691C29.013 23.6691 28.8429 23.7396 28.7174 23.8651C28.5919 23.9906 28.5214 24.1608 28.5214 24.3382V27.3834H25.4712C25.2938 27.3834 25.1236 27.4539 24.9982 27.5794C24.8727 27.7049 24.8022 27.875 24.8022 28.0525C24.8022 28.2299 24.8727 28.4001 24.9982 28.5256C25.1236 28.651 25.2938 28.7215 25.4712 28.7215H28.5227V31.7705C28.5227 31.9479 28.5932 32.1181 28.7186 32.2436C28.8441 32.369 29.0143 32.4395 29.1917 32.4395C29.3692 32.4395 29.5393 32.369 29.6648 32.2436C29.7903 32.1181 29.8608 31.9479 29.8608 31.7705Z" fill="white" stroke="white" stroke-width="0.1"/>
<path d="M43.773 26.981H42.3613L45.5334 18.1664H47.0699L50.2419 26.981H48.8302L46.3382 19.7675H46.2693L43.773 26.981ZM44.0098 23.5292H48.5892V24.6482H44.0098V23.5292ZM56.4191 21.984L55.2527 22.1906C55.2039 22.0414 55.1264 21.8994 55.0203 21.7645C54.917 21.6297 54.7764 21.5192 54.5985 21.4331C54.4206 21.3471 54.1982 21.304 53.9314 21.304C53.567 21.304 53.2628 21.3858 53.0189 21.5493C52.775 21.71 52.6531 21.918 52.6531 22.1734C52.6531 22.3944 52.7349 22.5722 52.8984 22.7071C53.062 22.842 53.3259 22.9524 53.6903 23.0385L54.7405 23.2795C55.3488 23.4201 55.8022 23.6368 56.1006 23.9294C56.399 24.2221 56.5482 24.6023 56.5482 25.07C56.5482 25.466 56.4334 25.8189 56.2039 26.1288C55.9772 26.4358 55.6601 26.6768 55.2527 26.8518C54.8481 27.0269 54.379 27.1144 53.8453 27.1144C53.105 27.1144 52.501 26.9566 52.0333 26.6409C51.5656 26.3224 51.2787 25.8705 51.1725 25.2852L52.4164 25.0958C52.4938 25.42 52.6531 25.6654 52.8941 25.8318C53.1351 25.9953 53.4493 26.0771 53.8367 26.0771C54.2585 26.0771 54.5956 25.9896 54.8481 25.8146C55.1006 25.6367 55.2269 25.42 55.2269 25.1647C55.2269 24.9581 55.1494 24.7845 54.9944 24.6439C54.8424 24.5033 54.6085 24.3971 54.2929 24.3254L53.1739 24.0801C52.557 23.9395 52.1007 23.7157 51.8052 23.4087C51.5125 23.1016 51.3662 22.7128 51.3662 22.2423C51.3662 21.8521 51.4752 21.5106 51.6933 21.2179C51.9114 20.9253 52.2126 20.6972 52.5971 20.5336C52.9816 20.3672 53.4221 20.284 53.9184 20.284C54.6329 20.284 55.1953 20.4389 55.6056 20.7488C56.0159 21.0558 56.2871 21.4676 56.4191 21.984ZM61.0412 19.3113V18.1664H67.863V19.3113H65.1128V26.981H63.7872V19.3113H61.0412ZM71.2587 27.1144C70.6074 27.1144 70.0465 26.9752 69.5759 26.6969C69.1082 26.4157 68.7467 26.0212 68.4913 25.5133C68.2388 25.0026 68.1125 24.4043 68.1125 23.7185C68.1125 23.0414 68.2388 22.4446 68.4913 21.9281C68.7467 21.4116 69.1024 21.0085 69.5587 20.7187C70.0178 20.4289 70.5543 20.284 71.1684 20.284C71.5414 20.284 71.9029 20.3457 72.253 20.469C72.603 20.5924 72.9172 20.7861 73.1955 21.0501C73.4739 21.3141 73.6934 21.6569 73.854 22.0787C74.0147 22.4976 74.0951 23.007 74.0951 23.6066V24.0629H68.8399V23.0988H72.834C72.834 22.7602 72.7651 22.4603 72.6274 22.1992C72.4897 21.9353 72.296 21.7272 72.0464 21.5752C71.7996 21.4231 71.5098 21.3471 71.177 21.3471C70.8154 21.3471 70.4998 21.436 70.2301 21.6139C69.9632 21.7889 69.7567 22.0185 69.6103 22.3025C69.4669 22.5837 69.3951 22.8893 69.3951 23.2193V23.9725C69.3951 24.4144 69.4726 24.7902 69.6275 25.1001C69.7853 25.41 70.0048 25.6467 70.286 25.8103C70.5672 25.971 70.8958 26.0513 71.2717 26.0513C71.5155 26.0513 71.7379 26.0169 71.9388 25.948C72.1396 25.8763 72.3132 25.7701 72.4596 25.6295C72.6059 25.4889 72.7178 25.3153 72.7953 25.1087L74.0133 25.3282C73.9157 25.6869 73.7407 26.0011 73.4882 26.2708C73.2386 26.5376 72.9244 26.7457 72.5456 26.8949C72.1697 27.0412 71.7408 27.1144 71.2587 27.1144ZM76.9108 23.0557V26.981H75.6239V20.37H76.8591V21.446H76.9409C77.093 21.096 77.3312 20.8148 77.6554 20.6025C77.9825 20.3901 78.3942 20.284 78.8906 20.284C79.3411 20.284 79.7356 20.3787 80.0742 20.568C80.4128 20.7545 80.6753 21.0329 80.8618 21.403C81.0484 21.7731 81.1416 22.2308 81.1416 22.776V26.981H79.8547V22.9309C79.8547 22.4517 79.7299 22.0773 79.4803 21.8076C79.2306 21.535 78.8878 21.3987 78.4516 21.3987C78.1532 21.3987 77.8878 21.4633 77.6554 21.5924C77.4258 21.7215 77.2436 21.9109 77.1088 22.1605C76.9768 22.4073 76.9108 22.7057 76.9108 23.0557ZM84.8924 27.1273C84.4735 27.1273 84.0947 27.0498 83.7561 26.8949C83.4175 26.7371 83.1493 26.509 82.9513 26.2105C82.7562 25.9121 82.6586 25.5463 82.6586 25.113C82.6586 24.74 82.7303 24.433 82.8738 24.192C83.0173 23.951 83.211 23.7601 83.4549 23.6196C83.6987 23.479 83.9713 23.3728 84.2726 23.3011C84.5739 23.2293 84.8809 23.1748 85.1937 23.1375C85.5896 23.0916 85.911 23.0543 86.1577 23.0256C86.4045 22.994 86.5838 22.9438 86.6957 22.875C86.8076 22.8061 86.8636 22.6942 86.8636 22.5393V22.5091C86.8636 22.1332 86.7574 21.842 86.5451 21.6354C86.3356 21.4288 86.0229 21.3255 85.6068 21.3255C85.1736 21.3255 84.8321 21.4217 84.5825 21.6139C84.3357 21.8033 84.165 22.0142 84.0703 22.2466L82.8609 21.9711C83.0044 21.5694 83.2138 21.2452 83.4893 20.9984C83.7676 20.7488 84.0875 20.568 84.4491 20.4561C84.8106 20.3414 85.1908 20.284 85.5896 20.284C85.8536 20.284 86.1334 20.3155 86.4289 20.3787C86.7273 20.4389 87.0056 20.5508 87.2639 20.7144C87.525 20.8779 87.7387 21.1118 87.9052 21.4159C88.0716 21.7172 88.1548 22.1089 88.1548 22.5909V26.981H86.898V26.0771H86.8464C86.7632 26.2435 86.6384 26.4071 86.4719 26.5678C86.3055 26.7285 86.0918 26.8619 85.8306 26.968C85.5695 27.0742 85.2568 27.1273 84.8924 27.1273ZM85.1721 26.0943C85.5279 26.0943 85.8321 26.024 86.0846 25.8834C86.3399 25.7428 86.5336 25.5592 86.6656 25.3325C86.8005 25.103 86.8679 24.8577 86.8679 24.5966V23.7444C86.822 23.7903 86.733 23.8333 86.6011 23.8735C86.4719 23.9108 86.3242 23.9438 86.1577 23.9725C85.9913 23.9983 85.8292 24.0227 85.6714 24.0456C85.5136 24.0657 85.3816 24.0829 85.2754 24.0973C85.0258 24.1289 84.7977 24.1819 84.5911 24.2565C84.3874 24.3311 84.2238 24.4387 84.1004 24.5793C83.9799 24.7171 83.9197 24.9007 83.9197 25.1302C83.9197 25.4487 84.0373 25.6898 84.2726 25.8533C84.5079 26.014 84.8077 26.0943 85.1721 26.0943ZM91.2567 23.0557V26.981H89.9699V20.37H91.2051V21.446H91.2869C91.4389 21.096 91.6771 20.8148 92.0013 20.6025C92.3284 20.3901 92.7402 20.284 93.2366 20.284C93.6871 20.284 94.0816 20.3787 94.4202 20.568C94.7587 20.7545 95.0213 21.0329 95.2078 21.403C95.3943 21.7731 95.4876 22.2308 95.4876 22.776V26.981H94.2007V22.9309C94.2007 22.4517 94.0758 22.0773 93.8262 21.8076C93.5766 21.535 93.2337 21.3987 92.7976 21.3987C92.4992 21.3987 92.2337 21.4633 92.0013 21.5924C91.7718 21.7215 91.5896 21.9109 91.4547 22.1605C91.3227 22.4073 91.2567 22.7057 91.2567 23.0557ZM100.4 20.37V21.403H96.7894V20.37H100.4ZM97.7578 18.7862H99.0446V25.0399C99.0446 25.2895 99.0819 25.4774 99.1566 25.6037C99.2312 25.7271 99.3273 25.8117 99.4449 25.8576C99.5654 25.9007 99.696 25.9222 99.8366 25.9222C99.9399 25.9222 100.03 25.915 100.108 25.9007C100.185 25.8863 100.245 25.8748 100.288 25.8662L100.521 26.9293C100.446 26.958 100.34 26.9867 100.202 27.0154C100.065 27.047 99.8925 27.0642 99.6859 27.067C99.3474 27.0728 99.0317 27.0125 98.7391 26.8863C98.4464 26.76 98.2097 26.5649 98.0289 26.3009C97.8481 26.037 97.7578 25.7055 97.7578 25.3067V18.7862Z" fill="white"/>
</svg>
