<svg width="167" height="46" viewBox="0 0 167 46" fill="none" xmlns="http://www.w3.org/2000/svg">
<rect x="0.799805" y="0.519531" width="165.46" height="44.9619" rx="8.08" fill="#3B72C5"/>
<path d="M34.0908 23.2458C33.7673 23.1147 33.421 23.0481 33.0715 23.0501L33.0712 23.0501L23.7855 23.0501C23.0599 23.0501 22.3641 23.3383 21.851 23.8514C21.338 24.3644 21.0498 25.0603 21.0498 25.7858V26.1296C21.051 26.2138 21.0567 26.2979 21.0667 26.3816L21.0668 26.382C21.1688 27.2948 21.4968 28.1677 22.0213 28.9217L34.0908 23.2458ZM34.0908 23.2458C33.6759 23.7204 33.3153 24.2441 33.0187 24.8072H23.7855C23.5259 24.8072 23.277 24.9103 23.0935 25.0939C22.91 25.2774 22.8069 25.5263 22.8069 25.7858V26.104H22.8067L22.8071 26.1084L22.8158 26.2062L22.8157 26.2062L22.8159 26.2076C22.8875 26.8202 23.1086 27.4057 23.4596 27.9128L23.4598 27.9131C24.0822 28.8014 25.4161 29.8596 28.4283 29.8596C30.134 29.8596 31.3012 29.5196 32.1071 29.0641C32.1439 29.6766 32.2501 30.283 32.4239 30.8715C31.4034 31.3282 30.0957 31.6168 28.4283 31.6168C24.9406 31.6168 23.0233 30.3524 22.0214 28.9218L34.0908 23.2458ZM26.2043 13.3475C25.6145 13.9373 25.2831 14.7374 25.2831 15.5715C25.2831 16.4057 25.6145 17.2057 26.2043 17.7955C26.7942 18.3854 27.5942 18.7168 28.4283 18.7168C29.2625 18.7168 30.0625 18.3854 30.6523 17.7955C31.2422 17.2057 31.5736 16.4057 31.5736 15.5715C31.5736 14.7374 31.2422 13.9373 30.6523 13.3475C30.0625 12.7577 29.2625 12.4263 28.4283 12.4263C27.5942 12.4263 26.7942 12.7577 26.2043 13.3475ZM24.9618 12.105C25.8812 11.1856 27.1281 10.6691 28.4283 10.6691C29.7285 10.6691 30.9755 11.1856 31.8948 12.105C32.8142 13.0244 33.3307 14.2713 33.3307 15.5715C33.3307 16.8717 32.8142 18.1187 31.8948 19.038C30.9755 19.9574 29.7285 20.4739 28.4283 20.4739C27.1281 20.4739 25.8812 19.9574 24.9618 19.038C24.0424 18.1187 23.5259 16.8717 23.5259 15.5715C23.5259 14.2713 24.0424 13.0244 24.9618 12.105ZM38.2226 15.4611C37.865 15.8187 37.664 16.3038 37.664 16.8096C37.664 17.3154 37.865 17.8005 38.2226 18.1582C38.5803 18.5158 39.0654 18.7168 39.5712 18.7168C40.077 18.7168 40.5621 18.5158 40.9197 18.1582C41.2774 17.8005 41.4783 17.3154 41.4783 16.8096C41.4783 16.3038 41.2774 15.8187 40.9197 15.4611C40.5621 15.1034 40.077 14.9025 39.5712 14.9025C39.0654 14.9025 38.5803 15.1034 38.2226 15.4611ZM36.9801 14.2186C37.6673 13.5314 38.5994 13.1453 39.5712 13.1453C40.543 13.1453 41.475 13.5314 42.1622 14.2186C42.8494 14.9058 43.2355 15.8378 43.2355 16.8096C43.2355 17.7814 42.8494 18.7135 42.1622 19.4007C41.475 20.0878 40.543 20.4739 39.5712 20.4739C38.5994 20.4739 37.6673 20.0878 36.9801 19.4007C36.293 18.7135 35.9069 17.7814 35.9069 16.8096C35.9069 15.8378 36.293 14.9058 36.9801 14.2186ZM44.9699 23.7918C46.2376 25.0595 46.9498 26.7788 46.9498 28.5715C46.9498 30.3643 46.2376 32.0836 44.9699 33.3512C43.7023 34.6189 41.983 35.331 40.1902 35.331C38.3975 35.331 36.6782 34.6189 35.4105 33.3512C34.1429 32.0836 33.4307 30.3643 33.4307 28.5715C33.4307 26.7788 34.1429 25.0595 35.4105 23.7918C36.6782 22.5242 38.3975 21.812 40.1902 21.812C41.983 21.812 43.7023 22.5242 44.9699 23.7918ZM40.8605 32.2895L40.8593 29.2406H43.9008C44.0782 29.2406 44.2484 29.1701 44.3739 29.0446C44.4994 28.9191 44.5699 28.749 44.5699 28.5715C44.5699 28.3941 44.4994 28.2239 44.3739 28.0984C44.2484 27.973 44.0782 27.9025 43.9008 27.9025H40.8593V24.8572C40.8593 24.6798 40.7888 24.5096 40.6633 24.3841C40.5378 24.2587 40.3677 24.1882 40.1902 24.1882C40.0128 24.1882 39.8426 24.2587 39.7171 24.3841C39.5917 24.5096 39.5212 24.6798 39.5212 24.8572V27.9025H36.471C36.2936 27.9025 36.1234 27.973 35.9979 28.0984C35.8724 28.2239 35.8019 28.3941 35.8019 28.5715C35.8019 28.749 35.8724 28.9191 35.9979 29.0446C36.1234 29.1701 36.2936 29.2406 36.471 29.2406H39.5224V32.2895C39.5224 32.467 39.5929 32.6371 39.7184 32.7626C39.8439 32.8881 40.014 32.9586 40.1915 32.9586C40.3689 32.9586 40.5391 32.8881 40.6646 32.7626C40.79 32.6371 40.8605 32.467 40.8605 32.2895Z" fill="white" stroke="white" stroke-width="0.1"/>
<path d="M58.8358 21.001C58.7898 20.5936 58.6005 20.2779 58.2676 20.0541C57.9348 19.8274 57.5159 19.7141 57.0109 19.7141C56.6493 19.7141 56.3366 19.7715 56.0726 19.8863C55.8086 19.9982 55.6035 20.1531 55.4571 20.3511C55.3137 20.5462 55.2419 20.7686 55.2419 21.0182C55.2419 21.2277 55.2907 21.4084 55.3883 21.5605C55.4887 21.7126 55.6192 21.8403 55.7799 21.9436C55.9435 22.044 56.1185 22.1286 56.305 22.1975C56.4915 22.2635 56.6709 22.318 56.843 22.3611L57.7038 22.5849C57.985 22.6537 58.2734 22.747 58.5689 22.8646C58.8644 22.9823 59.1385 23.1372 59.391 23.3294C59.6435 23.5217 59.8472 23.7598 60.0021 24.0439C60.1599 24.328 60.2388 24.668 60.2388 25.0639C60.2388 25.5632 60.1097 26.0065 59.8515 26.3939C59.5961 26.7812 59.2245 27.0868 58.7368 27.3106C58.2518 27.5344 57.6651 27.6463 56.9764 27.6463C56.3165 27.6463 55.7455 27.5416 55.2635 27.3321C54.7814 27.1227 54.4041 26.8257 54.1315 26.4412C53.8589 26.0539 53.7083 25.5948 53.6796 25.0639H55.0138C55.0396 25.3824 55.1429 25.6479 55.3237 25.8602C55.5073 26.0696 55.7412 26.226 56.0253 26.3293C56.3122 26.4297 56.6264 26.48 56.9678 26.48C57.3437 26.48 57.678 26.4211 57.9707 26.3035C58.2662 26.183 58.4986 26.0166 58.6679 25.8042C58.8372 25.589 58.9218 25.338 58.9218 25.051C58.9218 24.7899 58.8472 24.5762 58.698 24.4097C58.5517 24.2433 58.3523 24.1056 58.0998 23.9966C57.8501 23.8875 57.5675 23.7914 57.2519 23.7082L56.2103 23.4241C55.5045 23.2319 54.945 22.9493 54.5318 22.5763C54.1215 22.2032 53.9163 21.7097 53.9163 21.0957C53.9163 20.5878 54.054 20.1445 54.3295 19.7658C54.6049 19.387 54.978 19.0929 55.4485 18.8834C55.9191 18.6711 56.4499 18.5649 57.041 18.5649C57.6378 18.5649 58.1643 18.6697 58.6206 18.8791C59.0796 19.0886 59.4412 19.377 59.7052 19.7442C59.9691 20.1086 60.1069 20.5276 60.1183 21.001H58.8358ZM64.675 27.6334C64.0237 27.6334 63.4627 27.4943 62.9922 27.2159C62.5245 26.9347 62.1629 26.5402 61.9076 26.0323C61.6551 25.5216 61.5288 24.9234 61.5288 24.2376C61.5288 23.5604 61.6551 22.9636 61.9076 22.4471C62.1629 21.9307 62.5187 21.5275 62.975 21.2377C63.434 20.9479 63.9706 20.803 64.5846 20.803C64.9577 20.803 65.3192 20.8647 65.6692 20.9881C66.0193 21.1115 66.3335 21.3051 66.6118 21.5691C66.8901 21.8331 67.1096 22.176 67.2703 22.5978C67.431 23.0167 67.5114 23.526 67.5114 24.1257V24.5819H62.2562V23.6178H66.2503C66.2503 23.2792 66.1814 22.9794 66.0437 22.7183C65.906 22.4543 65.7123 22.2463 65.4627 22.0942C65.2159 21.9421 64.9261 21.8661 64.5933 21.8661C64.2317 21.8661 63.9161 21.955 63.6464 22.1329C63.3795 22.308 63.1729 22.5375 63.0266 22.8216C62.8831 23.1028 62.8114 23.4084 62.8114 23.7383V24.4915C62.8114 24.9334 62.8889 25.3093 63.0438 25.6192C63.2016 25.929 63.4211 26.1658 63.7023 26.3293C63.9835 26.49 64.3121 26.5703 64.6879 26.5703C64.9318 26.5703 65.1542 26.5359 65.3551 26.467C65.5559 26.3953 65.7295 26.2891 65.8758 26.1486C66.0222 26.008 66.1341 25.8344 66.2115 25.6278L67.4296 25.8473C67.332 26.2059 67.157 26.5201 66.9045 26.7898C66.6549 27.0567 66.3407 27.2647 65.9619 27.4139C65.586 27.5603 65.1571 27.6334 64.675 27.6334ZM70.3271 18.6855V27.5H69.0402V18.6855H70.3271ZM75.3056 20.8891V21.922H71.5697V20.8891H75.3056ZM72.5941 27.5V20.123C72.5941 19.7098 72.6844 19.3669 72.8652 19.0943C73.046 18.8189 73.2856 18.6137 73.584 18.4789C73.8824 18.3411 74.2066 18.2723 74.5567 18.2723C74.8149 18.2723 75.0359 18.2938 75.2195 18.3368C75.4031 18.377 75.5394 18.4143 75.6284 18.4487L75.3271 19.4903C75.2668 19.4731 75.1894 19.453 75.0947 19.43C75 19.4042 74.8852 19.3913 74.7504 19.3913C74.4376 19.3913 74.2138 19.4688 74.0789 19.6237C73.9469 19.7787 73.881 20.0025 73.881 20.2951V27.5H72.5941ZM87.4672 21.5519H86.1244C86.0728 21.265 85.9766 21.0125 85.836 20.7944C85.6954 20.5763 85.5233 20.3913 85.3196 20.2392C85.1158 20.0871 84.8877 19.9723 84.6352 19.8949C84.3856 19.8174 84.1202 19.7787 83.839 19.7787C83.3311 19.7787 82.8763 19.9063 82.4746 20.1617C82.0758 20.4171 81.7602 20.7915 81.5278 21.2851C81.2982 21.7786 81.1834 22.3811 81.1834 23.0927C81.1834 23.8101 81.2982 24.4155 81.5278 24.909C81.7602 25.4025 82.0772 25.7755 82.4789 26.028C82.8806 26.2805 83.3326 26.4068 83.8347 26.4068C84.113 26.4068 84.377 26.3695 84.6266 26.2949C84.8791 26.2174 85.1072 26.1041 85.311 25.9549C85.5147 25.8057 85.6868 25.6235 85.8274 25.4083C85.9709 25.1902 86.0699 24.9406 86.1244 24.6594L87.4672 24.6637C87.3955 25.0969 87.2563 25.4958 87.0498 25.8602C86.846 26.2217 86.5835 26.5345 86.2621 26.7985C85.9436 27.0596 85.5792 27.2618 85.1689 27.4053C84.7586 27.5488 84.311 27.6205 83.8261 27.6205C83.0628 27.6205 82.3828 27.4397 81.786 27.0782C81.1892 26.7138 80.7186 26.193 80.3743 25.5159C80.0328 24.8387 79.8621 24.031 79.8621 23.0927C79.8621 22.1516 80.0343 21.3439 80.3786 20.6696C80.7229 19.9924 81.1935 19.4731 81.7903 19.1115C82.3871 18.7471 83.0657 18.5649 83.8261 18.5649C84.2938 18.5649 84.7299 18.6324 85.1345 18.7672C85.5419 18.8992 85.9078 19.0943 86.232 19.3526C86.5562 19.6079 86.8245 19.9207 87.0368 20.2908C87.2492 20.6581 87.3926 21.0785 87.4672 21.5519ZM91.841 27.6334C91.2212 27.6334 90.6804 27.4914 90.2184 27.2073C89.7565 26.9233 89.3978 26.5259 89.1424 26.0151C88.8871 25.5044 88.7594 24.9076 88.7594 24.2247C88.7594 23.5389 88.8871 22.9392 89.1424 22.4256C89.3978 21.912 89.7565 21.5132 90.2184 21.2291C90.6804 20.945 91.2212 20.803 91.841 20.803C92.4608 20.803 93.0017 20.945 93.4636 21.2291C93.9256 21.5132 94.2842 21.912 94.5396 22.4256C94.795 22.9392 94.9227 23.5389 94.9227 24.2247C94.9227 24.9076 94.795 25.5044 94.5396 26.0151C94.2842 26.5259 93.9256 26.9233 93.4636 27.2073C93.0017 27.4914 92.4608 27.6334 91.841 27.6334ZM91.8453 26.5531C92.247 26.5531 92.5799 26.447 92.8438 26.2346C93.1078 26.0223 93.3029 25.7397 93.4292 25.3867C93.5583 25.0338 93.6229 24.645 93.6229 24.2204C93.6229 23.7986 93.5583 23.4112 93.4292 23.0583C93.3029 22.7025 93.1078 22.417 92.8438 22.2018C92.5799 21.9866 92.247 21.879 91.8453 21.879C91.4407 21.879 91.105 21.9866 90.8382 22.2018C90.5742 22.417 90.3777 22.7025 90.2485 23.0583C90.1223 23.4112 90.0592 23.7986 90.0592 24.2204C90.0592 24.645 90.1223 25.0338 90.2485 25.3867C90.3777 25.7397 90.5742 26.0223 90.8382 26.2346C91.105 26.447 91.4407 26.5531 91.8453 26.5531ZM96.4601 27.5V20.8891H97.6954V21.9651H97.7771C97.9149 21.6007 98.1401 21.3166 98.4529 21.1129C98.7656 20.9063 99.1401 20.803 99.5762 20.803C100.018 20.803 100.388 20.9063 100.687 21.1129C100.988 21.3195 101.21 21.6036 101.354 21.9651H101.423C101.58 21.6122 101.831 21.331 102.176 21.1215C102.52 20.9092 102.93 20.803 103.407 20.803C104.006 20.803 104.496 20.991 104.874 21.3668C105.256 21.7427 105.447 22.3094 105.447 23.0669V27.5H104.16V23.1874C104.16 22.7398 104.038 22.4156 103.794 22.2147C103.55 22.0139 103.259 21.9134 102.92 21.9134C102.501 21.9134 102.176 22.0426 101.943 22.3008C101.711 22.5562 101.595 22.8847 101.595 23.2864V27.5H100.312V23.1056C100.312 22.747 100.2 22.4586 99.9765 22.2405C99.7527 22.0225 99.4614 21.9134 99.1028 21.9134C98.8589 21.9134 98.6336 21.978 98.427 22.1071C98.2233 22.2334 98.0583 22.4098 97.9321 22.6365C97.8087 22.8632 97.747 23.1257 97.747 23.4241V27.5H96.4601ZM107.273 29.9791V20.8891H108.529V21.9608H108.637C108.712 21.8231 108.819 21.6638 108.96 21.483C109.1 21.3023 109.296 21.1445 109.545 21.0096C109.795 20.8719 110.125 20.803 110.535 20.803C111.069 20.803 111.545 20.9379 111.964 21.2076C112.383 21.4773 112.711 21.8661 112.95 22.374C113.191 22.8818 113.311 23.493 113.311 24.2075C113.311 24.9219 113.192 25.5345 112.954 26.0453C112.716 26.5531 112.389 26.9448 111.973 27.2202C111.557 27.4928 111.082 27.6291 110.548 27.6291C110.146 27.6291 109.818 27.5617 109.562 27.4268C109.31 27.292 109.112 27.1342 108.968 26.9534C108.825 26.7726 108.714 26.6119 108.637 26.4713H108.56V29.9791H107.273ZM108.534 24.1945C108.534 24.6594 108.601 25.0668 108.736 25.4169C108.871 25.7669 109.066 26.041 109.321 26.2389C109.577 26.434 109.889 26.5316 110.26 26.5316C110.644 26.5316 110.965 26.4297 111.224 26.226C111.482 26.0194 111.677 25.7397 111.809 25.3867C111.944 25.0338 112.011 24.6364 112.011 24.1945C112.011 23.7584 111.945 23.3667 111.813 23.0196C111.684 22.6724 111.489 22.3984 111.228 22.1975C110.97 21.9966 110.647 21.8962 110.26 21.8962C109.887 21.8962 109.571 21.9923 109.313 22.1846C109.057 22.3768 108.864 22.6451 108.732 22.9894C108.6 23.3337 108.534 23.7355 108.534 24.1945ZM116.141 18.6855V27.5H114.854V18.6855H116.141ZM119.897 27.6463C119.478 27.6463 119.099 27.5689 118.761 27.4139C118.422 27.2561 118.154 27.028 117.956 26.7296C117.761 26.4312 117.663 26.0653 117.663 25.6321C117.663 25.2591 117.735 24.952 117.878 24.711C118.022 24.47 118.216 24.2792 118.459 24.1386C118.703 23.998 118.976 23.8918 119.277 23.8201C119.579 23.7484 119.886 23.6938 120.198 23.6565C120.594 23.6106 120.916 23.5733 121.162 23.5446C121.409 23.5131 121.588 23.4629 121.7 23.394C121.812 23.3251 121.868 23.2132 121.868 23.0583V23.0282C121.868 22.6523 121.762 22.3611 121.55 22.1545C121.34 21.9479 121.028 21.8446 120.611 21.8446C120.178 21.8446 119.837 21.9407 119.587 22.1329C119.34 22.3223 119.17 22.5332 119.075 22.7656L117.866 22.4902C118.009 22.0885 118.218 21.7642 118.494 21.5175C118.772 21.2678 119.092 21.0871 119.454 20.9752C119.815 20.8604 120.195 20.803 120.594 20.803C120.858 20.803 121.138 20.8346 121.434 20.8977C121.732 20.958 122.01 21.0699 122.268 21.2334C122.53 21.397 122.743 21.6308 122.91 21.935C123.076 22.2362 123.159 22.6279 123.159 23.1099V27.5H121.903V26.5962H121.851C121.768 26.7626 121.643 26.9261 121.477 27.0868C121.31 27.2475 121.096 27.3809 120.835 27.4871C120.574 27.5933 120.261 27.6463 119.897 27.6463ZM120.177 26.6134C120.533 26.6134 120.837 26.5431 121.089 26.4025C121.345 26.2619 121.538 26.0783 121.67 25.8516C121.805 25.622 121.873 25.3767 121.873 25.1156V24.2634C121.827 24.3093 121.738 24.3524 121.606 24.3925C121.477 24.4298 121.329 24.4628 121.162 24.4915C120.996 24.5173 120.834 24.5417 120.676 24.5647C120.518 24.5848 120.386 24.602 120.28 24.6163C120.03 24.6479 119.802 24.701 119.596 24.7756C119.392 24.8502 119.228 24.9578 119.105 25.0984C118.985 25.2361 118.924 25.4197 118.924 25.6493C118.924 25.9678 119.042 26.2088 119.277 26.3724C119.513 26.533 119.812 26.6134 120.177 26.6134ZM124.974 27.5V20.8891H126.261V27.5H124.974ZM125.624 19.869C125.401 19.869 125.208 19.7944 125.048 19.6452C124.89 19.4932 124.811 19.3124 124.811 19.1029C124.811 18.8906 124.89 18.7098 125.048 18.5606C125.208 18.4086 125.401 18.3325 125.624 18.3325C125.848 18.3325 126.039 18.4086 126.197 18.5606C126.357 18.7098 126.438 18.8906 126.438 19.1029C126.438 19.3124 126.357 19.4932 126.197 19.6452C126.039 19.7944 125.848 19.869 125.624 19.869ZM129.381 23.5748V27.5H128.094V20.8891H129.329V21.9651H129.411C129.563 21.615 129.801 21.3338 130.125 21.1215C130.452 20.9092 130.864 20.803 131.36 20.803C131.811 20.803 132.205 20.8977 132.544 21.0871C132.883 21.2736 133.145 21.5519 133.332 21.922C133.518 22.2922 133.611 22.7498 133.611 23.295V27.5H132.324V23.45C132.324 22.9708 132.2 22.5963 131.95 22.3266C131.7 22.054 131.357 21.9177 130.921 21.9177C130.623 21.9177 130.358 21.9823 130.125 22.1114C129.896 22.2405 129.713 22.4299 129.579 22.6795C129.447 22.9263 129.381 23.2247 129.381 23.5748ZM138.524 20.8891V21.922H134.913V20.8891H138.524ZM135.882 19.3052H137.168V25.5589C137.168 25.8085 137.206 25.9965 137.28 26.1227C137.355 26.2461 137.451 26.3308 137.569 26.3767C137.689 26.4197 137.82 26.4412 137.96 26.4412C138.064 26.4412 138.154 26.434 138.232 26.4197C138.309 26.4054 138.369 26.3939 138.412 26.3853L138.645 27.4484C138.57 27.477 138.464 27.5057 138.326 27.5344C138.188 27.566 138.016 27.5832 137.81 27.5861C137.471 27.5918 137.156 27.5316 136.863 27.4053C136.57 27.2791 136.333 27.0839 136.153 26.82C135.972 26.556 135.882 26.2246 135.882 25.8258V19.3052ZM144.896 22.5031L143.73 22.7097C143.681 22.5605 143.603 22.4184 143.497 22.2836C143.394 22.1487 143.253 22.0383 143.075 21.9522C142.898 21.8661 142.675 21.8231 142.408 21.8231C142.044 21.8231 141.74 21.9048 141.496 22.0684C141.252 22.2291 141.13 22.4371 141.13 22.6925C141.13 22.9134 141.212 23.0913 141.375 23.2262C141.539 23.361 141.803 23.4715 142.167 23.5576L143.218 23.7986C143.826 23.9392 144.279 24.1558 144.578 24.4485C144.876 24.7412 145.025 25.1213 145.025 25.589C145.025 25.985 144.91 26.3379 144.681 26.6478C144.454 26.9548 144.137 27.1959 143.73 27.3709C143.325 27.5459 142.856 27.6334 142.322 27.6334C141.582 27.6334 140.978 27.4756 140.51 27.16C140.043 26.8415 139.756 26.3896 139.65 25.8042L140.893 25.6149C140.971 25.9391 141.13 26.1844 141.371 26.3508C141.612 26.5144 141.926 26.5962 142.314 26.5962C142.735 26.5962 143.073 26.5087 143.325 26.3336C143.578 26.1557 143.704 25.9391 143.704 25.6837C143.704 25.4771 143.626 25.3035 143.471 25.1629C143.319 25.0223 143.086 24.9162 142.77 24.8444L141.651 24.5991C141.034 24.4585 140.578 24.2347 140.282 23.9277C139.99 23.6207 139.843 23.2319 139.843 22.7613C139.843 22.3711 139.952 22.0296 140.17 21.737C140.388 21.4443 140.69 21.2162 141.074 21.0526C141.459 20.8862 141.899 20.803 142.395 20.803C143.11 20.803 143.672 20.958 144.083 21.2678C144.493 21.5749 144.764 21.9866 144.896 22.5031Z" fill="white"/>
</svg>
