<svg width="131" height="46" viewBox="0 0 131 46" fill="none" xmlns="http://www.w3.org/2000/svg">
<rect x="0.133301" y="0.519531" width="130.46" height="44.9619" rx="8.08" fill="#3B72C5"/>
<path d="M33.4243 23.2458C33.1008 23.1147 32.7545 23.0481 32.405 23.0501L32.4047 23.0501L23.119 23.0501C22.3934 23.0501 21.6976 23.3383 21.1845 23.8514C20.6715 24.3644 20.3833 25.0603 20.3833 25.7858V26.1296C20.3845 26.2138 20.3902 26.2979 20.4002 26.3816L20.4003 26.382C20.5023 27.2948 20.8303 28.1677 21.3548 28.9217L33.4243 23.2458ZM33.4243 23.2458C33.0094 23.7204 32.6488 24.2441 32.3522 24.8072H23.119C22.8594 24.8072 22.6105 24.9103 22.427 25.0939C22.2435 25.2774 22.1404 25.5263 22.1404 25.7858V26.104H22.1402L22.1406 26.1084L22.1493 26.2062L22.1492 26.2062L22.1494 26.2076C22.221 26.8202 22.4421 27.4057 22.7931 27.9128L22.7933 27.9131C23.4157 28.8014 24.7496 29.8596 27.7618 29.8596C29.4675 29.8596 30.6347 29.5196 31.4406 29.0641C31.4773 29.6766 31.5836 30.283 31.7574 30.8715C30.7369 31.3282 29.4292 31.6168 27.7618 31.6168C24.2741 31.6168 22.3568 30.3524 21.3549 28.9218L33.4243 23.2458ZM25.5378 13.3475C24.948 13.9373 24.6166 14.7374 24.6166 15.5715C24.6166 16.4057 24.948 17.2057 25.5378 17.7955C26.1277 18.3854 26.9277 18.7168 27.7618 18.7168C28.596 18.7168 29.396 18.3854 29.9858 17.7955C30.5757 17.2057 30.9071 16.4057 30.9071 15.5715C30.9071 14.7374 30.5757 13.9373 29.9858 13.3475C29.396 12.7577 28.596 12.4263 27.7618 12.4263C26.9277 12.4263 26.1277 12.7577 25.5378 13.3475ZM24.2953 12.105C25.2147 11.1856 26.4616 10.6691 27.7618 10.6691C29.062 10.6691 30.309 11.1856 31.2283 12.105C32.1477 13.0244 32.6642 14.2713 32.6642 15.5715C32.6642 16.8717 32.1477 18.1187 31.2283 19.038C30.309 19.9574 29.062 20.4739 27.7618 20.4739C26.4616 20.4739 25.2147 19.9574 24.2953 19.038C23.3759 18.1187 22.8594 16.8717 22.8594 15.5715C22.8594 14.2713 23.3759 13.0244 24.2953 12.105ZM37.5561 15.4611C37.1985 15.8187 36.9975 16.3038 36.9975 16.8096C36.9975 17.3154 37.1985 17.8005 37.5561 18.1582C37.9138 18.5158 38.3989 18.7168 38.9047 18.7168C39.4105 18.7168 39.8956 18.5158 40.2532 18.1582C40.6109 17.8005 40.8118 17.3154 40.8118 16.8096C40.8118 16.3038 40.6109 15.8187 40.2532 15.4611C39.8956 15.1034 39.4105 14.9025 38.9047 14.9025C38.3989 14.9025 37.9138 15.1034 37.5561 15.4611ZM36.3136 14.2186C37.0008 13.5314 37.9329 13.1453 38.9047 13.1453C39.8765 13.1453 40.8085 13.5314 41.4957 14.2186C42.1829 14.9058 42.569 15.8378 42.569 16.8096C42.569 17.7814 42.1829 18.7135 41.4957 19.4007C40.8085 20.0878 39.8765 20.4739 38.9047 20.4739C37.9329 20.4739 37.0008 20.0878 36.3136 19.4007C35.6265 18.7135 35.2404 17.7814 35.2404 16.8096C35.2404 15.8378 35.6265 14.9058 36.3136 14.2186ZM44.3034 23.7918C45.5711 25.0595 46.2833 26.7788 46.2833 28.5715C46.2833 30.3643 45.5711 32.0836 44.3034 33.3512C43.0358 34.6189 41.3165 35.331 39.5237 35.331C37.731 35.331 36.0117 34.6189 34.744 33.3512C33.4764 32.0836 32.7642 30.3643 32.7642 28.5715C32.7642 26.7788 33.4764 25.0595 34.744 23.7918C36.0117 22.5242 37.731 21.812 39.5237 21.812C41.3165 21.812 43.0358 22.5242 44.3034 23.7918ZM40.194 32.2895L40.1928 29.2406H43.2343C43.4117 29.2406 43.5819 29.1701 43.7074 29.0446C43.8329 28.9191 43.9033 28.749 43.9033 28.5715C43.9033 28.3941 43.8329 28.2239 43.7074 28.0984C43.5819 27.973 43.4117 27.9025 43.2343 27.9025H40.1928V24.8572C40.1928 24.6798 40.1223 24.5096 39.9968 24.3841C39.8713 24.2587 39.7012 24.1882 39.5237 24.1882C39.3463 24.1882 39.1761 24.2587 39.0506 24.3841C38.9252 24.5096 38.8547 24.6798 38.8547 24.8572V27.9025H35.8045C35.627 27.9025 35.4569 27.973 35.3314 28.0984C35.2059 28.2239 35.1354 28.3941 35.1354 28.5715C35.1354 28.749 35.2059 28.9191 35.3314 29.0446C35.4569 29.1701 35.627 29.2406 35.8045 29.2406H38.8559V32.2895C38.8559 32.467 38.9264 32.6371 39.0519 32.7626C39.1773 32.8881 39.3475 32.9586 39.525 32.9586C39.7024 32.9586 39.8726 32.8881 39.9981 32.7626C40.1235 32.6371 40.194 32.467 40.194 32.2895Z" fill="white" stroke="white" stroke-width="0.1"/>
<path d="M56.2152 27.5H53.3617V18.6855H56.3056C57.1693 18.6855 57.911 18.8619 58.5308 19.2148C59.1506 19.5649 59.6254 20.0685 59.9554 20.7255C60.2882 21.3797 60.4547 22.1645 60.4547 23.0798C60.4547 23.998 60.2868 24.7871 59.9511 25.447C59.6183 26.1069 59.1362 26.6148 58.505 26.9706C57.8737 27.3235 57.1105 27.5 56.2152 27.5ZM54.6916 26.3379H56.1421C56.8135 26.3379 57.3716 26.2117 57.8163 25.9592C58.2611 25.7038 58.5939 25.3351 58.8148 24.8531C59.0358 24.3681 59.1463 23.7771 59.1463 23.0798C59.1463 22.3883 59.0358 21.8015 58.8148 21.3195C58.5968 20.8374 58.2711 20.4716 57.8378 20.222C57.4046 19.9723 56.8666 19.8475 56.2239 19.8475H54.6916V26.3379ZM66.2939 24.7584V20.8891H67.5851V27.5H66.3198V26.3551H66.2509C66.0988 26.7081 65.8549 27.0022 65.5192 27.2375C65.1864 27.4699 64.7718 27.5861 64.2754 27.5861C63.8507 27.5861 63.4748 27.4928 63.1477 27.3063C62.8235 27.1169 62.5681 26.8372 62.3816 26.467C62.198 26.0969 62.1062 25.6392 62.1062 25.0941V20.8891H63.3931V24.9391C63.3931 25.3896 63.5179 25.7483 63.7675 26.0151C64.0171 26.282 64.3414 26.4154 64.7402 26.4154C64.9812 26.4154 65.2208 26.3551 65.459 26.2346C65.7 26.1141 65.8994 25.9319 66.0572 25.688C66.2179 25.4441 66.2968 25.1342 66.2939 24.7584ZM71.3391 27.6463C70.9202 27.6463 70.5415 27.5689 70.2029 27.4139C69.8643 27.2561 69.596 27.028 69.398 26.7296C69.2029 26.4312 69.1054 26.0653 69.1054 25.6321C69.1054 25.2591 69.1771 24.952 69.3206 24.711C69.464 24.47 69.6577 24.2792 69.9016 24.1386C70.1455 23.998 70.4181 23.8918 70.7194 23.8201C71.0206 23.7484 71.3277 23.6938 71.6404 23.6565C72.0364 23.6106 72.3577 23.5733 72.6045 23.5446C72.8513 23.5131 73.0306 23.4629 73.1425 23.394C73.2544 23.3251 73.3104 23.2132 73.3104 23.0583V23.0282C73.3104 22.6523 73.2042 22.3611 72.9919 22.1545C72.7824 21.9479 72.4696 21.8446 72.0536 21.8446C71.6203 21.8446 71.2789 21.9407 71.0292 22.1329C70.7825 22.3223 70.6118 22.5332 70.5171 22.7656L69.3077 22.4902C69.4511 22.0885 69.6606 21.7642 69.936 21.5175C70.2144 21.2678 70.5343 21.0871 70.8958 20.9752C71.2574 20.8604 71.6375 20.803 72.0364 20.803C72.3004 20.803 72.5801 20.8346 72.8757 20.8977C73.1741 20.958 73.4524 21.0699 73.7106 21.2334C73.9717 21.397 74.1855 21.6308 74.3519 21.935C74.5183 22.2362 74.6015 22.6279 74.6015 23.1099V27.5H73.3448V26.5962H73.2931C73.2099 26.7626 73.0851 26.9261 72.9187 27.0868C72.7523 27.2475 72.5385 27.3809 72.2774 27.4871C72.0163 27.5933 71.7035 27.6463 71.3391 27.6463ZM71.6189 26.6134C71.9747 26.6134 72.2788 26.5431 72.5313 26.4025C72.7867 26.2619 72.9804 26.0783 73.1124 25.8516C73.2472 25.622 73.3147 25.3767 73.3147 25.1156V24.2634C73.2687 24.3093 73.1798 24.3524 73.0478 24.3925C72.9187 24.4298 72.7709 24.4628 72.6045 24.4915C72.4381 24.5173 72.276 24.5417 72.1182 24.5647C71.9603 24.5848 71.8283 24.602 71.7222 24.6163C71.4726 24.6479 71.2444 24.701 71.0379 24.7756C70.8341 24.8502 70.6706 24.9578 70.5472 25.0984C70.4267 25.2361 70.3664 25.4197 70.3664 25.6493C70.3664 25.9678 70.4841 26.2088 70.7194 26.3724C70.9546 26.533 71.2545 26.6134 71.6189 26.6134ZM77.7035 18.6855V27.5H76.4166V18.6855H77.7035ZM88.6159 18.6855H89.9502V24.4829C89.9502 25.0998 89.8053 25.6464 89.5155 26.1227C89.2257 26.5962 88.8182 26.9692 88.2931 27.2418C87.7681 27.5115 87.1526 27.6463 86.4467 27.6463C85.7438 27.6463 85.1297 27.5115 84.6046 27.2418C84.0795 26.9692 83.6721 26.5962 83.3823 26.1227C83.0925 25.6464 82.9476 25.0998 82.9476 24.4829V18.6855H84.2775V24.3753C84.2775 24.7741 84.365 25.1285 84.5401 25.4384C84.718 25.7483 84.969 25.9922 85.2933 26.1701C85.6175 26.3451 86.002 26.4326 86.4467 26.4326C86.8944 26.4326 87.2803 26.3451 87.6045 26.1701C87.9316 25.9922 88.1812 25.7483 88.3534 25.4384C88.5284 25.1285 88.6159 24.7741 88.6159 24.3753V18.6855ZM96.8353 22.5031L95.6689 22.7097C95.6202 22.5605 95.5427 22.4184 95.4365 22.2836C95.3332 22.1487 95.1926 22.0383 95.0147 21.9522C94.8368 21.8661 94.6145 21.8231 94.3476 21.8231C93.9832 21.8231 93.6791 21.9048 93.4352 22.0684C93.1913 22.2291 93.0693 22.4371 93.0693 22.6925C93.0693 22.9134 93.1511 23.0913 93.3147 23.2262C93.4782 23.361 93.7422 23.4715 94.1066 23.5576L95.1568 23.7986C95.7651 23.9392 96.2184 24.1558 96.5168 24.4485C96.8152 24.7412 96.9644 25.1213 96.9644 25.589C96.9644 25.985 96.8497 26.3379 96.6201 26.6478C96.3934 26.9548 96.0764 27.1959 95.6689 27.3709C95.2644 27.5459 94.7952 27.6334 94.2615 27.6334C93.5213 27.6334 92.9173 27.4756 92.4496 27.16C91.9819 26.8415 91.6949 26.3896 91.5888 25.8042L92.8326 25.6149C92.9101 25.9391 93.0693 26.1844 93.3104 26.3508C93.5514 26.5144 93.8656 26.5962 94.2529 26.5962C94.6747 26.5962 95.0119 26.5087 95.2644 26.3336C95.5169 26.1557 95.6431 25.9391 95.6431 25.6837C95.6431 25.4771 95.5656 25.3035 95.4107 25.1629C95.2586 25.0223 95.0248 24.9162 94.7092 24.8444L93.5901 24.5991C92.9732 24.4585 92.517 24.2347 92.2215 23.9277C91.9288 23.6207 91.7825 23.2319 91.7825 22.7613C91.7825 22.3711 91.8915 22.0296 92.1096 21.737C92.3276 21.4443 92.6289 21.2162 93.0134 21.0526C93.3979 20.8862 93.8383 20.803 94.3347 20.803C95.0492 20.803 95.6116 20.958 96.0219 21.2678C96.4322 21.5749 96.7033 21.9866 96.8353 22.5031ZM101.33 27.6334C100.678 27.6334 100.117 27.4943 99.6467 27.2159C99.1791 26.9347 98.8175 26.5402 98.5621 26.0323C98.3096 25.5216 98.1834 24.9234 98.1834 24.2376C98.1834 23.5604 98.3096 22.9636 98.5621 22.4471C98.8175 21.9307 99.1733 21.5275 99.6295 21.2377C100.089 20.9479 100.625 20.803 101.239 20.803C101.612 20.803 101.974 20.8647 102.324 20.9881C102.674 21.1115 102.988 21.3051 103.266 21.5691C103.545 21.8331 103.764 22.176 103.925 22.5978C104.086 23.0167 104.166 23.526 104.166 24.1257V24.5819H98.9108V23.6178H102.905C102.905 23.2792 102.836 22.9794 102.698 22.7183C102.561 22.4543 102.367 22.2463 102.117 22.0942C101.87 21.9421 101.581 21.8661 101.248 21.8661C100.886 21.8661 100.571 21.955 100.301 22.1329C100.034 22.308 99.8275 22.5375 99.6812 22.8216C99.5377 23.1028 99.466 23.4084 99.466 23.7383V24.4915C99.466 24.9334 99.5435 25.3093 99.6984 25.6192C99.8562 25.929 100.076 26.1658 100.357 26.3293C100.638 26.49 100.967 26.5703 101.343 26.5703C101.586 26.5703 101.809 26.5359 102.01 26.467C102.21 26.3953 102.384 26.2891 102.53 26.1486C102.677 26.008 102.789 25.8344 102.866 25.6278L104.084 25.8473C103.987 26.2059 103.812 26.5201 103.559 26.7898C103.309 27.0567 102.995 27.2647 102.616 27.4139C102.241 27.5603 101.812 27.6334 101.33 27.6334ZM105.695 27.5V20.8891H106.939V21.9393H107.007C107.128 21.5835 107.34 21.3037 107.644 21.1C107.951 20.8934 108.299 20.7901 108.686 20.7901C108.766 20.7901 108.861 20.793 108.97 20.7987C109.082 20.8044 109.17 20.8116 109.233 20.8202V22.0512C109.181 22.0368 109.089 22.021 108.957 22.0038C108.825 21.9837 108.693 21.9737 108.561 21.9737C108.257 21.9737 107.986 22.0383 107.748 22.1674C107.512 22.2936 107.326 22.4701 107.188 22.6968C107.051 22.9206 106.982 23.1759 106.982 23.4629V27.5H105.695Z" fill="white"/>
</svg>
