<svg width="15" height="12" viewBox="0 0 15 12" fill="none" xmlns="http://www.w3.org/2000/svg">
<path d="M13.8233 10.9635H12.87V6.67349L13.0094 6.81291C13.099 6.90235 13.2205 6.95254 13.3471 6.95243C13.4737 6.95232 13.5951 6.90192 13.6845 6.81232C13.7739 6.72272 13.8241 6.60126 13.824 6.47465C13.8239 6.34805 13.7735 6.22668 13.6839 6.13724L7.82389 0.279004C7.64512 0.100354 7.40273 0 7.15 0C6.89727 0 6.65488 0.100354 6.47611 0.279004L0.616092 6.13724C0.526729 6.22668 0.476556 6.34796 0.476612 6.47439C0.476668 6.60083 0.526947 6.72206 0.61639 6.81142C0.705832 6.90079 0.82711 6.95096 0.953544 6.9509C1.07998 6.95085 1.20121 6.90057 1.29058 6.81113L1.43 6.67349V10.9635H0.476667C0.350247 10.9635 0.229005 11.0137 0.139612 11.1031C0.0502201 11.1925 0 11.3137 0 11.4402C0 11.5666 0.0502201 11.6878 0.139612 11.7772C0.229005 11.8666 0.350247 11.9168 0.476667 11.9168H13.8233C13.9498 11.9168 14.071 11.8666 14.1604 11.7772C14.2498 11.6878 14.3 11.5666 14.3 11.4402C14.3 11.3137 14.2498 11.1925 14.1604 11.1031C14.071 11.0137 13.9498 10.9635 13.8233 10.9635ZM2.38333 5.72015L7.15 0.953487L11.9167 5.72015V10.9635H9.05667V7.62682C9.05667 7.5004 9.00645 7.37916 8.91705 7.28977C8.82766 7.20037 8.70642 7.15015 8.58 7.15015H5.72C5.59358 7.15015 5.47234 7.20037 5.38295 7.28977C5.29355 7.37916 5.24333 7.5004 5.24333 7.62682V10.9635H2.38333V5.72015ZM8.10333 10.9635H6.19667V8.10349H8.10333V10.9635Z" fill="white"/>
</svg>
