<svg width="147" height="124" viewBox="0 0 147 124" fill="none" xmlns="http://www.w3.org/2000/svg">
<path d="M137.646 88.3504L139.353 90.0585V87.6435V10.093C139.353 9.44555 139.096 8.82451 138.638 8.36655L137.931 9.07347L138.638 8.36653C138.18 7.90854 137.559 7.65116 136.912 7.65116H10.0882C9.44065 7.65116 8.81967 7.90854 8.36189 8.36653C7.90413 8.82451 7.64706 9.44556 7.64706 10.093V80.8884V83.3034L9.35433 81.5953L41.1323 49.8023L41.1323 49.8022C41.9763 48.9578 42.9782 48.288 44.0808 47.831C45.1835 47.374 46.3653 47.1388 47.5588 47.1388C48.7523 47.1388 49.9341 47.374 51.0368 47.831C52.1394 48.288 53.1413 48.9578 53.9853 49.8022C53.9853 49.8022 53.9853 49.8022 53.9853 49.8022L86.7072 82.5469L87.4145 83.2546L88.1218 82.5469L103.557 67.1046L102.85 66.3977L103.557 67.1046C104.401 66.2601 105.403 65.5903 106.505 65.1333C107.608 64.6763 108.79 64.4411 109.983 64.4411C111.177 64.4411 112.359 64.6763 113.461 65.1333C114.564 65.5903 115.566 66.2601 116.41 67.1046L117.117 66.3977L116.41 67.1046L137.646 88.3504ZM7.93978 92.4156L7.64706 92.7085V93.1226V113.907C7.64706 114.554 7.90414 115.175 8.36188 115.633C8.81967 116.091 9.44066 116.349 10.0882 116.349H108.686H111.1L109.394 114.642L49.2922 54.512C49.2916 54.5113 49.2909 54.5107 49.2903 54.51C49.0637 54.2821 48.7944 54.1011 48.4978 53.9774L48.1131 54.9004L48.4978 53.9774C48.2003 53.8534 47.8811 53.7895 47.5588 53.7895C47.2365 53.7895 46.9174 53.8534 46.6199 53.9774C46.3232 54.1011 46.0539 54.2821 45.8274 54.51C45.8267 54.5107 45.8261 54.5113 45.8254 54.512L7.93978 92.4156ZM120.207 116.056L120.5 116.349H120.915H136.903C137.224 116.354 137.543 116.295 137.841 116.177C138.143 116.057 138.418 115.878 138.65 115.651L137.95 114.937L138.65 115.651C138.882 115.423 139.066 115.152 139.191 114.852C139.317 114.553 139.382 114.232 139.382 113.907V99.9065V99.4924L139.089 99.1996L111.707 71.8046C111.48 71.5776 111.211 71.3974 110.915 71.2745C110.618 71.1516 110.301 71.0883 109.98 71.0883C109.659 71.0883 109.341 71.1516 109.045 71.2745C108.748 71.3974 108.479 71.5775 108.253 71.8044C108.253 71.8045 108.253 71.8045 108.252 71.8046L92.8249 87.2467L92.1186 87.9537L92.8251 88.6604L120.207 116.056ZM10.0882 1H136.912C139.322 1 141.634 1.9579 143.338 3.66312C145.042 5.36836 146 7.68125 146 10.093V113.907C146 116.319 145.042 118.632 143.338 120.337C141.634 122.042 139.322 123 136.912 123H10.0882C7.67804 123 5.36646 122.042 3.66205 120.337C1.95762 118.632 1 116.319 1 113.907V10.093C1 7.68125 1.95762 5.36835 3.66205 3.66312C5.36646 1.9579 7.67804 1 10.0882 1ZM87.4706 41.814C87.4706 40.5858 87.8346 39.3852 88.5166 38.3641C89.1985 37.3429 90.1678 36.5472 91.3017 36.0772C92.4357 35.6073 93.6833 35.4844 94.8871 35.7239C96.0908 35.9635 97.1966 36.5548 98.0645 37.4231C98.9325 38.2915 99.5236 39.3979 99.7631 40.6025C100.003 41.8071 99.8797 43.0556 99.4099 44.1903C98.9401 45.325 98.1446 46.2947 97.1241 46.9769C96.1036 47.6591 94.9038 48.0233 93.6765 48.0233C92.0307 48.0233 90.4523 47.3692 89.2884 46.2048C88.1245 45.0403 87.4706 43.4609 87.4706 41.814Z" fill="#AEAEAE" stroke="white" stroke-width="2"/>
</svg>
