<svg width="78" height="77" viewBox="0 0 78 77" fill="none" xmlns="http://www.w3.org/2000/svg">
<rect x="0.302246" width="76.832" height="76.832" rx="3.8416" fill="#E2E6EC"/>
<path fill-rule="evenodd" clip-rule="evenodd" d="M22.3274 28.4281C22.3274 26.5894 23.818 25.0988 25.6568 25.0988H51.7797C53.6184 25.0988 55.109 26.5894 55.109 28.4281V48.9167C55.109 50.7554 53.6184 52.2461 51.7797 52.2461H25.6568C23.818 52.2461 22.3274 50.7554 22.3274 48.9167V28.4281ZM25.6568 26.6354C24.6667 26.6354 23.864 27.438 23.864 28.4281V48.9167C23.864 49.9068 24.6667 50.7094 25.6568 50.7094H51.7797C52.7698 50.7094 53.5724 49.9068 53.5724 48.9167V28.4281C53.5724 27.438 52.7698 26.6354 51.7797 26.6354H25.6568Z" fill="#B2B9C4"/>
<ellipse cx="30.0105" cy="32.2698" rx="3.32939" ry="3.32939" fill="#B2B9C4"/>
<path d="M26.6812 46.3559V44.8374C26.6812 44.4978 26.8161 44.1721 27.0562 43.932L31.196 39.7922C31.6793 39.3088 32.4571 39.2903 32.9629 39.7501L33.9857 40.68C34.4864 41.1351 35.2547 41.1223 35.7398 40.6506L43.1911 33.4063C43.6931 32.9182 44.4941 32.9238 44.9892 33.4189L50.8923 39.3221C51.1325 39.5622 51.2674 39.8879 51.2674 40.2275V46.3559C51.2674 47.0631 50.6941 47.6364 49.9869 47.6364H27.9617C27.2545 47.6364 26.6812 47.0631 26.6812 46.3559Z" fill="#B2B9C4"/>
</svg>
