<svg width="110" height="45" viewBox="0 0 110 45" fill="none" xmlns="http://www.w3.org/2000/svg">
<rect width="109.06" height="44.9619" rx="8.08" fill="#3B72C5"/>
<path d="M10.064 31.693L9.6 30.477C10.3787 30.221 11.024 29.9276 11.536 29.597C12.0587 29.2663 12.4693 28.9143 12.768 28.541C13.0773 28.1676 13.296 27.789 13.424 27.405C13.552 27.0103 13.616 26.6316 13.616 26.269C13.616 25.7463 13.4987 25.2183 13.264 24.685C13.04 24.141 12.7893 23.629 12.512 23.149L13.68 22.557C13.8827 22.9303 14.0587 23.2983 14.208 23.661C14.368 24.0236 14.5067 24.365 14.624 24.685C14.752 25.005 14.8533 25.2983 14.928 25.565C15.0773 26.0236 15.2693 26.3383 15.504 26.509C15.7493 26.669 16.08 26.749 16.496 26.749C16.72 26.749 16.88 26.813 16.976 26.941C17.0827 27.0583 17.136 27.2023 17.136 27.373C17.136 27.5436 17.0613 27.7036 16.912 27.853C16.7627 27.9916 16.5707 28.061 16.336 28.061C15.8667 28.061 15.4827 27.981 15.184 27.821C14.896 27.6503 14.6773 27.4316 14.528 27.165C14.3787 26.8876 14.2773 26.5996 14.224 26.301L14.736 26.589C14.736 27.293 14.576 27.933 14.256 28.509C13.9467 29.0956 13.5467 29.6023 13.056 30.029C12.5653 30.4663 12.0533 30.8236 11.52 31.101C10.9867 31.3783 10.5013 31.5756 10.064 31.693ZM16.4447 28.061L16.5887 26.749C17.1434 26.749 17.6874 26.7063 18.2207 26.621C18.7541 26.5356 19.2768 26.413 19.7887 26.253C20.3007 26.093 20.7914 25.901 21.2608 25.677C21.7408 25.4423 22.1941 25.1756 22.6207 24.877C22.3434 24.6316 22.0234 24.4183 21.6607 24.237C21.2981 24.0556 20.8981 23.917 20.4608 23.821C20.0341 23.7143 19.5807 23.661 19.1007 23.661C18.9301 23.661 18.7701 23.6663 18.6207 23.677C18.4714 23.6876 18.3221 23.709 18.1727 23.741C18.0234 23.7623 17.8527 23.7943 17.6607 23.837L17.4047 22.621C17.6927 22.5356 17.9807 22.4716 18.2687 22.429C18.5567 22.3756 18.8341 22.349 19.1007 22.349C19.6554 22.349 20.1568 22.4183 20.6048 22.557C21.0528 22.685 21.4581 22.845 21.8208 23.037C22.1941 23.229 22.5408 23.421 22.8608 23.613C23.1914 23.805 23.5114 23.9703 23.8208 24.109C24.1301 24.237 24.4501 24.301 24.7808 24.301H25.1168L25.2288 25.453C24.7701 25.453 24.3488 25.517 23.9648 25.645C23.5808 25.773 23.2021 25.9383 22.8288 26.141C22.4661 26.333 22.0821 26.541 21.6768 26.765C21.2714 26.9783 20.8234 27.1863 20.3328 27.389C19.8421 27.581 19.2768 27.741 18.6367 27.869C18.0074 27.997 17.2767 28.061 16.4447 28.061ZM20.9088 30.957C20.6848 30.957 20.4928 30.877 20.3328 30.717C20.1834 30.5676 20.1088 30.3863 20.1088 30.173C20.1088 29.9596 20.1834 29.773 20.3328 29.613C20.4928 29.453 20.6848 29.373 20.9088 29.373C21.1221 29.373 21.3034 29.453 21.4528 29.613C21.6128 29.773 21.6927 29.9596 21.6927 30.173C21.6927 30.3863 21.6128 30.5676 21.4528 30.717C21.3034 30.877 21.1221 30.957 20.9088 30.957ZM30.5916 28.061C29.7383 28.061 29.0876 27.965 28.6396 27.773C28.1916 27.581 27.8823 27.2823 27.7116 26.877C27.541 26.4716 27.4396 25.949 27.4076 25.309L27.1196 17.677H28.4316L28.7196 24.797C28.741 25.3196 28.789 25.725 28.8636 26.013C28.949 26.2903 29.1303 26.4823 29.4076 26.589C29.6956 26.6956 30.1436 26.749 30.7516 26.749C30.9756 26.749 31.1356 26.813 31.2316 26.941C31.3383 27.0583 31.3916 27.2023 31.3916 27.373C31.3916 27.5436 31.317 27.7036 31.1676 27.853C31.0183 27.9916 30.8263 28.061 30.5916 28.061ZM26.3196 16.717L26.1276 15.853C26.405 15.789 26.629 15.7356 26.7996 15.693C26.9703 15.6503 27.1623 15.6023 27.3756 15.549L27.2956 15.885C27.0183 15.7996 26.7516 15.6183 26.4956 15.341C26.2503 15.0636 26.1276 14.749 26.1276 14.397C26.1276 14.077 26.2023 13.8103 26.3516 13.597C26.5116 13.373 26.7143 13.2076 26.9596 13.101C27.2156 12.9943 27.4876 12.941 27.7756 12.941C27.893 12.941 28.0156 12.9516 28.1436 12.973C28.2823 12.9943 28.4103 13.0263 28.5276 13.069L28.3996 13.869C28.293 13.8476 28.1916 13.8263 28.0956 13.805C27.9996 13.7836 27.893 13.773 27.7756 13.773C27.5303 13.773 27.3383 13.8263 27.1996 13.933C27.061 14.029 26.9916 14.1676 26.9916 14.349C26.9916 14.573 27.061 14.765 27.1996 14.925C27.349 15.085 27.5143 15.213 27.6956 15.309C27.8876 15.3943 28.0423 15.437 28.1596 15.437L27.5036 15.501C27.7916 15.4263 28.0583 15.3516 28.3036 15.277C28.5596 15.1916 28.789 15.1116 28.9916 15.037L29.2476 15.853C28.9916 15.949 28.6876 16.0503 28.3356 16.157C27.9943 16.2636 27.6476 16.365 27.2956 16.461C26.9436 16.557 26.6183 16.6423 26.3196 16.717ZM30.6936 28.061L30.8536 26.749C31.387 26.749 31.803 26.7116 32.1016 26.637C32.4003 26.5516 32.6243 26.397 32.7736 26.173C32.9336 25.9383 33.0616 25.6023 33.1576 25.165C33.2536 24.7276 33.371 24.157 33.5096 23.453L34.7576 23.693C34.715 23.885 34.667 24.0983 34.6136 24.333C34.5603 24.5676 34.5123 24.8023 34.4696 25.037C34.4376 25.261 34.4216 25.4583 34.4216 25.629C34.4216 25.789 34.4323 25.9383 34.4536 26.077C34.475 26.2156 34.555 26.333 34.6936 26.429C34.8323 26.525 35.067 26.605 35.3976 26.669C35.7283 26.7223 36.203 26.749 36.8216 26.749C37.0456 26.749 37.2056 26.813 37.3016 26.941C37.4083 27.0583 37.4616 27.2023 37.4616 27.373C37.4616 27.5436 37.387 27.7036 37.2376 27.853C37.0883 27.9916 36.8963 28.061 36.6616 28.061C36.011 28.061 35.4936 28.029 35.1096 27.965C34.7256 27.8903 34.4323 27.7836 34.2296 27.645C34.0376 27.5063 33.899 27.3356 33.8136 27.133C33.739 26.9196 33.6803 26.6743 33.6376 26.397L34.1176 26.429C33.947 26.7703 33.7603 27.0476 33.5576 27.261C33.3656 27.4743 33.1416 27.6396 32.8856 27.757C32.6296 27.8743 32.3203 27.9543 31.9576 27.997C31.6056 28.0396 31.1843 28.061 30.6936 28.061ZM34.9656 21.805C34.7416 21.805 34.5496 21.7303 34.3896 21.581C34.2403 21.421 34.1656 21.2343 34.1656 21.021C34.1656 20.8076 34.2403 20.621 34.3896 20.461C34.5496 20.301 34.7416 20.221 34.9656 20.221C35.179 20.221 35.3603 20.301 35.5096 20.461C35.6696 20.621 35.7496 20.8076 35.7496 21.021C35.7496 21.2343 35.6696 21.421 35.5096 21.581C35.3603 21.7303 35.179 21.805 34.9656 21.805ZM32.7736 21.805C32.5496 21.805 32.3576 21.7303 32.1976 21.581C32.0483 21.421 31.9736 21.2343 31.9736 21.021C31.9736 20.8076 32.0483 20.621 32.1976 20.461C32.3576 20.301 32.5496 20.221 32.7736 20.221C32.987 20.221 33.1683 20.301 33.3176 20.461C33.4776 20.621 33.5576 20.8076 33.5576 21.021C33.5576 21.2343 33.4776 21.421 33.3176 21.581C33.1683 21.7303 32.987 21.805 32.7736 21.805ZM36.7634 28.061L36.9234 26.749C37.2647 26.749 37.542 26.7276 37.7554 26.685C37.9687 26.6316 38.1447 26.509 38.2834 26.317C38.4327 26.1143 38.5714 25.7996 38.6994 25.373C38.8274 24.9463 38.9767 24.349 39.1474 23.581L40.3474 23.917C40.2834 24.1836 40.2087 24.5036 40.1234 24.877C40.038 25.2503 39.9954 25.5916 39.9954 25.901C39.9954 26.0716 40.038 26.221 40.1234 26.349C40.2087 26.477 40.3527 26.5783 40.5554 26.653C40.7687 26.717 41.0514 26.749 41.4034 26.749C41.7234 26.749 41.9847 26.7223 42.1874 26.669C42.39 26.6156 42.5554 26.4876 42.6834 26.285C42.822 26.0823 42.9447 25.757 43.0514 25.309C43.158 24.861 43.27 24.2476 43.3874 23.469L44.6034 23.693C44.5714 23.885 44.534 24.1196 44.4914 24.397C44.4487 24.6743 44.406 24.9516 44.3634 25.229C44.3314 25.4956 44.3154 25.7196 44.3154 25.901C44.3154 26.0503 44.3474 26.1943 44.4114 26.333C44.486 26.461 44.6247 26.5623 44.8274 26.637C45.0407 26.7116 45.3554 26.749 45.7714 26.749C46.3047 26.749 46.6887 26.637 46.9234 26.413C47.1687 26.189 47.2914 25.8476 47.2914 25.389C47.2914 25.1436 47.286 24.8876 47.2754 24.621C47.2647 24.3436 47.2434 24.0396 47.2114 23.709C47.19 23.3676 47.1527 22.9783 47.0994 22.541L48.2674 22.461C48.3314 23.325 48.4007 24.0343 48.4754 24.589C48.5607 25.1436 48.678 25.581 48.8274 25.901C48.9874 26.2103 49.2007 26.429 49.4674 26.557C49.734 26.685 50.086 26.749 50.5234 26.749C50.7474 26.749 50.9074 26.813 51.0034 26.941C51.11 27.0583 51.1634 27.2023 51.1634 27.373C51.1634 27.5436 51.0887 27.7036 50.9394 27.853C50.79 27.9916 50.598 28.061 50.3634 28.061C50.0007 28.061 49.6754 28.013 49.3874 27.917C49.11 27.8103 48.8647 27.6716 48.6514 27.501C48.4487 27.3196 48.278 27.117 48.1394 26.893C48.0114 26.6583 47.9207 26.413 47.8674 26.157L48.1554 26.253C48.038 26.733 47.8514 27.1063 47.5954 27.373C47.35 27.629 47.0567 27.8103 46.7154 27.917C46.374 28.013 46.0114 28.061 45.6274 28.061C45.158 28.061 44.774 28.0023 44.4754 27.885C44.1767 27.7676 43.942 27.5916 43.7714 27.357C43.6114 27.1116 43.5047 26.8023 43.4514 26.429H43.9954C43.7927 26.8876 43.5794 27.2343 43.3554 27.469C43.1314 27.7036 42.854 27.8636 42.5234 27.949C42.1927 28.0236 41.7554 28.061 41.2114 28.061C40.9447 28.061 40.6567 28.0183 40.3474 27.933C40.0487 27.8476 39.7874 27.6823 39.5634 27.437C39.3394 27.181 39.206 26.8023 39.1634 26.301L39.6434 26.205C39.462 26.749 39.238 27.1543 38.9714 27.421C38.7154 27.677 38.406 27.8476 38.0434 27.933C37.6807 28.0183 37.254 28.061 36.7634 28.061ZM50.4581 28.061L50.6181 26.749C50.9168 26.749 51.1515 26.685 51.3221 26.557C51.5035 26.429 51.6741 26.2156 51.8341 25.917C52.0048 25.6183 52.2181 25.2183 52.4741 24.717C52.7301 24.205 52.9861 23.789 53.2421 23.469C53.5088 23.1383 53.7648 22.8823 54.0101 22.701C54.2661 22.509 54.5061 22.3756 54.7301 22.301C54.9541 22.2263 55.1621 22.189 55.3541 22.189C55.7061 22.189 56.0208 22.269 56.2981 22.429C56.5755 22.5783 56.8368 22.8396 57.0821 23.213C57.3275 23.5756 57.5781 24.077 57.8341 24.717C58.0795 25.3036 58.2981 25.7463 58.4901 26.045C58.6928 26.333 58.9008 26.525 59.1141 26.621C59.3381 26.7063 59.5888 26.749 59.8661 26.749C60.0901 26.749 60.2501 26.813 60.3461 26.941C60.4528 27.0583 60.5061 27.2023 60.5061 27.373C60.5061 27.5436 60.4315 27.7036 60.2821 27.853C60.1328 27.9916 59.9408 28.061 59.7061 28.061C59.2901 28.061 58.9061 27.9916 58.5541 27.853C58.2128 27.7143 57.9248 27.4956 57.6901 27.197L57.9141 26.861C57.7968 27.1916 57.6368 27.4636 57.4341 27.677C57.2421 27.8796 57.0235 28.029 56.7781 28.125C56.5328 28.2316 56.2715 28.285 55.9941 28.285C55.6421 28.285 55.2795 28.2103 54.9061 28.061C54.5435 27.9116 54.1915 27.6983 53.8501 27.421C53.5088 27.1436 53.2101 26.8183 52.9541 26.445C52.6768 26.9356 52.4101 27.2983 52.1541 27.533C51.9088 27.757 51.6528 27.901 51.3861 27.965C51.1195 28.029 50.8101 28.061 50.4581 28.061ZM53.5621 25.229C53.7435 25.5276 53.9355 25.789 54.1381 26.013C54.3515 26.237 54.5648 26.4236 54.7781 26.573C54.9915 26.7116 55.1995 26.8183 55.4021 26.893C55.6155 26.957 55.8075 26.989 55.9781 26.989C56.3515 26.989 56.6235 26.8556 56.7941 26.589C56.9755 26.3223 56.9701 25.949 56.7781 25.469C56.6821 25.2236 56.5808 24.9836 56.4741 24.749C56.3781 24.5143 56.2715 24.301 56.1541 24.109C56.0368 23.9063 55.9035 23.7516 55.7541 23.645C55.6048 23.5276 55.4395 23.469 55.2581 23.469C55.0981 23.469 54.9275 23.5223 54.7461 23.629C54.5755 23.7356 54.3888 23.917 54.1861 24.173C53.9941 24.429 53.7861 24.781 53.5621 25.229ZM59.8091 28.061L59.9691 26.749H61.4731C62.1025 26.749 62.5985 26.717 62.9611 26.653C63.3345 26.5783 63.6065 26.4876 63.7771 26.381C63.9585 26.2636 64.0758 26.141 64.1291 26.013C64.1931 25.8743 64.2251 25.7356 64.2251 25.597C64.2251 25.3516 64.1291 25.0476 63.9371 24.685C63.7558 24.3223 63.3771 23.853 62.8011 23.277C62.5025 22.9783 62.2038 22.7063 61.9051 22.461C61.6065 22.205 61.3291 21.981 61.0731 21.789C60.8278 21.5863 60.6305 21.4156 60.4811 21.277C60.3318 21.1383 60.2571 21.0316 60.2571 20.957C60.2571 20.797 60.2678 20.6423 60.2891 20.493C60.3211 20.3436 60.3585 20.205 60.4011 20.077C60.4545 19.949 60.5185 19.8476 60.5931 19.773C60.8065 19.549 61.0785 19.325 61.4091 19.101C61.7505 18.877 62.1451 18.6423 62.5931 18.397C63.0518 18.1516 63.5638 17.8903 64.1291 17.613C64.7051 17.325 65.3345 17.0103 66.0171 16.669L66.5611 17.853C65.7078 18.2583 64.9931 18.605 64.4171 18.893C63.8518 19.1703 63.3718 19.421 62.9771 19.645C62.5825 19.8583 62.2358 20.061 61.9371 20.253C61.6385 20.445 61.3345 20.6583 61.0251 20.893L61.2651 20.285C61.9371 20.8183 62.5291 21.3196 63.0411 21.789C63.5638 22.2583 64.0011 22.7116 64.3531 23.149C64.7051 23.5756 64.9718 23.997 65.1531 24.413C65.3345 24.829 65.4251 25.2503 65.4251 25.677C65.4251 25.9116 65.3825 26.1676 65.2971 26.445C65.2118 26.7223 65.0305 26.9836 64.7531 27.229C64.4758 27.4743 64.0598 27.677 63.5051 27.837C62.9505 27.9863 62.2038 28.061 61.2651 28.061H59.8091Z" fill="white"/>
<path d="M86.1511 22.7267C85.8276 22.5956 85.4813 22.5291 85.1318 22.531L85.1315 22.5311L75.8458 22.5311C75.1202 22.5311 74.4244 22.8193 73.9113 23.3323C73.3983 23.8454 73.1101 24.5412 73.1101 25.2668V25.6106C73.1113 25.6948 73.117 25.7789 73.127 25.8625L73.1271 25.8629C73.2291 26.7757 73.5571 27.6486 74.0816 28.4027L86.1511 22.7267ZM86.1511 22.7267C85.7362 23.2013 85.3756 23.725 85.079 24.2882H75.8458C75.5862 24.2882 75.3373 24.3913 75.1538 24.5748C74.9703 24.7583 74.8672 25.0072 74.8672 25.2668V25.585H74.867L74.8674 25.5894L74.8761 25.6872L74.876 25.6872L74.8762 25.6886C74.9478 26.3011 75.1689 26.8867 75.5199 27.3938L75.5201 27.394C76.1425 28.2823 77.4764 29.3406 80.4886 29.3406C82.1943 29.3406 83.3615 29.0006 84.1674 28.545C84.2042 29.1575 84.3104 29.7639 84.4842 30.3525C83.4637 30.8092 82.156 31.0977 80.4886 31.0977C77.0009 31.0977 75.0836 29.8333 74.0817 28.4028L86.1511 22.7267ZM78.2646 12.8285C77.6748 13.4183 77.3434 14.2183 77.3434 15.0525C77.3434 15.8866 77.6748 16.6867 78.2646 17.2765C78.8545 17.8663 79.6545 18.1977 80.4886 18.1977C81.3228 18.1977 82.1228 17.8663 82.7126 17.2765C83.3025 16.6867 83.6339 15.8866 83.6339 15.0525C83.6339 14.2183 83.3025 13.4183 82.7126 12.8285C82.1228 12.2386 81.3228 11.9072 80.4886 11.9072C79.6545 11.9072 78.8545 12.2386 78.2646 12.8285ZM77.0221 11.586C77.9415 10.6666 79.1884 10.1501 80.4886 10.1501C81.7888 10.1501 83.0358 10.6666 83.9551 11.586C84.8745 12.5053 85.391 13.7523 85.391 15.0525C85.391 16.3527 84.8745 17.5996 83.9551 18.519C83.0358 19.4384 81.7888 19.9549 80.4886 19.9549C79.1884 19.9549 77.9415 19.4384 77.0221 18.519C76.1027 17.5996 75.5862 16.3527 75.5862 15.0525C75.5862 13.7523 76.1027 12.5053 77.0221 11.586ZM90.2829 14.942C89.9253 15.2997 89.7243 15.7848 89.7243 16.2906C89.7243 16.7964 89.9253 17.2815 90.2829 17.6391C90.6406 17.9968 91.1257 18.1977 91.6315 18.1977C92.1373 18.1977 92.6224 17.9968 92.98 17.6391C93.3377 17.2815 93.5386 16.7964 93.5386 16.2906C93.5386 15.7848 93.3377 15.2997 92.98 14.942C92.6224 14.5844 92.1373 14.3834 91.6315 14.3834C91.1257 14.3834 90.6406 14.5844 90.2829 14.942ZM89.0404 13.6995C89.7276 13.0123 90.6597 12.6263 91.6315 12.6263C92.6033 12.6263 93.5353 13.0123 94.2225 13.6995C94.9097 14.3867 95.2958 15.3187 95.2958 16.2906C95.2958 17.2624 94.9097 18.1944 94.2225 18.8816C93.5353 19.5688 92.6033 19.9549 91.6315 19.9549C90.6597 19.9549 89.7276 19.5688 89.0404 18.8816C88.3533 18.1944 87.9672 17.2624 87.9672 16.2906C87.9672 15.3187 88.3533 14.3867 89.0404 13.6995ZM97.0302 23.2728C98.2979 24.5404 99.0101 26.2597 99.0101 28.0525C99.0101 29.8452 98.2979 31.5645 97.0302 32.8322C95.7626 34.0998 94.0433 34.812 92.2505 34.812C90.4578 34.812 88.7385 34.0998 87.4708 32.8322C86.2032 31.5645 85.491 29.8452 85.491 28.0525C85.491 26.2597 86.2032 24.5404 87.4708 23.2728C88.7385 22.0051 90.4578 21.293 92.2505 21.293C94.0433 21.293 95.7626 22.0051 97.0302 23.2728ZM92.9208 31.7705L92.9196 28.7215H95.9611C96.1385 28.7215 96.3087 28.651 96.4342 28.5256C96.5597 28.4001 96.6302 28.2299 96.6302 28.0525C96.6302 27.875 96.5597 27.7049 96.4342 27.5794C96.3087 27.4539 96.1385 27.3834 95.9611 27.3834H92.9196V24.3382C92.9196 24.1608 92.8491 23.9906 92.7236 23.8651C92.5982 23.7396 92.428 23.6691 92.2505 23.6691C92.0731 23.6691 91.9029 23.7396 91.7774 23.8651C91.652 23.9906 91.5815 24.1608 91.5815 24.3382V27.3834H88.5313C88.3539 27.3834 88.1837 27.4539 88.0582 27.5794C87.9327 27.7049 87.8623 27.875 87.8623 28.0525C87.8623 28.2299 87.9327 28.4001 88.0582 28.5256C88.1837 28.651 88.3539 28.7215 88.5313 28.7215H91.5827V31.7705C91.5827 31.9479 91.6532 32.1181 91.7787 32.2436C91.9042 32.369 92.0743 32.4395 92.2518 32.4395C92.4292 32.4395 92.5994 32.369 92.7249 32.2436C92.8503 32.1181 92.9208 31.9479 92.9208 31.7705Z" fill="white" stroke="white" stroke-width="0.1"/>
</svg>
