<svg width="29" height="29" viewBox="0 0 29 29" fill="none" xmlns="http://www.w3.org/2000/svg">
<path d="M22.6404 22.8233H20.1586V4.1142H21.1131C21.265 4.1142 21.4107 4.05386 21.5181 3.94646C21.6255 3.83905 21.6859 3.69337 21.6859 3.54148C21.6859 3.38958 21.6255 3.24391 21.5181 3.1365C21.4107 3.02909 21.265 2.96875 21.1131 2.96875H4.31313C4.16124 2.96875 4.01556 3.02909 3.90816 3.1365C3.80075 3.24391 3.74041 3.38958 3.74041 3.54148C3.74041 3.69337 3.80075 3.83905 3.90816 3.94646C4.01556 4.05386 4.16124 4.1142 4.31313 4.1142H5.26768V22.8233H2.78586C2.63397 22.8233 2.48829 22.8836 2.38088 22.991C2.27348 23.0984 2.21313 23.2441 2.21313 23.396C2.21313 23.5479 2.27348 23.6936 2.38088 23.801C2.48829 23.9084 2.63397 23.9688 2.78586 23.9688H22.6404C22.7923 23.9688 22.938 23.9084 23.0454 23.801C23.1528 23.6936 23.2131 23.5479 23.2131 23.396C23.2131 23.2441 23.1528 23.0984 23.0454 22.991C22.938 22.8836 22.7923 22.8233 22.6404 22.8233ZM6.41313 4.1142H19.0131V22.8233H15.5768V18.8142C15.5768 18.6623 15.5164 18.5166 15.409 18.4092C15.3016 18.3018 15.1559 18.2415 15.004 18.2415H10.4222C10.2703 18.2415 10.1247 18.3018 10.0172 18.4092C9.90984 18.5166 9.8495 18.6623 9.8495 18.8142V22.8233H6.41313V4.1142ZM14.4313 22.8233H10.995V19.3869H14.4313V22.8233ZM9.08586 7.35966C9.08586 7.20776 9.1462 7.06209 9.25361 6.95468C9.36102 6.84727 9.50669 6.78693 9.65859 6.78693H11.1859C11.3378 6.78693 11.4834 6.84727 11.5908 6.95468C11.6982 7.06209 11.7586 7.20776 11.7586 7.35966C11.7586 7.51156 11.6982 7.65723 11.5908 7.76464C11.4834 7.87205 11.3378 7.93239 11.1859 7.93239H9.65859C9.50669 7.93239 9.36102 7.87205 9.25361 7.76464C9.1462 7.65723 9.08586 7.51156 9.08586 7.35966ZM13.6677 7.35966C13.6677 7.20776 13.728 7.06209 13.8354 6.95468C13.9428 6.84727 14.0885 6.78693 14.2404 6.78693H15.7677C15.9196 6.78693 16.0653 6.84727 16.1727 6.95468C16.2801 7.06209 16.3404 7.20776 16.3404 7.35966C16.3404 7.51156 16.2801 7.65723 16.1727 7.76464C16.0653 7.87205 15.9196 7.93239 15.7677 7.93239H14.2404C14.0885 7.93239 13.9428 7.87205 13.8354 7.76464C13.728 7.65723 13.6677 7.51156 13.6677 7.35966ZM9.08586 11.1778C9.08586 11.0259 9.1462 10.8803 9.25361 10.7729C9.36102 10.6655 9.50669 10.6051 9.65859 10.6051H11.1859C11.3378 10.6051 11.4834 10.6655 11.5908 10.7729C11.6982 10.8803 11.7586 11.0259 11.7586 11.1778C11.7586 11.3297 11.6982 11.4754 11.5908 11.5828C11.4834 11.6902 11.3378 11.7506 11.1859 11.7506H9.65859C9.50669 11.7506 9.36102 11.6902 9.25361 11.5828C9.1462 11.4754 9.08586 11.3297 9.08586 11.1778ZM13.6677 11.1778C13.6677 11.0259 13.728 10.8803 13.8354 10.7729C13.9428 10.6655 14.0885 10.6051 14.2404 10.6051H15.7677C15.9196 10.6051 16.0653 10.6655 16.1727 10.7729C16.2801 10.8803 16.3404 11.0259 16.3404 11.1778C16.3404 11.3297 16.2801 11.4754 16.1727 11.5828C16.0653 11.6902 15.9196 11.7506 15.7677 11.7506H14.2404C14.0885 11.7506 13.9428 11.6902 13.8354 11.5828C13.728 11.4754 13.6677 11.3297 13.6677 11.1778ZM9.65859 15.5687C9.50669 15.5687 9.36102 15.5084 9.25361 15.401C9.1462 15.2936 9.08586 15.1479 9.08586 14.996C9.08586 14.8441 9.1462 14.6985 9.25361 14.591C9.36102 14.4836 9.50669 14.4233 9.65859 14.4233H11.1859C11.3378 14.4233 11.4834 14.4836 11.5908 14.591C11.6982 14.6985 11.7586 14.8441 11.7586 14.996C11.7586 15.1479 11.6982 15.2936 11.5908 15.401C11.4834 15.5084 11.3378 15.5687 11.1859 15.5687H9.65859ZM13.6677 14.996C13.6677 14.8441 13.728 14.6985 13.8354 14.591C13.9428 14.4836 14.0885 14.4233 14.2404 14.4233H15.7677C15.9196 14.4233 16.0653 14.4836 16.1727 14.591C16.2801 14.6985 16.3404 14.8441 16.3404 14.996C16.3404 15.1479 16.2801 15.2936 16.1727 15.401C16.0653 15.5084 15.9196 15.5687 15.7677 15.5687H14.2404C14.0885 15.5687 13.9428 15.5084 13.8354 15.401C13.728 15.2936 13.6677 15.1479 13.6677 14.996Z" fill="#9DB2CE" stroke="#9DB2CE" stroke-width="0.4"/>
</svg>
