<svg width="90" height="42" viewBox="0 0 90 42" fill="none" xmlns="http://www.w3.org/2000/svg">
<rect width="89.3" height="42" rx="8.08" fill="#3B72C5"/>
<path d="M32.2405 15.768L26.4229 11.6977C24.8372 10.5867 22.4031 10.6473 20.878 11.829L15.8179 15.7781C14.8079 16.5659 14.01 18.1819 14.01 19.4545V26.4235C14.01 28.999 16.1007 31.0998 18.6762 31.0998H29.564C32.1395 31.0998 34.2302 29.0091 34.2302 26.4336V19.5858C34.2302 18.2223 33.3515 16.5457 32.2405 15.768ZM24.8776 27.0598C24.8776 27.4739 24.5342 27.8173 24.1201 27.8173C23.706 27.8173 23.3626 27.4739 23.3626 27.0598V24.0298C23.3626 23.6157 23.706 23.2723 24.1201 23.2723C24.5342 23.2723 24.8776 23.6157 24.8776 24.0298V27.0598Z" fill="white"/>
<path d="M43.2684 25.5V16.6855H44.5984V20.516H48.9927V16.6855H50.327V25.5H48.9927V21.6565H44.5984V25.5H43.2684ZM55.0461 25.6334C54.4264 25.6334 53.8855 25.4914 53.4235 25.2073C52.9616 24.9233 52.6029 24.5259 52.3475 24.0151C52.0922 23.5044 51.9645 22.9076 51.9645 22.2247C51.9645 21.5389 52.0922 20.9392 52.3475 20.4256C52.6029 19.912 52.9616 19.5132 53.4235 19.2291C53.8855 18.945 54.4264 18.803 55.0461 18.803C55.6659 18.803 56.2068 18.945 56.6687 19.2291C57.1307 19.5132 57.4894 19.912 57.7447 20.4256C58.0001 20.9392 58.1278 21.5389 58.1278 22.2247C58.1278 22.9076 58.0001 23.5044 57.7447 24.0151C57.4894 24.5259 57.1307 24.9233 56.6687 25.2073C56.2068 25.4914 55.6659 25.6334 55.0461 25.6334ZM55.0504 24.5531C55.4521 24.5531 55.785 24.447 56.049 24.2346C56.3129 24.0223 56.5081 23.7397 56.6343 23.3867C56.7634 23.0338 56.828 22.645 56.828 22.2204C56.828 21.7986 56.7634 21.4112 56.6343 21.0583C56.5081 20.7025 56.3129 20.417 56.049 20.2018C55.785 19.9866 55.4521 19.879 55.0504 19.879C54.6459 19.879 54.3102 19.9866 54.0433 20.2018C53.7793 20.417 53.5828 20.7025 53.4537 21.0583C53.3274 21.4112 53.2643 21.7986 53.2643 22.2204C53.2643 22.645 53.3274 23.0338 53.4537 23.3867C53.5828 23.7397 53.7793 24.0223 54.0433 24.2346C54.3102 24.447 54.6459 24.5531 55.0504 24.5531ZM59.6652 25.5V18.8891H60.9005V19.9651H60.9823C61.12 19.6007 61.3452 19.3166 61.658 19.1129C61.9707 18.9063 62.3452 18.803 62.7813 18.803C63.2232 18.803 63.5933 18.9063 63.8917 19.1129C64.193 19.3195 64.4154 19.6036 64.5589 19.9651H64.6277C64.7855 19.6122 65.0366 19.331 65.3809 19.1215C65.7252 18.9092 66.1355 18.803 66.6119 18.803C67.2115 18.803 67.7008 18.991 68.0795 19.3668C68.4611 19.7427 68.6519 20.3094 68.6519 21.0669V25.5H67.365V21.1874C67.365 20.7398 67.2431 20.4156 66.9992 20.2147C66.7553 20.0139 66.4641 19.9134 66.1255 19.9134C65.7066 19.9134 65.3809 20.0426 65.1485 20.3008C64.9161 20.5562 64.7999 20.8847 64.7999 21.2864V25.5H63.5173V21.1056C63.5173 20.747 63.4054 20.4586 63.1816 20.2405C62.9578 20.0225 62.6665 19.9134 62.3079 19.9134C62.064 19.9134 61.8387 19.978 61.6322 20.1071C61.4284 20.2334 61.2634 20.4098 61.1372 20.6365C61.0138 20.8632 60.9521 21.1257 60.9521 21.4241V25.5H59.6652ZM73.327 25.6334C72.6757 25.6334 72.1147 25.4943 71.6441 25.2159C71.1764 24.9347 70.8149 24.5402 70.5595 24.0323C70.307 23.5216 70.1808 22.9234 70.1808 22.2376C70.1808 21.5604 70.307 20.9636 70.5595 20.4471C70.8149 19.9307 71.1707 19.5275 71.6269 19.2377C72.086 18.9479 72.6226 18.803 73.2366 18.803C73.6096 18.803 73.9712 18.8647 74.3212 18.9881C74.6713 19.1115 74.9855 19.3051 75.2638 19.5691C75.5421 19.8331 75.7616 20.176 75.9223 20.5978C76.083 21.0167 76.1633 21.526 76.1633 22.1257V22.5819H70.9082V21.6178H74.9022C74.9022 21.2792 74.8334 20.9794 74.6957 20.7183C74.5579 20.4543 74.3642 20.2463 74.1146 20.0942C73.8679 19.9421 73.5781 19.8661 73.2452 19.8661C72.8837 19.8661 72.5681 19.955 72.2983 20.1329C72.0315 20.308 71.8249 20.5375 71.6786 20.8216C71.5351 21.1028 71.4634 21.4084 71.4634 21.7383V22.4915C71.4634 22.9334 71.5408 23.3093 71.6958 23.6192C71.8536 23.929 72.0731 24.1658 72.3543 24.3293C72.6355 24.49 72.964 24.5703 73.3399 24.5703C73.5838 24.5703 73.8062 24.5359 74.007 24.467C74.2079 24.3953 74.3815 24.2891 74.5278 24.1486C74.6741 24.008 74.786 23.8344 74.8635 23.6278L76.0815 23.8473C75.984 24.2059 75.809 24.5201 75.5565 24.7898C75.3068 25.0567 74.9926 25.2647 74.6139 25.4139C74.238 25.5603 73.809 25.6334 73.327 25.6334Z" fill="white"/>
</svg>
