<svg width="106" height="46" viewBox="0 0 106 46" fill="none" xmlns="http://www.w3.org/2000/svg">
<rect x="0.159912" y="0.779785" width="105.7" height="44.44" rx="8.08" fill="#3B72C5"/>
<path d="M40.6004 17.768L34.7828 13.6977C33.1971 12.5867 30.763 12.6473 29.2379 13.829L24.1778 17.7781C23.1678 18.5659 22.3699 20.1819 22.3699 21.4545V28.4235C22.3699 30.999 24.4606 33.0998 27.0361 33.0998H37.9239C40.4994 33.0998 42.5901 31.0091 42.5901 28.4336V21.5858C42.5901 20.2223 41.7114 18.5457 40.6004 17.768ZM33.2375 29.0598C33.2375 29.4739 32.8941 29.8173 32.48 29.8173C32.0659 29.8173 31.7225 29.4739 31.7225 29.0598V26.0298C31.7225 25.6157 32.0659 25.2723 32.48 25.2723C32.8941 25.2723 33.2375 25.6157 33.2375 26.0298V29.0598Z" fill="white"/>
<path d="M51.6283 27.4998V18.6852H52.9582V22.5158H57.3526V18.6852H58.6868V27.4998H57.3526V23.6563H52.9582V27.4998H51.6283ZM63.406 27.6332C62.7862 27.6332 62.2454 27.4911 61.7834 27.2071C61.3214 26.923 60.9628 26.5256 60.7074 26.0149C60.452 25.5041 60.3243 24.9073 60.3243 24.2244C60.3243 23.5387 60.452 22.939 60.7074 22.4254C60.9628 21.9118 61.3214 21.5129 61.7834 21.2289C62.2454 20.9448 62.7862 20.8028 63.406 20.8028C64.0258 20.8028 64.5666 20.9448 65.0286 21.2289C65.4906 21.5129 65.8492 21.9118 66.1046 22.4254C66.36 22.939 66.4876 23.5387 66.4876 24.2244C66.4876 24.9073 66.36 25.5041 66.1046 26.0149C65.8492 26.5256 65.4906 26.923 65.0286 27.2071C64.5666 27.4911 64.0258 27.6332 63.406 27.6332ZM63.4103 26.5529C63.812 26.5529 64.1448 26.4467 64.4088 26.2344C64.6728 26.0221 64.8679 25.7394 64.9942 25.3865C65.1233 25.0336 65.1878 24.6448 65.1878 24.2201C65.1878 23.7983 65.1233 23.411 64.9942 23.0581C64.8679 22.7023 64.6728 22.4168 64.4088 22.2016C64.1448 21.9864 63.812 21.8788 63.4103 21.8788C63.0057 21.8788 62.67 21.9864 62.4032 22.2016C62.1392 22.4168 61.9426 22.7023 61.8135 23.0581C61.6873 23.411 61.6242 23.7983 61.6242 24.2201C61.6242 24.6448 61.6873 25.0336 61.8135 25.3865C61.9426 25.7394 62.1392 26.0221 62.4032 26.2344C62.67 26.4467 63.0057 26.5529 63.4103 26.5529ZM68.0251 27.4998V20.8888H69.2603V21.9648H69.3421C69.4798 21.6004 69.7051 21.3164 70.0178 21.1127C70.3306 20.9061 70.705 20.8028 71.1412 20.8028C71.5831 20.8028 71.9532 20.9061 72.2516 21.1127C72.5529 21.3192 72.7753 21.6033 72.9187 21.9648H72.9876C73.1454 21.6119 73.3965 21.3307 73.7408 21.1213C74.0851 20.9089 74.4954 20.8028 74.9717 20.8028C75.5714 20.8028 76.0606 20.9907 76.4394 21.3666C76.821 21.7425 77.0118 22.3092 77.0118 23.0667V27.4998H75.7249V23.1872C75.7249 22.7396 75.603 22.4153 75.3591 22.2145C75.1152 22.0136 74.8239 21.9132 74.4854 21.9132C74.0664 21.9132 73.7408 22.0423 73.5084 22.3006C73.2759 22.5559 73.1597 22.8845 73.1597 23.2862V27.4998H71.8772V23.1054C71.8772 22.7467 71.7653 22.4584 71.5414 22.2403C71.3176 22.0222 71.0264 21.9132 70.6677 21.9132C70.4238 21.9132 70.1986 21.9778 69.992 22.1069C69.7883 22.2331 69.6233 22.4096 69.4971 22.6363C69.3737 22.8629 69.312 23.1255 69.312 23.4239V27.4998H68.0251ZM81.6869 27.6332C81.0355 27.6332 80.4746 27.494 80.004 27.2157C79.5363 26.9345 79.1748 26.54 78.9194 26.0321C78.6669 25.5214 78.5406 24.9231 78.5406 24.2373C78.5406 23.5602 78.6669 22.9634 78.9194 22.4469C79.1748 21.9304 79.5306 21.5273 79.9868 21.2375C80.4459 20.9477 80.9824 20.8028 81.5965 20.8028C81.9695 20.8028 82.331 20.8645 82.6811 20.9878C83.0311 21.1112 83.3453 21.3049 83.6236 21.5689C83.902 21.8329 84.1215 22.1757 84.2822 22.5975C84.4428 23.0164 84.5232 23.5258 84.5232 24.1254V24.5817H79.268V23.6176H83.2621C83.2621 23.279 83.1932 22.9791 83.0555 22.718C82.9178 22.4541 82.7241 22.246 82.4745 22.094C82.2277 21.9419 81.9379 21.8658 81.6051 21.8658C81.2435 21.8658 80.9279 21.9548 80.6582 22.1327C80.3914 22.3077 80.1848 22.5373 80.0384 22.8213C79.895 23.1025 79.8232 23.4081 79.8232 23.7381V24.4913C79.8232 24.9332 79.9007 25.309 80.0556 25.6189C80.2135 25.9288 80.433 26.1655 80.7142 26.3291C80.9953 26.4898 81.3239 26.5701 81.6998 26.5701C81.9437 26.5701 82.166 26.5357 82.3669 26.4668C82.5677 26.3951 82.7413 26.2889 82.8877 26.1483C83.034 26.0077 83.1459 25.8341 83.2234 25.6275L84.4414 25.847C84.3438 26.2057 84.1688 26.5199 83.9163 26.7896C83.6667 27.0564 83.3525 27.2645 82.9737 27.4137C82.5979 27.56 82.1689 27.6332 81.6869 27.6332Z" fill="white"/>
</svg>
