<svg width="24" height="15" viewBox="0 0 24 15" fill="none" xmlns="http://www.w3.org/2000/svg">
<path d="M20.16 8.35895L0.960011 8.35895C0.705402 8.35895 0.461222 8.2578 0.281187 8.07777C0.101151 7.89774 9.53674e-06 7.65356 9.53674e-06 7.39895C9.53674e-06 7.14434 0.101151 6.90016 0.281187 6.72012C0.461222 6.54009 0.705402 6.43895 0.960011 6.43895L20.16 6.43895C20.4146 6.43895 20.6588 6.54009 20.8388 6.72012C21.0189 6.90016 21.12 7.14434 21.12 7.39895C21.12 7.65356 21.0189 7.89774 20.8388 8.07777C20.6588 8.2578 20.4146 8.35895 20.16 8.35895Z" fill="black"/>
<path d="M20.7626 7.5L12.8003 1.28179C12.6201 1.14097 12.5188 0.949991 12.5188 0.750853C12.5188 0.551714 12.6201 0.360732 12.8003 0.219919C12.9806 0.0791073 13.2251 9.53674e-07 13.48 9.53674e-07C13.7349 9.53674e-07 13.9794 0.0791073 14.1597 0.219919L22.7997 6.96907C22.8891 7.03873 22.96 7.12148 23.0084 7.21259C23.0568 7.30369 23.0817 7.40136 23.0817 7.5C23.0817 7.59864 23.0568 7.69631 23.0084 7.78741C22.96 7.87852 22.8891 7.96127 22.7997 8.03093L14.1597 14.7801C13.9794 14.9209 13.7349 15 13.48 15C13.2251 15 12.9806 14.9209 12.8003 14.7801C12.6201 14.6393 12.5188 14.4483 12.5188 14.2491C12.5188 14.05 12.6201 13.859 12.8003 13.7182L20.7626 7.5Z" fill="black"/>
</svg>
