<svg width="71" height="42" viewBox="0 0 71 42" fill="none" xmlns="http://www.w3.org/2000/svg">
<rect width="71" height="42" rx="8.08" fill="#3B72C5"/>
<path d="M17.776 26.58C17.2 26.58 16.688 26.5 16.24 26.34C15.8027 26.1693 15.4507 25.8867 15.184 25.492C14.928 25.0867 14.784 24.5267 14.752 23.812L14.496 18.244H15.792L16.048 23.524C16.08 24.0253 16.1707 24.404 16.32 24.66C16.4693 24.9053 16.6773 25.0707 16.944 25.156C17.2213 25.2307 17.552 25.268 17.936 25.268C18.16 25.268 18.32 25.332 18.416 25.46C18.5227 25.5773 18.576 25.7213 18.576 25.892C18.576 26.0627 18.5013 26.2227 18.352 26.372C18.2027 26.5107 18.0107 26.58 17.776 26.58ZM15.36 24.82C14.752 25.012 14.16 25.108 13.584 25.108C13.008 25.108 12.4853 25.0227 12.016 24.852C11.5467 24.6813 11.1733 24.436 10.896 24.116C10.6187 23.7853 10.48 23.3907 10.48 22.932C10.48 22.484 10.592 22.0627 10.816 21.668C11.0507 21.2733 11.3653 20.9213 11.76 20.612C12.1653 20.3027 12.6293 20.0467 13.152 19.844C13.6853 19.6307 14.2507 19.4867 14.848 19.412L15.072 20.756C14.5387 20.7773 14.064 20.852 13.648 20.98C13.2427 21.0973 12.896 21.252 12.608 21.444C12.3307 21.636 12.1173 21.844 11.968 22.068C11.8187 22.292 11.744 22.5107 11.744 22.724C11.744 22.9587 11.8293 23.1507 12 23.3C12.1707 23.4493 12.3893 23.5667 12.656 23.652C12.9227 23.7267 13.216 23.7747 13.536 23.796C13.856 23.8067 14.1653 23.796 14.464 23.764C14.7627 23.7213 15.0187 23.6627 15.232 23.588L15.36 24.82ZM15.024 16.404C14.8 16.404 14.608 16.3293 14.448 16.18C14.2987 16.02 14.224 15.8333 14.224 15.62C14.224 15.4067 14.2987 15.22 14.448 15.06C14.608 14.9 14.8 14.82 15.024 14.82C15.2373 14.82 15.4187 14.9 15.568 15.06C15.728 15.22 15.808 15.4067 15.808 15.62C15.808 15.8333 15.728 16.02 15.568 16.18C15.4187 16.3293 15.2373 16.404 15.024 16.404ZM12.832 16.404C12.608 16.404 12.416 16.3293 12.256 16.18C12.1067 16.02 12.032 15.8333 12.032 15.62C12.032 15.4067 12.1067 15.22 12.256 15.06C12.416 14.9 12.608 14.82 12.832 14.82C13.0453 14.82 13.2267 14.9 13.376 15.06C13.536 15.22 13.616 15.4067 13.616 15.62C13.616 15.8333 13.536 16.02 13.376 16.18C13.2267 16.3293 13.0453 16.404 12.832 16.404ZM17.8822 26.58L18.0422 25.268C18.6822 25.268 19.2849 25.2093 19.8502 25.092C20.4156 24.964 20.9329 24.7987 21.4023 24.596C21.8823 24.3827 22.2929 24.1427 22.6343 23.876C22.9756 23.5987 23.2369 23.316 23.4183 23.028C23.6103 22.7293 23.7063 22.436 23.7063 22.148C23.7063 22.0093 23.6583 21.8707 23.5623 21.732C23.4663 21.5827 23.3009 21.46 23.0662 21.364C22.8422 21.268 22.5382 21.22 22.1543 21.22C21.9196 21.22 21.6582 21.252 21.3702 21.316C21.0823 21.38 20.8049 21.4707 20.5382 21.588C20.2822 21.6947 20.0689 21.8173 19.8982 21.956C20.1862 22.1907 20.4529 22.42 20.6983 22.644C20.9542 22.868 21.2156 23.1133 21.4822 23.38C21.7489 23.636 22.0369 23.9293 22.3463 24.26C22.5916 24.4413 22.8636 24.596 23.1623 24.724C23.4716 24.852 23.8023 24.9587 24.1543 25.044C24.5169 25.1187 24.8849 25.1773 25.2583 25.22C25.6316 25.252 26.0049 25.268 26.3783 25.268C26.6023 25.268 26.7623 25.332 26.8583 25.46C26.9649 25.5773 27.0183 25.7213 27.0183 25.892C27.0183 26.0627 26.9436 26.2227 26.7943 26.372C26.6449 26.5107 26.4529 26.58 26.2183 26.58C25.6316 26.58 25.0289 26.5267 24.4103 26.42C23.8023 26.3027 23.2316 26.132 22.6983 25.908C22.1649 25.6733 21.7116 25.38 21.3382 25.028C21.1569 24.7933 20.9543 24.5587 20.7302 24.324C20.5062 24.0893 20.2609 23.8547 19.9942 23.62C19.7382 23.3747 19.4609 23.1453 19.1622 22.932C19.0982 22.8787 19.0342 22.7827 18.9702 22.644C18.9062 22.5053 18.8529 22.3613 18.8102 22.212C18.7676 22.0627 18.7462 21.9507 18.7462 21.876C18.7462 21.716 18.8476 21.524 19.0502 21.3C19.2529 21.076 19.5249 20.8627 19.8662 20.66C20.2076 20.4467 20.5969 20.2707 21.0343 20.132C21.4716 19.9933 21.9249 19.924 22.3942 19.924C23.0023 19.924 23.4929 20.0147 23.8663 20.196C24.2503 20.3773 24.5276 20.612 24.6983 20.9C24.8796 21.1773 24.9703 21.476 24.9703 21.796C24.9703 22.2653 24.8529 22.7347 24.6183 23.204C24.3836 23.6627 24.0476 24.0947 23.6102 24.5C23.1729 24.9053 22.6609 25.268 22.0743 25.588C21.4876 25.8973 20.8369 26.1427 20.1222 26.324C19.4182 26.4947 18.6716 26.58 17.8822 26.58ZM22.2822 18.276C22.0582 18.276 21.8662 18.2013 21.7062 18.052C21.5569 17.892 21.4822 17.7053 21.4822 17.492C21.4822 17.2787 21.5569 17.092 21.7062 16.932C21.8662 16.772 22.0582 16.692 22.2822 16.692C22.4956 16.692 22.6769 16.772 22.8263 16.932C22.9862 17.092 23.0662 17.2787 23.0662 17.492C23.0662 17.7053 22.9862 17.892 22.8263 18.052C22.6769 18.2013 22.4956 18.276 22.2822 18.276ZM26.327 26.58L26.471 25.268C27.079 25.268 27.5057 25.2093 27.751 25.092C27.9963 24.9747 28.135 24.7667 28.167 24.468C28.2097 24.1693 28.2203 23.7533 28.199 23.22L27.895 15.076H29.191L29.511 23.076C29.5323 23.6413 29.511 24.1427 29.447 24.58C29.3937 25.0173 29.255 25.3853 29.031 25.684C28.8177 25.9827 28.4923 26.2067 28.055 26.356C27.6283 26.5053 27.0523 26.58 26.327 26.58Z" fill="white"/>
<path d="M40 20.9283C40 25.8596 43.9973 29.8569 48.9286 29.8569C53.8598 29.8569 57.8571 25.8596 57.8571 20.9283C57.8571 15.9971 53.8598 11.9998 48.9286 11.9998C43.9973 11.9998 40 15.9971 40 20.9283Z" stroke="white" stroke-width="1.5" stroke-linecap="round" stroke-linejoin="round"/>
<path d="M49.8214 12.0442C49.8214 12.0442 52.5 15.571 52.5 20.9281C52.5 26.2853 49.8214 29.8121 49.8214 29.8121M48.0357 29.8121C48.0357 29.8121 45.3571 26.2853 45.3571 20.9281C45.3571 15.571 48.0357 12.0442 48.0357 12.0442M40.5625 24.0531H57.2946M40.5625 17.8031H57.2946" stroke="white" stroke-width="1.5" stroke-linecap="round" stroke-linejoin="round"/>
</svg>
