<svg width="27" height="26" viewBox="0 0 27 26" fill="none" xmlns="http://www.w3.org/2000/svg">
<path d="M13.4226 13.2458C13.0991 13.1147 12.7528 13.0481 12.4033 13.0501L12.403 13.0501L3.11726 13.0501C2.3917 13.0501 1.69586 13.3383 1.18282 13.8514C0.669769 14.3644 0.381543 15.0603 0.381543 15.7858V16.1296C0.382825 16.2138 0.388492 16.2979 0.398521 16.3816L0.398569 16.382C0.500546 17.2948 0.828619 18.1677 1.35307 18.9217L13.4226 13.2458ZM13.4226 13.2458C13.0077 13.7204 12.6471 14.2441 12.3504 14.8072H3.11726C2.85772 14.8072 2.60882 14.9103 2.4253 15.0939C2.24179 15.2774 2.13869 15.5263 2.13869 15.7858V16.104H2.13849L2.13888 16.1084L2.14755 16.2062L2.14753 16.2062L2.14769 16.2076C2.21933 16.8202 2.44037 17.4057 2.79138 17.9128L2.79155 17.9131C3.41398 18.8014 4.74785 19.8596 7.76011 19.8596C9.46577 19.8596 10.633 19.5196 11.4388 19.0641C11.4756 19.6766 11.5819 20.283 11.7557 20.8715C10.7352 21.3282 9.42752 21.6168 7.76011 21.6168C4.2724 21.6168 2.35509 20.3524 1.35316 18.9218L13.4226 13.2458ZM5.5361 3.3475C4.94625 3.93735 4.61488 4.73735 4.61488 5.57152C4.61488 6.40569 4.94625 7.20569 5.5361 7.79554C6.12594 8.38539 6.92595 8.71676 7.76011 8.71676C8.59428 8.71676 9.39429 8.38539 9.98413 7.79554C10.574 7.20569 10.9054 6.40569 10.9054 5.57152C10.9054 4.73735 10.574 3.93735 9.98413 3.3475C9.39429 2.75766 8.59428 2.42628 7.76011 2.42628C6.92595 2.42628 6.12594 2.75766 5.5361 3.3475ZM4.29361 2.10501C5.21298 1.18564 6.45992 0.669141 7.76011 0.669141C9.06031 0.669141 10.3072 1.18564 11.2266 2.10501C12.146 3.02439 12.6625 4.27133 12.6625 5.57152C12.6625 6.87171 12.146 8.11865 11.2266 9.03803C10.3072 9.9574 9.06031 10.4739 7.76011 10.4739C6.45992 10.4739 5.21298 9.9574 4.29361 9.03803C3.37423 8.11865 2.85773 6.87171 2.85773 5.57152C2.85773 4.27133 3.37423 3.02439 4.29361 2.10501ZM17.5544 5.46106C17.1968 5.81872 16.9958 6.30381 16.9958 6.80962C16.9958 7.31542 17.1968 7.80051 17.5544 8.15817C17.9121 8.51583 18.3972 8.71676 18.903 8.71676C19.4088 8.71676 19.8939 8.51583 20.2515 8.15817C20.6092 7.80051 20.8101 7.31542 20.8101 6.80962C20.8101 6.30381 20.6092 5.81872 20.2515 5.46106C19.8939 5.1034 19.4088 4.90247 18.903 4.90247C18.3972 4.90247 17.9121 5.1034 17.5544 5.46106ZM16.3119 4.21858C16.9991 3.53139 17.9311 3.14533 18.903 3.14533C19.8748 3.14533 20.8068 3.53139 21.494 4.21858C22.1812 4.90576 22.5673 5.83779 22.5673 6.80962C22.5673 7.78145 22.1812 8.71347 21.494 9.40066C20.8068 10.0878 19.8748 10.4739 18.903 10.4739C17.9311 10.4739 16.9991 10.0878 16.3119 9.40066C15.6247 8.71347 15.2387 7.78145 15.2387 6.80962C15.2387 5.83779 15.6247 4.90576 16.3119 4.21858ZM24.3017 13.7918C25.5694 15.0595 26.2815 16.7788 26.2815 18.5715C26.2815 20.3643 25.5694 22.0836 24.3017 23.3512C23.0341 24.6189 21.3148 25.331 19.522 25.331C17.7293 25.331 16.01 24.6189 14.7423 23.3512C13.4747 22.0836 12.7625 20.3643 12.7625 18.5715C12.7625 16.7788 13.4747 15.0595 14.7423 13.7918C16.01 12.5242 17.7293 11.812 19.522 11.812C21.3148 11.812 23.0341 12.5242 24.3017 13.7918ZM20.1923 22.2895L20.1911 19.2406H23.2326C23.41 19.2406 23.5802 19.1701 23.7057 19.0446C23.8312 18.9191 23.9016 18.749 23.9016 18.5715C23.9016 18.3941 23.8312 18.2239 23.7057 18.0984C23.5802 17.973 23.41 17.9025 23.2326 17.9025H20.1911V14.8572C20.1911 14.6798 20.1206 14.5096 19.9951 14.3841C19.8696 14.2587 19.6995 14.1882 19.522 14.1882C19.3446 14.1882 19.1744 14.2587 19.0489 14.3841C18.9235 14.5096 18.853 14.6798 18.853 14.8572V17.9025H15.8028C15.6253 17.9025 15.4552 17.973 15.3297 18.0984C15.2042 18.2239 15.1337 18.3941 15.1337 18.5715C15.1337 18.749 15.2042 18.9191 15.3297 19.0446C15.4552 19.1701 15.6253 19.2406 15.8028 19.2406H18.8542V22.2895C18.8542 22.467 18.9247 22.6371 19.0502 22.7626C19.1756 22.8881 19.3458 22.9586 19.5233 22.9586C19.7007 22.9586 19.8709 22.8881 19.9963 22.7626C20.1218 22.6371 20.1923 22.467 20.1923 22.2895Z" fill="#9DB2CE" stroke="white" stroke-width="0.1"/>
</svg>
