<svg width="39" height="39" viewBox="0 0 39 39" fill="none" xmlns="http://www.w3.org/2000/svg">
<rect x="38.5" y="38.5" width="38" height="38" rx="9.5" transform="rotate(-180 38.5 38.5)" stroke="#D8DADC"/>
<path d="M24 19.5042C24 19.3574 23.9735 19.2219 23.9204 19.0977C23.8615 18.9735 23.7731 18.8549 23.6552 18.742L16.7682 12.288C16.5678 12.096 16.3261 12 16.0432 12C15.8487 12 15.6749 12.0452 15.5216 12.1355C15.3625 12.2202 15.2358 12.3388 15.1415 12.4912C15.0472 12.6381 15 12.8018 15 12.9825C15 13.2535 15.109 13.4935 15.3271 13.7024L21.5334 19.5042L15.3271 25.306C15.109 25.515 15 25.7521 15 26.0175C15 26.2038 15.0472 26.3704 15.1415 26.5172C15.2358 26.664 15.3625 26.7798 15.5216 26.8645C15.6749 26.9548 15.8487 27 16.0432 27C16.3261 27 16.5678 26.9068 16.7682 26.7205L23.6552 20.2665C23.7731 20.1536 23.8615 20.035 23.9204 19.9108C23.9735 19.7866 24 19.651 24 19.5042Z" fill="black"/>
</svg>
