<svg width="20" height="20" viewBox="0 0 20 20" fill="none" xmlns="http://www.w3.org/2000/svg">
<path d="M5.375 1C5.875 1 7.875 5.5 7.875 6C7.875 7 6.375 8 5.875 9C5.375 10 6.375 11 7.375 12C7.7693 12.3943 9.375 14 10.375 13.5C11.375 13 12.375 11.5 13.375 11.5C13.875 11.5 18.375 13.5 18.375 14C18.375 16 16.875 17.5 15.375 18C13.875 18.5 12.875 18.5 10.875 18C8.875 17.5 7.375 17 4.875 14.5C2.375 12 1.875 10.5 1.375 8.5C0.875 6.5 0.875 5.5 1.375 4C1.875 2.5 3.375 1 5.375 1Z" stroke="black" stroke-width="1.5" stroke-linecap="round" stroke-linejoin="round"/>
<path d="M11.375 5.04407C12.0358 5.34737 12.6321 5.76721 13.1374 6.27726C13.6296 6.77404 14.0356 7.35639 14.331 8.00003" stroke="black" stroke-width="1.5" stroke-linecap="round" stroke-linejoin="round"/>
<path d="M18.123 7.00005C17.7624 5.59931 17.0321 4.34705 16.0422 3.35355C15.0454 2.35315 13.7855 1.61512 12.375 1.25208" stroke="black" stroke-width="1.5" stroke-linecap="round" stroke-linejoin="round"/>
</svg>
