<svg width="34" height="27" viewBox="0 0 34 27" fill="none" xmlns="http://www.w3.org/2000/svg">
<path d="M9.24273 24.628C8.25557 23.6408 8.25557 22.0403 9.24273 21.0532L28.1375 2.1584C29.1247 1.17124 30.7252 1.17124 31.7123 2.1584C32.6995 3.14555 32.6995 4.74605 31.7123 5.7332L12.8175 24.628C11.8304 25.6151 10.2299 25.6151 9.24273 24.628Z" fill="#D9D9D9"/>
<path d="M9.24273 24.628C8.25557 23.6408 8.25557 22.0403 9.24273 21.0532L28.1375 2.1584C29.1247 1.17124 30.7252 1.17124 31.7123 2.1584C32.6995 3.14555 32.6995 4.74605 31.7123 5.7332L12.8175 24.628C11.8304 25.6151 10.2299 25.6151 9.24273 24.628Z" fill="black"/>
<rect x="4.11694" y="12.7192" width="14.3973" height="4.80558" rx="2.40279" transform="rotate(45 4.11694 12.7192)" fill="#D9D9D9"/>
<rect x="4.11694" y="12.7192" width="14.3973" height="4.80558" rx="2.40279" transform="rotate(45 4.11694 12.7192)" fill="black"/>
</svg>
