<svg width="21" height="17" viewBox="0 0 21 17" fill="none" xmlns="http://www.w3.org/2000/svg">
<path d="M3.47999 16.6V13.36H0.23999V11.2H3.47999V7.96002H5.63999V11.2H8.87999V13.36H5.63999V16.6H3.47999ZM11.04 15.52V9.04002H7.79999V5.80002H1.31999V2.56002C1.31999 1.96602 1.53167 1.4577 1.95503 1.03506C2.37839 0.612424 2.88671 0.400744 3.47999 0.400024H14.28C14.64 0.400024 14.9777 0.481024 15.293 0.643024C15.6084 0.805024 15.8647 1.03002 16.062 1.31802L20.76 7.96002L16.062 14.602C15.864 14.89 15.6077 15.115 15.293 15.277C14.9784 15.439 14.6407 15.52 14.28 15.52H11.04Z" fill="#818181"/>
</svg>
