<svg width="22" height="19" viewBox="0 0 22 19" fill="none" xmlns="http://www.w3.org/2000/svg">
<path d="M12.5416 0.125C10.0552 0.125 7.67065 1.11272 5.9125 2.87087C4.15435 4.62903 3.16663 7.0136 3.16663 9.5H0.041626L4.09371 13.5521L4.16663 13.6979L8.37496 9.5H5.24996C5.24996 5.46875 8.51038 2.20833 12.5416 2.20833C16.5729 2.20833 19.8333 5.46875 19.8333 9.5C19.8333 13.5312 16.5729 16.7917 12.5416 16.7917C10.5312 16.7917 8.70829 15.9688 7.39579 14.6458L5.91663 16.125C6.78477 16.9979 7.81713 17.6904 8.95419 18.1623C10.0913 18.6343 11.3105 18.8765 12.5416 18.875C15.028 18.875 17.4126 17.8873 19.1707 16.1291C20.9289 14.371 21.9166 11.9864 21.9166 9.5C21.9166 7.0136 20.9289 4.62903 19.1707 2.87087C17.4126 1.11272 15.028 0.125 12.5416 0.125ZM11.5 5.33333V10.5417L15.9583 13.1875L16.7083 11.9271L13.0625 9.76042V5.33333H11.5Z" fill="#9A9A9A"/>
</svg>
