<svg width="13" height="11" viewBox="0 0 13 11" fill="none" xmlns="http://www.w3.org/2000/svg">
<path d="M12.5667 9.96681H11.7V6.06681L11.8267 6.19356C11.9082 6.27487 12.0186 6.32049 12.1337 6.32039C12.2488 6.32029 12.3591 6.27447 12.4405 6.19302C12.5218 6.11156 12.5674 6.00114 12.5673 5.88605C12.5672 5.77096 12.5214 5.66062 12.4399 5.57931L7.11263 0.25364C6.95011 0.0912313 6.72976 0 6.5 0C6.27024 0 6.04989 0.0912313 5.88738 0.25364L0.560083 5.57931C0.478844 5.66062 0.433233 5.77087 0.433284 5.88581C0.433335 6.00075 0.479043 6.11096 0.560354 6.1922C0.641665 6.27344 0.751918 6.31905 0.866858 6.319C0.981798 6.31895 1.09201 6.27324 1.17325 6.19193L1.3 6.06681V9.96681H0.433333C0.318406 9.96681 0.208186 10.0125 0.12692 10.0937C0.0456546 10.175 0 10.2852 0 10.4001C0 10.5151 0.0456546 10.6253 0.12692 10.7066C0.208186 10.7878 0.318406 10.8335 0.433333 10.8335H12.5667C12.6816 10.8335 12.7918 10.7878 12.8731 10.7066C12.9543 10.6253 13 10.5151 13 10.4001C13 10.2852 12.9543 10.175 12.8731 10.0937C12.7918 10.0125 12.6816 9.96681 12.5667 9.96681ZM2.16667 5.20014L6.5 0.866807L10.8333 5.20014V9.96681H8.23333V6.93347C8.23333 6.81855 8.18768 6.70833 8.10641 6.62706C8.02515 6.54579 7.91493 6.50014 7.8 6.50014H5.2C5.08507 6.50014 4.97485 6.54579 4.89359 6.62706C4.81232 6.70833 4.76667 6.81855 4.76667 6.93347V9.96681H2.16667V5.20014ZM7.36667 9.96681H5.63333V7.36681H7.36667V9.96681Z" fill="#96B2DC"/>
</svg>
