<svg width="15" height="13" viewBox="0 0 15 13" fill="none" xmlns="http://www.w3.org/2000/svg">
<path d="M13.8233 11.3639H12.87V7.07388L13.0094 7.2133C13.099 7.30275 13.2205 7.35293 13.3471 7.35282C13.4737 7.35271 13.5951 7.30231 13.6845 7.21271C13.7739 7.12311 13.8241 7.00165 13.824 6.87504C13.8239 6.74844 13.7735 6.62707 13.6839 6.53763L7.82389 0.679395C7.64512 0.500745 7.40273 0.400391 7.15 0.400391C6.89727 0.400391 6.65488 0.500745 6.47611 0.679395L0.616092 6.53763C0.526729 6.62707 0.476556 6.74835 0.476612 6.87478C0.476668 7.00122 0.526947 7.12245 0.61639 7.21181C0.705832 7.30118 0.82711 7.35135 0.953544 7.35129C1.07998 7.35124 1.20121 7.30096 1.29058 7.21152L1.43 7.07388V11.3639H0.476667C0.350247 11.3639 0.229005 11.4141 0.139612 11.5035C0.0502201 11.5929 0 11.7141 0 11.8405C0 11.967 0.0502201 12.0882 0.139612 12.1776C0.229005 12.267 0.350247 12.3172 0.476667 12.3172H13.8233C13.9498 12.3172 14.071 12.267 14.1604 12.1776C14.2498 12.0882 14.3 11.967 14.3 11.8405C14.3 11.7141 14.2498 11.5929 14.1604 11.5035C14.071 11.4141 13.9498 11.3639 13.8233 11.3639ZM2.38333 6.12054L7.15 1.35388L11.9167 6.12054V11.3639H9.05667V8.02721C9.05667 7.90079 9.00645 7.77955 8.91705 7.69016C8.82766 7.60076 8.70642 7.55055 8.58 7.55055H5.72C5.59358 7.55055 5.47234 7.60076 5.38295 7.69016C5.29355 7.77955 5.24333 7.90079 5.24333 8.02721V11.3639H2.38333V6.12054ZM8.10333 11.3639H6.19667V8.50388H8.10333V11.3639Z" fill="#96B2DC"/>
</svg>
