<svg width="78" height="42" viewBox="0 0 78 42" fill="none" xmlns="http://www.w3.org/2000/svg">
<rect width="77.24" height="42" rx="8.08" fill="#3B72C5"/>
<path d="M16.24 26.836L16.656 25.524C17.3067 25.524 17.9947 25.4867 18.72 25.412C19.4453 25.3267 20.1653 25.1827 20.88 24.98C21.6053 24.7667 22.2933 24.4787 22.944 24.116C23.5947 23.7533 24.1653 23.2947 24.656 22.74L25.664 23.332C25.568 23.5773 25.504 23.7747 25.472 23.924C25.44 24.0627 25.424 24.1907 25.424 24.308C25.424 24.468 25.4827 24.6227 25.6 24.772C25.7173 24.9107 25.936 25.028 26.256 25.124C26.5867 25.22 27.0507 25.268 27.648 25.268C27.872 25.268 28.032 25.332 28.128 25.46C28.2347 25.5773 28.288 25.7213 28.288 25.892C28.288 26.0627 28.2133 26.2227 28.064 26.372C27.9147 26.5107 27.7227 26.58 27.488 26.58C26.8053 26.58 26.2027 26.5107 25.68 26.372C25.168 26.2227 24.784 25.9933 24.528 25.684C24.2827 25.364 24.2027 24.9533 24.288 24.452L24.576 24.548C24.1493 24.932 23.6373 25.268 23.04 25.556C22.4533 25.8333 21.7973 26.068 21.072 26.26C20.3573 26.452 19.5893 26.596 18.768 26.692C17.9573 26.788 17.1147 26.836 16.24 26.836ZM16.24 26.836C15.2907 26.836 14.4533 26.772 13.728 26.644C13.0133 26.5267 12.416 26.34 11.936 26.084C11.456 25.828 11.0933 25.4973 10.848 25.092C10.6027 24.676 10.48 24.1747 10.48 23.588C10.48 23.3213 10.5013 23.0493 10.544 22.772C10.5867 22.484 10.64 22.196 10.704 21.908C10.7787 21.62 10.8533 21.3427 10.928 21.076L12.128 21.38C12.0853 21.54 12.0373 21.732 11.984 21.956C11.9307 22.1693 11.8827 22.388 11.84 22.612C11.808 22.836 11.792 23.0387 11.792 23.22C11.792 23.7747 11.9307 24.2227 12.208 24.564C12.496 24.8947 12.992 25.14 13.696 25.3C14.4 25.4493 15.3867 25.524 16.656 25.524L16.976 26.324L16.24 26.836ZM18.928 20.084C18.704 20.084 18.512 20.0093 18.352 19.86C18.2027 19.7 18.128 19.5133 18.128 19.3C18.128 19.0867 18.2027 18.9 18.352 18.74C18.512 18.58 18.704 18.5 18.928 18.5C19.1413 18.5 19.3227 18.58 19.472 18.74C19.632 18.9 19.712 19.0867 19.712 19.3C19.712 19.5133 19.632 19.7 19.472 19.86C19.3227 20.0093 19.1413 20.084 18.928 20.084ZM16.736 20.084C16.512 20.084 16.32 20.0093 16.16 19.86C16.0107 19.7 15.936 19.5133 15.936 19.3C15.936 19.0867 16.0107 18.9 16.16 18.74C16.32 18.58 16.512 18.5 16.736 18.5C16.9493 18.5 17.1307 18.58 17.28 18.74C17.44 18.9 17.52 19.0867 17.52 19.3C17.52 19.5133 17.44 19.7 17.28 19.86C17.1307 20.0093 16.9493 20.084 16.736 20.084ZM27.5854 26.58L27.7454 25.268C28.2787 25.268 28.6947 25.2307 28.9934 25.156C29.292 25.0707 29.516 24.916 29.6654 24.692C29.8254 24.4573 29.9534 24.1213 30.0494 23.684C30.1454 23.2467 30.2627 22.676 30.4014 21.972L31.6494 22.212C31.6067 22.404 31.5587 22.6173 31.5054 22.852C31.452 23.0867 31.404 23.3213 31.3614 23.556C31.3294 23.78 31.3134 23.9773 31.3134 24.148C31.3134 24.308 31.324 24.4573 31.3454 24.596C31.3667 24.7347 31.4467 24.852 31.5854 24.948C31.724 25.044 31.9587 25.124 32.2894 25.188C32.62 25.2413 33.0947 25.268 33.7134 25.268C33.9374 25.268 34.0974 25.332 34.1934 25.46C34.3 25.5773 34.3534 25.7213 34.3534 25.892C34.3534 26.0627 34.2787 26.2227 34.1294 26.372C33.98 26.5107 33.788 26.58 33.5534 26.58C32.9027 26.58 32.3854 26.548 32.0014 26.484C31.6174 26.4093 31.324 26.3027 31.1214 26.164C30.9294 26.0253 30.7907 25.8547 30.7054 25.652C30.6307 25.4387 30.572 25.1933 30.5294 24.916L31.0094 24.948C30.8387 25.2893 30.652 25.5667 30.4494 25.78C30.2574 25.9933 30.0334 26.1587 29.7774 26.276C29.5214 26.3933 29.212 26.4733 28.8494 26.516C28.4974 26.5587 28.076 26.58 27.5854 26.58ZM31.6174 29.604C31.3934 29.604 31.2014 29.524 31.0414 29.364C30.892 29.2147 30.8174 29.0333 30.8174 28.82C30.8174 28.6067 30.892 28.42 31.0414 28.26C31.2014 28.1 31.3934 28.02 31.6174 28.02C31.8307 28.02 32.012 28.1 32.1614 28.26C32.3214 28.42 32.4014 28.6067 32.4014 28.82C32.4014 29.0333 32.3214 29.2147 32.1614 29.364C32.012 29.524 31.8307 29.604 31.6174 29.604ZM29.4254 29.604C29.2014 29.604 29.0094 29.524 28.8494 29.364C28.7 29.2147 28.6254 29.0333 28.6254 28.82C28.6254 28.6067 28.7 28.42 28.8494 28.26C29.0094 28.1 29.2014 28.02 29.4254 28.02C29.6387 28.02 29.82 28.1 29.9694 28.26C30.1294 28.42 30.2094 28.6067 30.2094 28.82C30.2094 29.0333 30.1294 29.2147 29.9694 29.364C29.82 29.524 29.6387 29.604 29.4254 29.604ZM33.6551 26.58L33.8151 25.268C34.3378 25.268 34.7538 25.236 35.0631 25.172C35.3725 25.108 35.5965 24.98 35.7351 24.788C35.8738 24.5853 35.9431 24.2867 35.9431 23.892C35.9431 23.6253 35.9005 23.3107 35.8151 22.948C35.7298 22.5747 35.6178 22.18 35.4791 21.764C35.3405 21.348 35.1911 20.9373 35.0311 20.532L36.3271 20.052C36.4658 20.3933 36.5938 20.7827 36.7111 21.22C36.8391 21.6573 36.9458 22.0893 37.0311 22.516C37.1165 22.9427 37.1591 23.316 37.1591 23.636C37.1591 24.0627 37.1111 24.4413 37.0151 24.772C36.9298 25.092 36.7965 25.3693 36.6151 25.604C36.4338 25.828 36.1991 26.0147 35.9111 26.164C35.6338 26.3027 35.3085 26.4093 34.9351 26.484C34.5618 26.548 34.1351 26.58 33.6551 26.58ZM35.3671 29.556C35.1431 29.556 34.9511 29.476 34.7911 29.316C34.6418 29.1667 34.5671 28.9853 34.5671 28.772C34.5671 28.5587 34.6418 28.372 34.7911 28.212C34.9511 28.052 35.1431 27.972 35.3671 27.972C35.5805 27.972 35.7618 28.052 35.9111 28.212C36.0711 28.372 36.1511 28.5587 36.1511 28.772C36.1511 28.9853 36.0711 29.1667 35.9111 29.316C35.7618 29.476 35.5805 29.556 35.3671 29.556Z" fill="white"/>
<path d="M63.2405 15.768L57.4229 11.6977C55.8372 10.5867 53.4031 10.6473 51.878 11.829L46.8179 15.7781C45.8079 16.5659 45.01 18.1819 45.01 19.4545V26.4235C45.01 28.999 47.1007 31.0998 49.6762 31.0998H60.564C63.1395 31.0998 65.2302 29.0091 65.2302 26.4336V19.5858C65.2302 18.2223 64.3515 16.5457 63.2405 15.768ZM55.8776 27.0598C55.8776 27.4739 55.5342 27.8173 55.1201 27.8173C54.706 27.8173 54.3626 27.4739 54.3626 27.0598V24.0298C54.3626 23.6157 54.706 23.2723 55.1201 23.2723C55.5342 23.2723 55.8776 23.6157 55.8776 24.0298V27.0598Z" fill="white"/>
</svg>
