<svg width="24" height="15" viewBox="0 0 24 15" fill="none" xmlns="http://www.w3.org/2000/svg">
<path d="M2.9217 6.64105H22.1217C22.3763 6.64105 22.6205 6.7422 22.8005 6.92223C22.9806 7.10226 23.0817 7.34644 23.0817 7.60105C23.0817 7.85566 22.9806 8.09984 22.8005 8.27988C22.6205 8.45991 22.3763 8.56105 22.1217 8.56105H2.9217C2.66709 8.56105 2.42291 8.45991 2.24288 8.27988C2.06284 8.09984 1.9617 7.85566 1.9617 7.60105C1.9617 7.34644 2.06284 7.10226 2.24288 6.92223C2.42291 6.7422 2.66709 6.64105 2.9217 6.64105Z" fill="black"/>
<path d="M2.31916 7.5L10.2814 13.7182C10.4617 13.859 10.5629 14.05 10.5629 14.2491C10.5629 14.4483 10.4617 14.6393 10.2814 14.7801C10.1011 14.9209 9.85664 15 9.60172 15C9.34679 15 9.1023 14.9209 8.92204 14.7801L0.282036 8.03093C0.192635 7.96127 0.121704 7.87852 0.0733081 7.78741C0.0249117 7.69631 0 7.59864 0 7.5C0 7.40136 0.0249117 7.30369 0.0733081 7.21259C0.121704 7.12148 0.192635 7.03873 0.282036 6.96907L8.92204 0.219919C9.1023 0.0791073 9.34679 0 9.60172 0C9.85664 0 10.1011 0.0791073 10.2814 0.219919C10.4617 0.360732 10.5629 0.551714 10.5629 0.750853C10.5629 0.949991 10.4617 1.14097 10.2814 1.28179L2.31916 7.5Z" fill="black"/>
</svg>
