<svg width="11" height="13" viewBox="0 0 11 13" fill="none" xmlns="http://www.w3.org/2000/svg">
<path fill-rule="evenodd" clip-rule="evenodd" d="M9.35 1.10001H9.9C10.505 1.10001 11 1.59502 11 2.20002V11.0001C11 11.6051 10.505 12.1001 9.9 12.1001H1.1C0.495 12.1001 0 11.6051 0 11.0001V2.20002C0 1.59502 0.495 1.10001 1.1 1.10001H1.65V0.550005C1.65 0.247502 1.8975 0 2.2 0C2.5025 0 2.75 0.247502 2.75 0.550005V1.10001H8.25V0.550005C8.25 0.247502 8.4975 0 8.8 0C9.1025 0 9.35 0.247502 9.35 0.550005V1.10001ZM1.65 10.999H9.35C9.6525 10.999 9.9 10.7515 9.9 10.449V3.84893H1.1V10.449C1.1 10.7515 1.3475 10.999 1.65 10.999Z" fill="#9E9E9E"/>
</svg>
