<svg width="17" height="19" viewBox="0 0 17 19" fill="none" xmlns="http://www.w3.org/2000/svg">
<path d="M15.5724 18.2064H1.21198C0.851581 18.2064 0.546631 18.5113 0.546631 18.8717C0.546631 19.2321 0.851581 19.5371 1.21198 19.5371H15.5724C15.9328 19.5371 16.2377 19.2321 16.2377 18.8717C16.2377 18.5113 15.9328 18.2064 15.5724 18.2064ZM0.574354 12.3846L0.546631 15.5173C0.546631 15.6836 0.602077 15.8776 0.74069 15.9885C0.879304 16.0994 1.04564 16.1826 1.21198 16.1826L4.34465 16.1549C4.51099 16.1549 4.67732 16.0717 4.81594 15.9608L15.5724 5.20438C15.8219 4.95487 15.8219 4.51131 15.5724 4.26181L12.4674 1.15686C12.2179 0.90735 11.7744 0.90735 11.5248 1.15686L9.36247 3.31923L0.768413 11.9133C0.6298 12.0519 0.574354 12.2182 0.574354 12.3846ZM14.1585 4.73309L12.9387 5.95289L10.7763 3.79052L11.9961 2.57072L14.1585 4.73309ZM1.90505 12.6618L9.83376 4.73309L11.9961 6.89547L4.06742 14.8242H1.90505V12.6618Z" fill="#B8B8B8"/>
</svg>
