<svg width="91" height="42" viewBox="0 0 91 42" fill="none" xmlns="http://www.w3.org/2000/svg">
<rect width="90.06" height="42" rx="8.08" fill="#3B72C5"/>
<path d="M15.0474 20.9997C17.3595 20.9997 19.2338 19.1254 19.2338 16.8133C19.2338 14.5012 17.3595 12.627 15.0474 12.627C12.7354 12.627 10.8611 14.5012 10.8611 16.8133C10.8611 19.1254 12.7354 20.9997 15.0474 20.9997Z" stroke="white" stroke-width="1.5" stroke-linecap="round" stroke-linejoin="round"/>
<path d="M22.2393 29.3726C22.2393 26.1324 19.0158 23.5117 15.0471 23.5117C11.0785 23.5117 7.85498 26.1324 7.85498 29.3726" stroke="white" stroke-width="1.5" stroke-linecap="round" stroke-linejoin="round"/>
<path d="M23.1924 25.4951C24.4039 25.4951 25.386 24.513 25.386 23.3015C25.386 22.09 24.4039 21.1079 23.1924 21.1079C21.9809 21.1079 20.9988 22.09 20.9988 23.3015C20.9988 24.513 21.9809 25.4951 23.1924 25.4951Z" stroke="white" stroke-width="0.726" stroke-linecap="round" stroke-linejoin="round"/>
<path d="M25.705 28.7153L26.0658 29.2565H20.2294L20.5902 28.7153L21.3637 27.9418L22.9825 27.5371H24.5268L25.705 28.7153Z" fill="white" stroke="white"/>
<path d="M24.7082 28.897L25.8172 29.6825L25.8429 29.7099H20.9057L20.9315 29.6825L21.6523 29.1719L23.205 28.897H24.7082Z" fill="white" stroke="white"/>
<path d="M21.2917 29.1966L21.3163 29.1941L21.3406 29.1892L22.7844 28.897H24.1113L25.769 29.7099H19.9889L20.1205 29.3151L21.2917 29.1966Z" fill="white" stroke="white"/>
<path d="M26.9618 29.8836C26.9618 28.1857 25.2727 26.8125 23.1932 26.8125C21.1136 26.8125 19.4246 28.1857 19.4246 29.8836" stroke="white" stroke-width="0.726" stroke-linecap="round" stroke-linejoin="round"/>
<path d="M21.1082 22.5052L22.0146 21.5987L22.4678 21.1455H23.3743L24.734 21.5987L25.1872 22.5052V22.9584V24.3181L24.2807 25.2245H23.8275H22.9211H22.4678L22.0146 24.7713L21.1082 23.8649V23.4116V22.5052Z" fill="white"/>
<path d="M35.95 26L33.3278 16.5455H34.8282L36.6701 23.8672H36.7579L38.6737 16.5455H40.1602L42.076 23.8718H42.1638L44.0011 16.5455H45.5061L42.8793 26H41.4436L39.4539 18.9183H39.38L37.3903 26H35.95ZM49.0856 26.1431C48.4208 26.1431 47.8407 25.9908 47.3452 25.6861C46.8497 25.3814 46.465 24.9551 46.1911 24.4073C45.9172 23.8595 45.7802 23.2193 45.7802 22.4869C45.7802 21.7513 45.9172 21.1081 46.1911 20.5572C46.465 20.0063 46.8497 19.5785 47.3452 19.2738C47.8407 18.9691 48.4208 18.8168 49.0856 18.8168C49.7504 18.8168 50.3305 18.9691 50.826 19.2738C51.3215 19.5785 51.7062 20.0063 51.9801 20.5572C52.254 21.1081 52.391 21.7513 52.391 22.4869C52.391 23.2193 52.254 23.8595 51.9801 24.4073C51.7062 24.9551 51.3215 25.3814 50.826 25.6861C50.3305 25.9908 49.7504 26.1431 49.0856 26.1431ZM49.0902 24.9844C49.5211 24.9844 49.8781 24.8705 50.1612 24.6428C50.4444 24.415 50.6537 24.1119 50.7891 23.7333C50.9276 23.3548 50.9968 22.9377 50.9968 22.4822C50.9968 22.0298 50.9276 21.6143 50.7891 21.2358C50.6537 20.8542 50.4444 20.5479 50.1612 20.3171C49.8781 20.0863 49.5211 19.9709 49.0902 19.9709C48.6563 19.9709 48.2962 20.0863 48.01 20.3171C47.7268 20.5479 47.516 20.8542 47.3775 21.2358C47.2421 21.6143 47.1744 22.0298 47.1744 22.4822C47.1744 22.9377 47.2421 23.3548 47.3775 23.7333C47.516 24.1119 47.7268 24.415 48.01 24.6428C48.2962 24.8705 48.6563 24.9844 49.0902 24.9844ZM54.0327 26V18.9091H55.3669V20.0355H55.4408C55.57 19.6539 55.7978 19.3538 56.124 19.1353C56.4533 18.9137 56.8257 18.8029 57.2412 18.8029C57.3274 18.8029 57.4289 18.806 57.5459 18.8121C57.6659 18.8183 57.7598 18.826 57.8275 18.8352V20.1555C57.7721 20.1402 57.6736 20.1232 57.532 20.1048C57.3905 20.0832 57.2489 20.0724 57.1073 20.0724C56.7811 20.0724 56.4902 20.1417 56.2348 20.2802C55.9824 20.4156 55.7824 20.6049 55.6347 20.848C55.4869 21.0881 55.4131 21.362 55.4131 21.6697V26H54.0327ZM60.3925 23.5948L60.3833 21.9098H60.6234L63.4486 18.9091H65.1013L61.879 22.3253H61.6621L60.3925 23.5948ZM59.123 26V16.5455H60.5033V26H59.123ZM63.601 26L61.0619 22.63L62.0129 21.6651L65.2952 26H63.601ZM69.2244 26.1431C68.5258 26.1431 67.9241 25.9938 67.4194 25.6953C66.9177 25.3937 66.53 24.9705 66.2561 24.4258C65.9852 23.878 65.8498 23.2363 65.8498 22.5007C65.8498 21.7744 65.9852 21.1342 66.2561 20.5803C66.53 20.0263 66.9116 19.5939 67.4009 19.283C67.8934 18.9722 68.4689 18.8168 69.1275 18.8168C69.5276 18.8168 69.9154 18.8829 70.2909 19.0153C70.6663 19.1476 71.0033 19.3554 71.3019 19.6385C71.6004 19.9216 71.8358 20.2894 72.0082 20.7418C72.1805 21.1912 72.2667 21.7375 72.2667 22.3807V22.87H66.63V21.8359H70.9141C70.9141 21.4728 70.8402 21.1512 70.6925 20.8711C70.5448 20.5879 70.337 20.3648 70.0693 20.2017C69.8046 20.0386 69.4937 19.957 69.1367 19.957C68.7489 19.957 68.4104 20.0524 68.1211 20.2433C67.8349 20.431 67.6133 20.6772 67.4563 20.9819C67.3025 21.2835 67.2255 21.6113 67.2255 21.9652V22.7731C67.2255 23.247 67.3086 23.6502 67.4748 23.9826C67.6441 24.315 67.8795 24.5689 68.1811 24.7443C68.4827 24.9167 68.8351 25.0028 69.2383 25.0028C69.4999 25.0028 69.7384 24.9659 69.9538 24.892C70.1693 24.8151 70.3555 24.7012 70.5124 24.5504C70.6694 24.3996 70.7894 24.2134 70.8725 23.9918L72.179 24.2273C72.0744 24.612 71.8866 24.949 71.6158 25.2383C71.348 25.5245 71.011 25.7476 70.6048 25.9077C70.2016 26.0646 69.7415 26.1431 69.2244 26.1431ZM73.8992 26V18.9091H75.2334V20.0355H75.3072C75.4365 19.6539 75.6643 19.3538 75.9905 19.1353C76.3198 18.9137 76.6922 18.8029 77.1077 18.8029C77.1938 18.8029 77.2954 18.806 77.4124 18.8121C77.5324 18.8183 77.6263 18.826 77.694 18.8352V20.1555C77.6386 20.1402 77.5401 20.1232 77.3985 20.1048C77.2569 20.0832 77.1154 20.0724 76.9738 20.0724C76.6476 20.0724 76.3567 20.1417 76.1013 20.2802C75.8489 20.4156 75.6489 20.6049 75.5011 20.848C75.3534 21.0881 75.2795 21.362 75.2795 21.6697V26H73.8992ZM84.303 20.6403L83.052 20.8619C82.9997 20.7018 82.9166 20.5495 82.8027 20.4048C82.6919 20.2602 82.5411 20.1417 82.3503 20.0494C82.1595 19.957 81.9209 19.9109 81.6347 19.9109C81.2439 19.9109 80.9176 19.9986 80.656 20.174C80.3944 20.3464 80.2636 20.5695 80.2636 20.8434C80.2636 21.0804 80.3513 21.2712 80.5268 21.4158C80.7022 21.5605 80.9853 21.679 81.3762 21.7713L82.5026 22.0298C83.1551 22.1806 83.6413 22.413 83.9614 22.7269C84.2815 23.0408 84.4415 23.4486 84.4415 23.9503C84.4415 24.375 84.3184 24.7536 84.0722 25.0859C83.8291 25.4152 83.489 25.6738 83.052 25.8615C82.618 26.0492 82.1148 26.1431 81.5424 26.1431C80.7484 26.1431 80.1005 25.9738 79.5989 25.6353C79.0972 25.2937 78.7894 24.8089 78.6756 24.1811L80.0097 23.978C80.0928 24.3258 80.2636 24.5889 80.5221 24.7674C80.7807 24.9428 81.1177 25.0305 81.5332 25.0305C81.9856 25.0305 82.3472 24.9367 82.618 24.7489C82.8889 24.5581 83.0243 24.3258 83.0243 24.0518C83.0243 23.8303 82.9412 23.6441 82.775 23.4933C82.6119 23.3424 82.361 23.2286 82.0225 23.1516L80.8222 22.8885C80.1605 22.7377 79.6712 22.4976 79.3542 22.1683C79.0403 21.839 78.8833 21.422 78.8833 20.9173C78.8833 20.4987 79.0002 20.1325 79.2342 19.8185C79.4681 19.5046 79.7912 19.2599 80.2036 19.0845C80.616 18.906 81.0884 18.8168 81.6209 18.8168C82.3872 18.8168 82.9904 18.983 83.4305 19.3153C83.8706 19.6446 84.1615 20.0863 84.303 20.6403Z" fill="white"/>
</svg>
