<svg width="81" height="42" viewBox="0 0 81 42" fill="none" xmlns="http://www.w3.org/2000/svg">
<rect width="81" height="42" rx="8.08" fill="#3B72C5"/>
<path d="M10.48 26.516C10.48 26.26 10.5013 25.988 10.544 25.7C10.5973 25.4013 10.672 25.0867 10.768 24.756C10.8747 24.4147 11.0027 24.0573 11.152 23.684L12.304 24.132C12.1973 24.4307 12.1013 24.7133 12.016 24.98C11.9413 25.2467 11.8827 25.4973 11.84 25.732C11.808 25.9667 11.792 26.1907 11.792 26.404C11.792 26.916 11.9253 27.3587 12.192 27.732C12.4693 28.1053 12.848 28.3933 13.328 28.596C13.808 28.7987 14.368 28.9 15.008 28.9C15.7867 28.9 16.4267 28.788 16.928 28.564C17.44 28.34 17.8347 27.9987 18.112 27.54C18.4 27.0813 18.592 26.5 18.688 25.796C18.784 25.0813 18.816 24.244 18.784 23.284L18.48 15.076H19.808L20.08 23.62C20.1013 24.3347 20.0693 25.0227 19.984 25.684C19.9093 26.3347 19.76 26.932 19.536 27.476C19.312 28.0307 19.0027 28.5107 18.608 28.916C18.2133 29.332 17.7173 29.652 17.12 29.876C16.5227 30.1 15.8027 30.212 14.96 30.212C14.3947 30.212 13.8453 30.1373 13.312 29.988C12.7787 29.8387 12.2987 29.6147 11.872 29.316C11.4453 29.0173 11.104 28.6333 10.848 28.164C10.6027 27.7053 10.48 27.156 10.48 26.516ZM25.882 26.58C25.0287 26.58 24.3727 26.484 23.914 26.292C23.466 26.1 23.1567 25.8013 22.986 25.396C22.8153 24.9907 22.7193 24.468 22.698 23.828L22.378 15.076H23.69L24.01 23.316C24.0313 23.8387 24.0793 24.244 24.154 24.532C24.2393 24.8093 24.4207 25.0013 24.698 25.108C24.986 25.2147 25.434 25.268 26.042 25.268C26.266 25.268 26.426 25.332 26.522 25.46C26.6287 25.5773 26.682 25.7213 26.682 25.892C26.682 26.0627 26.6073 26.2227 26.458 26.372C26.3087 26.5107 26.1167 26.58 25.882 26.58ZM25.9832 26.58L26.1432 25.268C26.4419 25.268 26.6766 25.204 26.8472 25.076C27.0286 24.948 27.1992 24.7347 27.3592 24.436C27.5299 24.1373 27.7432 23.7373 27.9992 23.236C28.2552 22.724 28.5112 22.308 28.7672 21.988C29.0339 21.6573 29.2899 21.4013 29.5352 21.22C29.7912 21.028 30.0312 20.8947 30.2552 20.82C30.4792 20.7453 30.6872 20.708 30.8793 20.708C31.2312 20.708 31.5459 20.788 31.8232 20.948C32.1006 21.0973 32.3619 21.3587 32.6073 21.732C32.8526 22.0947 33.1032 22.596 33.3593 23.236C33.6046 23.8227 33.8233 24.2653 34.0153 24.564C34.2179 24.852 34.4259 25.044 34.6392 25.14C34.8633 25.2253 35.1139 25.268 35.3912 25.268C35.6152 25.268 35.7753 25.332 35.8713 25.46C35.9779 25.5773 36.0312 25.7213 36.0312 25.892C36.0312 26.0627 35.9566 26.2227 35.8073 26.372C35.6579 26.5107 35.4659 26.58 35.2312 26.58C34.8153 26.58 34.4313 26.5107 34.0793 26.372C33.7379 26.2333 33.4499 26.0147 33.2153 25.716L33.4392 25.38C33.3219 25.7107 33.1619 25.9827 32.9592 26.196C32.7672 26.3987 32.5486 26.548 32.3032 26.644C32.0579 26.7507 31.7966 26.804 31.5192 26.804C31.1672 26.804 30.8046 26.7293 30.4313 26.58C30.0686 26.4307 29.7166 26.2173 29.3752 25.94C29.0339 25.6627 28.7352 25.3373 28.4792 24.964C28.2019 25.4547 27.9352 25.8173 27.6792 26.052C27.4339 26.276 27.1779 26.42 26.9112 26.484C26.6446 26.548 26.3352 26.58 25.9832 26.58ZM29.0872 23.748C29.2686 24.0467 29.4606 24.308 29.6632 24.532C29.8766 24.756 30.0899 24.9427 30.3032 25.092C30.5166 25.2307 30.7246 25.3373 30.9272 25.412C31.1406 25.476 31.3326 25.508 31.5033 25.508C31.8766 25.508 32.1486 25.3747 32.3193 25.108C32.5006 24.8413 32.4952 24.468 32.3032 23.988C32.2072 23.7427 32.1059 23.5027 31.9992 23.268C31.9032 23.0333 31.7966 22.82 31.6792 22.628C31.5619 22.4253 31.4286 22.2707 31.2793 22.164C31.1299 22.0467 30.9646 21.988 30.7832 21.988C30.6233 21.988 30.4526 22.0413 30.2712 22.148C30.1006 22.2547 29.9139 22.436 29.7112 22.692C29.5192 22.948 29.3112 23.3 29.0872 23.748ZM35.3342 26.58L35.4942 25.268C36.1662 25.268 36.6836 25.2627 37.0462 25.252C37.4196 25.2413 37.6916 25.2307 37.8622 25.22C38.0329 25.1987 38.1502 25.188 38.2142 25.188C38.0222 25.0813 37.7982 24.916 37.5422 24.692C37.2862 24.4573 37.0622 24.164 36.8702 23.812C36.6782 23.4493 36.5822 23.0227 36.5822 22.532C36.5822 21.924 36.7209 21.3907 36.9982 20.932C37.2862 20.4733 37.6756 20.116 38.1662 19.86C38.6676 19.604 39.2382 19.476 39.8782 19.476C40.1236 19.476 40.3849 19.4973 40.6622 19.54C40.9396 19.5827 41.2062 19.6467 41.4622 19.732L41.1902 20.964C40.9769 20.9107 40.7529 20.868 40.5182 20.836C40.2836 20.804 40.0702 20.788 39.8782 20.788C39.4942 20.788 39.1529 20.8627 38.8542 21.012C38.5556 21.1507 38.3209 21.348 38.1502 21.604C37.9796 21.86 37.8942 22.1693 37.8942 22.532C37.8942 22.8093 37.9529 23.0653 38.0702 23.3C38.1876 23.524 38.3422 23.7267 38.5342 23.908C38.7262 24.0893 38.9396 24.2387 39.1742 24.356C39.4089 24.4733 39.6382 24.564 39.8622 24.628C40.0969 24.692 40.3049 24.7187 40.4862 24.708C40.6142 24.6653 40.7316 24.628 40.8382 24.596C40.9449 24.564 41.0622 24.5267 41.1902 24.484C41.3289 24.4307 41.4942 24.3613 41.6862 24.276C41.8889 24.1907 42.1449 24.0787 42.4542 23.94L42.9022 25.108C42.1876 25.396 41.4569 25.652 40.7102 25.876C39.9742 26.1 39.1689 26.276 38.2942 26.404C37.4302 26.5213 36.4436 26.58 35.3342 26.58Z" fill="white"/>
<path d="M59.0474 20.9997C61.3595 20.9997 63.2338 19.1254 63.2338 16.8133C63.2338 14.5012 61.3595 12.627 59.0474 12.627C56.7354 12.627 54.8611 14.5012 54.8611 16.8133C54.8611 19.1254 56.7354 20.9997 59.0474 20.9997Z" stroke="white" stroke-width="1.5" stroke-linecap="round" stroke-linejoin="round"/>
<path d="M66.2393 29.3726C66.2393 26.1324 63.0158 23.5117 59.0471 23.5117C55.0785 23.5117 51.855 26.1324 51.855 29.3726" stroke="white" stroke-width="1.5" stroke-linecap="round" stroke-linejoin="round"/>
<path d="M67.1924 25.4951C68.4039 25.4951 69.386 24.513 69.386 23.3015C69.386 22.09 68.4039 21.1079 67.1924 21.1079C65.9809 21.1079 64.9988 22.09 64.9988 23.3015C64.9988 24.513 65.9809 25.4951 67.1924 25.4951Z" stroke="white" stroke-width="0.726" stroke-linecap="round" stroke-linejoin="round"/>
<path d="M70.0658 29.2565H64.2294L64.5902 28.7153L65.3637 27.9418L66.9825 27.5371H68.5268L69.705 28.7153L70.0658 29.2565Z" fill="white" stroke="white"/>
<path d="M69.8172 29.6825L69.8429 29.7099H64.9057L64.9315 29.6825L65.6523 29.1719L67.205 28.897H68.7082L69.8172 29.6825Z" fill="white" stroke="white"/>
<path d="M65.2917 29.1966L65.3163 29.1941L65.3406 29.1892L66.7844 28.897H68.1113L69.769 29.7099H63.9889L64.1205 29.3151L65.2917 29.1966Z" fill="white" stroke="white"/>
<path d="M70.9618 29.8836C70.9618 28.1857 69.2727 26.8125 67.1932 26.8125C65.1136 26.8125 63.4246 28.1857 63.4246 29.8836" stroke="white" stroke-width="0.726" stroke-linecap="round" stroke-linejoin="round"/>
<path d="M65.1082 22.5052L66.0146 21.5987L66.4678 21.1455H67.3743L68.734 21.5987L69.1872 22.5052V22.9584V24.3181L68.2807 25.2245H67.8275H66.9211H66.4678L66.0146 24.7713L65.1082 23.8649V23.4116V22.5052Z" fill="white"/>
</svg>
