<svg width="101" height="42" viewBox="0 0 101 42" fill="none" xmlns="http://www.w3.org/2000/svg">
<rect width="101" height="42" rx="8.08" fill="#3B72C5"/>
<path d="M9 20.9286C9 25.8598 12.9973 29.8571 17.9286 29.8571C22.8598 29.8571 26.8571 25.8598 26.8571 20.9286C26.8571 15.9973 22.8598 12 17.9286 12C12.9973 12 9 15.9973 9 20.9286Z" stroke="white" stroke-width="1.5" stroke-linecap="round" stroke-linejoin="round"/>
<path d="M18.8213 12.0449C18.8213 12.0449 21.4999 15.5717 21.4999 20.9289C21.4999 26.286 18.8213 29.8128 18.8213 29.8128M17.0356 29.8128C17.0356 29.8128 14.357 26.286 14.357 20.9289C14.357 15.5717 17.0356 12.0449 17.0356 12.0449M9.56238 24.0539H26.2945M9.56238 17.8039H26.2945" stroke="white" stroke-width="1.5" stroke-linecap="round" stroke-linejoin="round"/>
<path d="M34.0387 26V16.5455H35.4652V24.772H39.7493V26H34.0387ZM43.4304 26.157C42.981 26.157 42.5748 26.0739 42.2116 25.9077C41.8485 25.7384 41.5607 25.4937 41.3483 25.1737C41.1391 24.8536 41.0344 24.4612 41.0344 23.9964C41.0344 23.5964 41.1114 23.267 41.2652 23.0085C41.4191 22.75 41.6269 22.5453 41.8885 22.3945C42.1501 22.2437 42.4424 22.1299 42.7656 22.0529C43.0887 21.976 43.4181 21.9175 43.7535 21.8775C44.1782 21.8282 44.5229 21.7882 44.7876 21.7575C45.0523 21.7236 45.2446 21.6697 45.3647 21.5959C45.4847 21.522 45.5447 21.402 45.5447 21.2358V21.2035C45.5447 20.8003 45.4308 20.4879 45.2031 20.2663C44.9784 20.0447 44.643 19.9339 44.1967 19.9339C43.732 19.9339 43.3657 20.037 43.098 20.2433C42.8333 20.4464 42.6502 20.6726 42.5486 20.9219L41.2514 20.6264C41.4053 20.1955 41.6299 19.8478 41.9254 19.5831C42.2239 19.3153 42.5671 19.1214 42.9549 19.0014C43.3427 18.8783 43.7504 18.8168 44.1782 18.8168C44.4614 18.8168 44.7615 18.8506 45.0785 18.9183C45.3985 18.983 45.6971 19.103 45.974 19.2784C46.2541 19.4538 46.4834 19.7047 46.6619 20.0309C46.8404 20.354 46.9297 20.7741 46.9297 21.2912V26H45.5816V25.0305H45.5262C45.437 25.209 45.3031 25.3845 45.1246 25.5568C44.9461 25.7292 44.7168 25.8723 44.4368 25.9862C44.1567 26.1 43.8212 26.157 43.4304 26.157ZM43.7304 25.049C44.1121 25.049 44.4383 24.9736 44.7091 24.8228C44.983 24.672 45.1908 24.475 45.3324 24.2319C45.477 23.9857 45.5493 23.7225 45.5493 23.4425V22.5284C45.5001 22.5777 45.4047 22.6238 45.2631 22.6669C45.1246 22.7069 44.9661 22.7423 44.7876 22.7731C44.6091 22.8008 44.4352 22.8269 44.266 22.8516C44.0967 22.8731 43.9551 22.8916 43.8412 22.907C43.5735 22.9408 43.3288 22.9978 43.1072 23.0778C42.8887 23.1578 42.7133 23.2732 42.5809 23.424C42.4517 23.5717 42.387 23.7687 42.387 24.0149C42.387 24.3565 42.5132 24.6151 42.7656 24.7905C43.018 24.9628 43.3396 25.049 43.7304 25.049ZM50.2495 21.7898V26H48.8692V18.9091H50.1941V20.0632H50.2818C50.4449 19.6877 50.7004 19.3861 51.0481 19.1584C51.399 18.9306 51.8406 18.8168 52.3731 18.8168C52.8563 18.8168 53.2794 18.9183 53.6426 19.1214C54.0058 19.3215 54.2874 19.62 54.4874 20.017C54.6875 20.4141 54.7875 20.9049 54.7875 21.4897V26H53.4072V21.6559C53.4072 21.1419 53.2733 20.7403 53.0055 20.451C52.7378 20.1586 52.37 20.0124 51.9022 20.0124C51.5821 20.0124 51.2974 20.0817 51.0481 20.2202C50.8019 20.3587 50.6065 20.5618 50.4619 20.8295C50.3203 21.0942 50.2495 21.4143 50.2495 21.7898ZM59.7127 28.8068C59.1495 28.8068 58.6648 28.733 58.2585 28.5852C57.8553 28.4375 57.526 28.2421 57.2706 27.9989C57.0152 27.7558 56.8243 27.4896 56.6982 27.2003L57.8846 26.7109C57.9677 26.8464 58.0785 26.9895 58.217 27.1403C58.3585 27.2942 58.5494 27.425 58.7894 27.5327C59.0326 27.6404 59.3449 27.6942 59.7266 27.6942C60.2498 27.6942 60.6822 27.5665 61.0238 27.3111C61.3654 27.0587 61.5362 26.6555 61.5362 26.1016V24.7074H61.4485C61.3654 24.8582 61.2454 25.0259 61.0884 25.2106C60.9345 25.3952 60.7222 25.5553 60.4513 25.6907C60.1805 25.8261 59.8281 25.8938 59.3942 25.8938C58.834 25.8938 58.3293 25.763 57.88 25.5014C57.4337 25.2367 57.0798 24.8474 56.8182 24.3335C56.5597 23.8164 56.4304 23.1809 56.4304 22.4268C56.4304 21.6728 56.5581 21.0265 56.8136 20.4879C57.0721 19.9493 57.426 19.5369 57.8754 19.2507C58.3247 18.9614 58.834 18.8168 59.4034 18.8168C59.8435 18.8168 60.199 18.8906 60.4698 19.0384C60.7406 19.183 60.9515 19.3523 61.1023 19.5462C61.2562 19.7401 61.3746 19.9109 61.4577 20.0586H61.5593V18.9091H62.9119V26.157C62.9119 26.7663 62.7704 27.2665 62.4872 27.6573C62.2041 28.0482 61.8209 28.3375 61.3377 28.5252C60.8576 28.7129 60.3159 28.8068 59.7127 28.8068ZM59.6989 24.7489C60.0959 24.7489 60.4313 24.6566 60.7053 24.4719C60.9822 24.2842 61.1915 24.0165 61.3331 23.6687C61.4777 23.3178 61.5501 22.8977 61.5501 22.4084C61.5501 21.9313 61.4793 21.5112 61.3377 21.1481C61.1961 20.7849 60.9884 20.5018 60.7145 20.2987C60.4406 20.0924 60.102 19.9893 59.6989 19.9893C59.2834 19.9893 58.9371 20.0971 58.6602 20.3125C58.3832 20.5249 58.1739 20.8142 58.0323 21.1804C57.8938 21.5466 57.8246 21.956 57.8246 22.4084C57.8246 22.8731 57.8954 23.2809 58.0369 23.6317C58.1785 23.9826 58.3878 24.2565 58.6648 24.4535C58.9448 24.6504 59.2895 24.7489 59.6989 24.7489ZM69.356 23.0593V18.9091H70.7409V26H69.3837V24.772H69.3098C69.1467 25.1506 68.8851 25.466 68.525 25.7184C68.168 25.9677 67.7233 26.0923 67.1908 26.0923C66.7354 26.0923 66.3322 25.9923 65.9813 25.7923C65.6336 25.5891 65.3596 25.2891 65.1596 24.892C64.9626 24.495 64.8641 24.0041 64.8641 23.4194V18.9091H66.2445V23.2532C66.2445 23.7364 66.3783 24.1211 66.6461 24.4073C66.9139 24.6935 67.2616 24.8366 67.6894 24.8366C67.9479 24.8366 68.2049 24.772 68.4604 24.6428C68.7189 24.5135 68.9328 24.3181 69.1021 24.0565C69.2744 23.7949 69.359 23.4625 69.356 23.0593ZM74.7602 26.157C74.3108 26.157 73.9046 26.0739 73.5414 25.9077C73.1782 25.7384 72.8905 25.4937 72.6781 25.1737C72.4688 24.8536 72.3642 24.4612 72.3642 23.9964C72.3642 23.5964 72.4411 23.267 72.595 23.0085C72.7489 22.75 72.9566 22.5453 73.2182 22.3945C73.4798 22.2437 73.7722 22.1299 74.0954 22.0529C74.4185 21.976 74.7478 21.9175 75.0833 21.8775C75.508 21.8282 75.8527 21.7882 76.1174 21.7575C76.3821 21.7236 76.5744 21.6697 76.6945 21.5959C76.8145 21.522 76.8745 21.402 76.8745 21.2358V21.2035C76.8745 20.8003 76.7606 20.4879 76.5329 20.2663C76.3082 20.0447 75.9727 19.9339 75.5265 19.9339C75.0618 19.9339 74.6955 20.037 74.4278 20.2433C74.1631 20.4464 73.98 20.6726 73.8784 20.9219L72.5812 20.6264C72.7351 20.1955 72.9597 19.8478 73.2552 19.5831C73.5537 19.3153 73.8969 19.1214 74.2847 19.0014C74.6724 18.8783 75.0802 18.8168 75.508 18.8168C75.7912 18.8168 76.0912 18.8506 76.4082 18.9183C76.7283 18.983 77.0268 19.103 77.3038 19.2784C77.5839 19.4538 77.8132 19.7047 77.9917 20.0309C78.1702 20.354 78.2594 20.7741 78.2594 21.2912V26H76.9114V25.0305H76.856C76.7668 25.209 76.6329 25.3845 76.4544 25.5568C76.2759 25.7292 76.0466 25.8723 75.7665 25.9862C75.4865 26.1 75.151 26.157 74.7602 26.157ZM75.0602 25.049C75.4419 25.049 75.7681 24.9736 76.0389 24.8228C76.3128 24.672 76.5206 24.475 76.6621 24.2319C76.8068 23.9857 76.8791 23.7225 76.8791 23.4425V22.5284C76.8299 22.5777 76.7345 22.6238 76.5929 22.6669C76.4544 22.7069 76.2959 22.7423 76.1174 22.7731C75.9389 22.8008 75.765 22.8269 75.5957 22.8516C75.4265 22.8731 75.2849 22.8916 75.171 22.907C74.9033 22.9408 74.6586 22.9978 74.437 23.0778C74.2185 23.1578 74.0431 23.2732 73.9107 23.424C73.7815 23.5717 73.7168 23.7687 73.7168 24.0149C73.7168 24.3565 73.843 24.6151 74.0954 24.7905C74.3477 24.9628 74.6694 25.049 75.0602 25.049ZM83.172 28.8068C82.6088 28.8068 82.124 28.733 81.7178 28.5852C81.3146 28.4375 80.9853 28.2421 80.7298 27.9989C80.4744 27.7558 80.2836 27.4896 80.1574 27.2003L81.3438 26.7109C81.4269 26.8464 81.5377 26.9895 81.6762 27.1403C81.8178 27.2942 82.0086 27.425 82.2487 27.5327C82.4918 27.6404 82.8042 27.6942 83.1858 27.6942C83.709 27.6942 84.1414 27.5665 84.483 27.3111C84.8247 27.0587 84.9955 26.6555 84.9955 26.1016V24.7074H84.9078C84.8247 24.8582 84.7046 25.0259 84.5477 25.2106C84.3938 25.3952 84.1814 25.5553 83.9106 25.6907C83.6398 25.8261 83.2874 25.8938 82.8534 25.8938C82.2933 25.8938 81.7886 25.763 81.3392 25.5014C80.893 25.2367 80.539 24.8474 80.2774 24.3335C80.0189 23.8164 79.8896 23.1809 79.8896 22.4268C79.8896 21.6728 80.0174 21.0265 80.2728 20.4879C80.5313 19.9493 80.8853 19.5369 81.3346 19.2507C81.7839 18.9614 82.2933 18.8168 82.8627 18.8168C83.3028 18.8168 83.6582 18.8906 83.9291 19.0384C84.1999 19.183 84.4107 19.3523 84.5615 19.5462C84.7154 19.7401 84.8339 19.9109 84.917 20.0586H85.0186V18.9091H86.3712V26.157C86.3712 26.7663 86.2296 27.2665 85.9465 27.6573C85.6633 28.0482 85.2802 28.3375 84.797 28.5252C84.3168 28.7129 83.7752 28.8068 83.172 28.8068ZM83.1581 24.7489C83.5551 24.7489 83.8906 24.6566 84.1645 24.4719C84.4415 24.2842 84.6508 24.0165 84.7923 23.6687C84.937 23.3178 85.0093 22.8977 85.0093 22.4084C85.0093 21.9313 84.9385 21.5112 84.797 21.1481C84.6554 20.7849 84.4476 20.5018 84.1737 20.2987C83.8998 20.0924 83.5613 19.9893 83.1581 19.9893C82.7426 19.9893 82.3964 20.0971 82.1194 20.3125C81.8424 20.5249 81.6331 20.8142 81.4916 21.1804C81.3531 21.5466 81.2838 21.956 81.2838 22.4084C81.2838 22.8731 81.3546 23.2809 81.4962 23.6317C81.6378 23.9826 81.847 24.2565 82.124 24.4535C82.4041 24.6504 82.7488 24.7489 83.1581 24.7489ZM91.3795 26.1431C90.6809 26.1431 90.0792 25.9938 89.5745 25.6953C89.0728 25.3937 88.685 24.9705 88.4111 24.4258C88.1403 23.878 88.0049 23.2363 88.0049 22.5007C88.0049 21.7744 88.1403 21.1342 88.4111 20.5803C88.685 20.0263 89.0666 19.5939 89.556 19.283C90.0484 18.9722 90.6239 18.8168 91.2826 18.8168C91.6826 18.8168 92.0704 18.8829 92.4459 19.0153C92.8214 19.1476 93.1584 19.3554 93.4569 19.6385C93.7554 19.9216 93.9909 20.2894 94.1632 20.7418C94.3356 21.1912 94.4218 21.7375 94.4218 22.3807V22.87H88.785V21.8359H93.0691C93.0691 21.4728 92.9953 21.1512 92.8475 20.8711C92.6998 20.5879 92.4921 20.3648 92.2243 20.2017C91.9596 20.0386 91.6488 19.957 91.2918 19.957C90.904 19.957 90.5655 20.0524 90.2762 20.2433C89.9899 20.431 89.7683 20.6772 89.6114 20.9819C89.4575 21.2835 89.3806 21.6113 89.3806 21.9652V22.7731C89.3806 23.247 89.4637 23.6502 89.6299 23.9826C89.7991 24.315 90.0346 24.5689 90.3362 24.7443C90.6378 24.9167 90.9902 25.0028 91.3933 25.0028C91.6549 25.0028 91.8935 24.9659 92.1089 24.892C92.3243 24.8151 92.5105 24.7012 92.6675 24.5504C92.8245 24.3996 92.9445 24.2134 93.0276 23.9918L94.334 24.2273C94.2294 24.612 94.0417 24.949 93.7708 25.2383C93.5031 25.5245 93.1661 25.7476 92.7598 25.9077C92.3567 26.0646 91.8965 26.1431 91.3795 26.1431Z" fill="white"/>
</svg>
