<svg width="13" height="13" viewBox="0 0 13 13" fill="none" xmlns="http://www.w3.org/2000/svg">
<path d="M12.0891 11.7782H10.7418V1.62182H11.26C11.3425 1.62182 11.4215 1.58906 11.4798 1.53076C11.5382 1.47245 11.5709 1.39337 11.5709 1.31091C11.5709 1.22845 11.5382 1.14937 11.4798 1.09106C11.4215 1.03276 11.3425 1 11.26 1H2.14C2.05754 1 1.97846 1.03276 1.92015 1.09106C1.86185 1.14937 1.82909 1.22845 1.82909 1.31091C1.82909 1.39337 1.86185 1.47245 1.92015 1.53076C1.97846 1.58906 2.05754 1.62182 2.14 1.62182H2.65818V11.7782H1.31091C1.22845 11.7782 1.14937 11.8109 1.09106 11.8692C1.03276 11.9276 1 12.0066 1 12.0891C1 12.1715 1.03276 12.2506 1.09106 12.3089C1.14937 12.3672 1.22845 12.4 1.31091 12.4H12.0891C12.1715 12.4 12.2506 12.3672 12.3089 12.3089C12.3672 12.2506 12.4 12.1715 12.4 12.0891C12.4 12.0066 12.3672 11.9276 12.3089 11.8692C12.2506 11.8109 12.1715 11.7782 12.0891 11.7782ZM3.28 1.62182H10.12V11.7782H8.25455V9.60182C8.25455 9.51936 8.22179 9.44028 8.16348 9.38197C8.10518 9.32366 8.02609 9.29091 7.94364 9.29091H5.45636C5.37391 9.29091 5.29482 9.32366 5.23652 9.38197C5.17821 9.44028 5.14545 9.51936 5.14545 9.60182V11.7782H3.28V1.62182ZM7.63273 11.7782H5.76727V9.91273H7.63273V11.7782ZM4.73091 3.38364C4.73091 3.30118 4.76367 3.2221 4.82197 3.16379C4.88028 3.10548 4.95936 3.07273 5.04182 3.07273H5.87091C5.95337 3.07273 6.03245 3.10548 6.09075 3.16379C6.14906 3.2221 6.18182 3.30118 6.18182 3.38364C6.18182 3.46609 6.14906 3.54518 6.09075 3.60348C6.03245 3.66179 5.95337 3.69455 5.87091 3.69455H5.04182C4.95936 3.69455 4.88028 3.66179 4.82197 3.60348C4.76367 3.54518 4.73091 3.46609 4.73091 3.38364ZM7.21818 3.38364C7.21818 3.30118 7.25094 3.2221 7.30924 3.16379C7.36755 3.10548 7.44663 3.07273 7.52909 3.07273H8.35818C8.44064 3.07273 8.51972 3.10548 8.57803 3.16379C8.63633 3.2221 8.66909 3.30118 8.66909 3.38364C8.66909 3.46609 8.63633 3.54518 8.57803 3.60348C8.51972 3.66179 8.44064 3.69455 8.35818 3.69455H7.52909C7.44663 3.69455 7.36755 3.66179 7.30924 3.60348C7.25094 3.54518 7.21818 3.46609 7.21818 3.38364ZM4.73091 5.45636C4.73091 5.37391 4.76367 5.29482 4.82197 5.23652C4.88028 5.17821 4.95936 5.14545 5.04182 5.14545H5.87091C5.95337 5.14545 6.03245 5.17821 6.09075 5.23652C6.14906 5.29482 6.18182 5.37391 6.18182 5.45636C6.18182 5.53882 6.14906 5.6179 6.09075 5.67621C6.03245 5.73452 5.95337 5.76727 5.87091 5.76727H5.04182C4.95936 5.76727 4.88028 5.73452 4.82197 5.67621C4.76367 5.6179 4.73091 5.53882 4.73091 5.45636ZM7.21818 5.45636C7.21818 5.37391 7.25094 5.29482 7.30924 5.23652C7.36755 5.17821 7.44663 5.14545 7.52909 5.14545H8.35818C8.44064 5.14545 8.51972 5.17821 8.57803 5.23652C8.63633 5.29482 8.66909 5.37391 8.66909 5.45636C8.66909 5.53882 8.63633 5.6179 8.57803 5.67621C8.51972 5.73452 8.44064 5.76727 8.35818 5.76727H7.52909C7.44663 5.76727 7.36755 5.73452 7.30924 5.67621C7.25094 5.6179 7.21818 5.53882 7.21818 5.45636ZM5.04182 7.84C4.95936 7.84 4.88028 7.80724 4.82197 7.74894C4.76367 7.69063 4.73091 7.61155 4.73091 7.52909C4.73091 7.44663 4.76367 7.36755 4.82197 7.30924C4.88028 7.25094 4.95936 7.21818 5.04182 7.21818H5.87091C5.95337 7.21818 6.03245 7.25094 6.09075 7.30924C6.14906 7.36755 6.18182 7.44663 6.18182 7.52909C6.18182 7.61155 6.14906 7.69063 6.09075 7.74894C6.03245 7.80724 5.95337 7.84 5.87091 7.84H5.04182ZM7.21818 7.52909C7.21818 7.44663 7.25094 7.36755 7.30924 7.30924C7.36755 7.25094 7.44663 7.21818 7.52909 7.21818H8.35818C8.44064 7.21818 8.51972 7.25094 8.57803 7.30924C8.63633 7.36755 8.66909 7.44663 8.66909 7.52909C8.66909 7.61155 8.63633 7.69063 8.57803 7.74894C8.51972 7.80724 8.44064 7.84 8.35818 7.84H7.52909C7.44663 7.84 7.36755 7.80724 7.30924 7.74894C7.25094 7.69063 7.21818 7.61155 7.21818 7.52909Z" fill="#96B2DC" stroke="#96B2DC" stroke-width="0.15"/>
</svg>
