<svg width="99" height="42" viewBox="0 0 99 42" fill="none" xmlns="http://www.w3.org/2000/svg">
<rect width="98.24" height="42" rx="8.08" fill="#3B72C5"/>
<path d="M16.24 26.836L16.656 25.524C17.904 25.524 18.976 25.492 19.872 25.428C20.7787 25.364 21.52 25.2627 22.096 25.124C22.6827 24.9747 23.1147 24.7773 23.392 24.532C23.68 24.276 23.824 23.9667 23.824 23.604C23.824 23.1987 23.7493 22.7293 23.6 22.196C23.4507 21.6627 23.2587 21.092 23.024 20.484L24.256 20.052C24.3947 20.3933 24.5227 20.7613 24.64 21.156C24.768 21.54 24.8747 21.924 24.96 22.308C25.0453 22.6813 25.088 23.028 25.088 23.348C25.088 23.9773 24.944 24.516 24.656 24.964C24.368 25.4013 23.888 25.7587 23.216 26.036C22.544 26.3133 21.6373 26.516 20.496 26.644C19.3653 26.772 17.9467 26.836 16.24 26.836ZM16.24 26.836C15.2907 26.836 14.4533 26.772 13.728 26.644C13.0133 26.5267 12.416 26.34 11.936 26.084C11.456 25.828 11.0933 25.4973 10.848 25.092C10.6027 24.676 10.48 24.1747 10.48 23.588C10.48 23.3213 10.5013 23.0493 10.544 22.772C10.5867 22.484 10.64 22.196 10.704 21.908C10.7787 21.62 10.8533 21.3427 10.928 21.076L12.128 21.38C12.0853 21.54 12.0373 21.732 11.984 21.956C11.9307 22.1693 11.8827 22.388 11.84 22.612C11.808 22.836 11.792 23.0387 11.792 23.22C11.792 23.7747 11.9307 24.2227 12.208 24.564C12.496 24.8947 12.992 25.14 13.696 25.3C14.4 25.4493 15.3867 25.524 16.656 25.524L16.976 26.324L16.24 26.836ZM18.912 20.084C18.688 20.084 18.496 20.0093 18.336 19.86C18.1867 19.7 18.112 19.5133 18.112 19.3C18.112 19.0867 18.1867 18.9 18.336 18.74C18.496 18.58 18.688 18.5 18.912 18.5C19.1253 18.5 19.3067 18.58 19.456 18.74C19.616 18.9 19.696 19.0867 19.696 19.3C19.696 19.5133 19.616 19.7 19.456 19.86C19.3067 20.0093 19.1253 20.084 18.912 20.084ZM16.72 20.084C16.496 20.084 16.304 20.0093 16.144 19.86C15.9947 19.7 15.92 19.5133 15.92 19.3C15.92 19.0867 15.9947 18.9 16.144 18.74C16.304 18.58 16.496 18.5 16.72 18.5C16.9333 18.5 17.1147 18.58 17.264 18.74C17.424 18.9 17.504 19.0867 17.504 19.3C17.504 19.5133 17.424 19.7 17.264 19.86C17.1147 20.0093 16.9333 20.084 16.72 20.084ZM30.6476 26.58C29.7943 26.58 29.1383 26.484 28.6796 26.292C28.2316 26.1 27.9223 25.8013 27.7516 25.396C27.581 24.9907 27.485 24.468 27.4636 23.828L27.1436 15.076H28.4556L28.7756 23.316C28.797 23.8387 28.845 24.244 28.9196 24.532C29.005 24.8093 29.1863 25.0013 29.4636 25.108C29.7516 25.2147 30.1996 25.268 30.8076 25.268C31.0316 25.268 31.1916 25.332 31.2876 25.46C31.3943 25.5773 31.4476 25.7213 31.4476 25.892C31.4476 26.0627 31.373 26.2227 31.2236 26.372C31.0743 26.5107 30.8823 26.58 30.6476 26.58ZM30.7489 26.58L30.9089 25.268C31.4422 25.268 31.8582 25.2307 32.1569 25.156C32.4555 25.0707 32.6795 24.916 32.8289 24.692C32.9889 24.4573 33.1169 24.1213 33.2129 23.684C33.3089 23.2467 33.4262 22.676 33.5649 21.972L34.8129 22.212C34.7702 22.404 34.7222 22.6173 34.6689 22.852C34.6155 23.0867 34.5675 23.3213 34.5249 23.556C34.4929 23.78 34.4769 23.9773 34.4769 24.148C34.4769 24.308 34.4875 24.4573 34.5089 24.596C34.5302 24.7347 34.6102 24.852 34.7489 24.948C34.8875 25.044 35.1222 25.124 35.4529 25.188C35.7835 25.2413 36.2582 25.268 36.8769 25.268C37.1009 25.268 37.2609 25.332 37.3569 25.46C37.4635 25.5773 37.5169 25.7213 37.5169 25.892C37.5169 26.0627 37.4422 26.2227 37.2929 26.372C37.1435 26.5107 36.9515 26.58 36.7169 26.58C36.0662 26.58 35.5489 26.548 35.1649 26.484C34.7809 26.4093 34.4875 26.3027 34.2849 26.164C34.0929 26.0253 33.9542 25.8547 33.8689 25.652C33.7942 25.4387 33.7355 25.1933 33.6929 24.916L34.1729 24.948C34.0022 25.2893 33.8155 25.5667 33.6129 25.78C33.4209 25.9933 33.1969 26.1587 32.9409 26.276C32.6849 26.3933 32.3755 26.4733 32.0129 26.516C31.6609 26.5587 31.2395 26.58 30.7489 26.58ZM34.7809 29.604C34.5569 29.604 34.3649 29.524 34.2049 29.364C34.0555 29.2147 33.9809 29.0333 33.9809 28.82C33.9809 28.6067 34.0555 28.42 34.2049 28.26C34.3649 28.1 34.5569 28.02 34.7809 28.02C34.9942 28.02 35.1755 28.1 35.3249 28.26C35.4849 28.42 35.5649 28.6067 35.5649 28.82C35.5649 29.0333 35.4849 29.2147 35.3249 29.364C35.1755 29.524 34.9942 29.604 34.7809 29.604ZM32.5889 29.604C32.3649 29.604 32.1729 29.524 32.0129 29.364C31.8635 29.2147 31.7889 29.0333 31.7889 28.82C31.7889 28.6067 31.8635 28.42 32.0129 28.26C32.1729 28.1 32.3649 28.02 32.5889 28.02C32.8022 28.02 32.9835 28.1 33.1329 28.26C33.2929 28.42 33.3729 28.6067 33.3729 28.82C33.3729 29.0333 33.2929 29.2147 33.1329 29.364C32.9835 29.524 32.8022 29.604 32.5889 29.604ZM36.8186 26.58L36.9786 25.268H38.2106C39.096 25.268 39.752 25.22 40.1786 25.124C40.6053 25.028 40.8826 24.9 41.0106 24.74C41.1493 24.58 41.2186 24.4147 41.2186 24.244C41.2186 23.988 41.1226 23.7053 40.9306 23.396C40.7386 23.0867 40.4933 22.772 40.1946 22.452C39.896 22.1213 39.576 21.796 39.2346 21.476C38.904 21.156 38.5893 20.8627 38.2906 20.596C37.992 20.3293 37.7466 20.1 37.5546 19.908C37.3626 19.7053 37.2666 19.5613 37.2666 19.476C37.2666 19.316 37.2773 19.1613 37.2986 19.012C37.3306 18.8627 37.368 18.724 37.4106 18.596C37.464 18.468 37.528 18.3667 37.6026 18.292C37.816 18.068 38.1093 17.8333 38.4826 17.588C38.856 17.332 39.288 17.076 39.7786 16.82C40.2693 16.5533 40.792 16.2867 41.3466 16.02C41.9013 15.7427 42.4613 15.4653 43.0266 15.188L43.5706 16.372C43.0586 16.628 42.5466 16.884 42.0346 17.14C41.5226 17.3853 41.0266 17.6307 40.5466 17.876C40.0666 18.1213 39.6133 18.372 39.1866 18.628C38.7706 18.8733 38.392 19.124 38.0506 19.38L38.1466 18.836C38.6266 19.2413 39.08 19.6307 39.5066 20.004C39.9333 20.3773 40.3386 20.7613 40.7226 21.156C41.1066 21.54 41.464 21.956 41.7946 22.404C42.1253 22.852 42.4346 23.348 42.7226 23.892C42.9466 24.308 43.208 24.612 43.5066 24.804C43.8053 24.996 44.0986 25.124 44.3866 25.188C44.6853 25.2413 44.9253 25.268 45.1066 25.268C45.3306 25.268 45.4906 25.332 45.5866 25.46C45.6933 25.5773 45.7466 25.7213 45.7466 25.892C45.7466 26.0627 45.672 26.2227 45.5226 26.372C45.3733 26.5107 45.1813 26.58 44.9466 26.58C44.6586 26.58 44.3173 26.5373 43.9226 26.452C43.5386 26.356 43.16 26.1747 42.7866 25.908C42.4133 25.6413 42.104 25.236 41.8586 24.692L42.3386 24.884C42.1786 25.172 41.992 25.4227 41.7786 25.636C41.576 25.8387 41.3146 26.0147 40.9946 26.164C40.6746 26.3027 40.2853 26.4093 39.8266 26.484C39.368 26.548 38.808 26.58 38.1466 26.58H36.8186ZM45.0446 26.58L45.1886 25.268C45.7966 25.268 46.2233 25.2093 46.4686 25.092C46.714 24.9747 46.8526 24.7667 46.8846 24.468C46.9273 24.1693 46.938 23.7533 46.9166 23.22L46.6446 15.076H47.9726L48.2286 23.188C48.25 23.732 48.3353 24.1587 48.4846 24.468C48.6446 24.7667 48.858 24.9747 49.1246 25.092C49.3913 25.2093 49.6846 25.268 50.0046 25.268C50.2286 25.268 50.3886 25.332 50.4846 25.46C50.5913 25.5773 50.6446 25.7213 50.6446 25.892C50.6446 26.0627 50.57 26.2227 50.4206 26.372C50.2713 26.5107 50.0793 26.58 49.8446 26.58C49.3966 26.58 49.0233 26.5107 48.7246 26.372C48.4366 26.2227 48.2073 26.036 48.0366 25.812C47.8766 25.5773 47.77 25.332 47.7166 25.076L48.0526 25.108C47.946 25.428 47.77 25.7 47.5246 25.924C47.29 26.1373 46.97 26.3027 46.5646 26.42C46.1593 26.5267 45.6526 26.58 45.0446 26.58ZM49.9425 26.58L50.1025 25.268C50.4012 25.268 50.6518 25.204 50.8545 25.076C51.0572 24.948 51.2545 24.7347 51.4465 24.436C51.6385 24.1373 51.8465 23.7373 52.0705 23.236C52.3798 22.5533 52.6838 22.036 52.9825 21.684C53.2918 21.332 53.5958 21.092 53.8945 20.964C54.2038 20.836 54.5078 20.772 54.8065 20.772C55.1692 20.772 55.5052 20.868 55.8145 21.06C56.1238 21.2413 56.3958 21.4867 56.6305 21.796C56.8652 22.1053 57.0465 22.4467 57.1745 22.82C57.3132 23.1827 57.3825 23.5453 57.3825 23.908C57.3825 24.548 57.2705 25.06 57.0465 25.444C56.8225 25.8173 56.5345 26.0893 56.1825 26.26C55.8412 26.42 55.4838 26.5 55.1105 26.5C54.7798 26.5 54.3532 26.436 53.8305 26.308C53.3185 26.18 52.6678 25.8547 51.8785 25.332L52.5025 24.324C53.0252 24.6547 53.4945 24.884 53.9105 25.012C54.3372 25.1293 54.6892 25.188 54.9665 25.188C55.2758 25.188 55.5212 25.1453 55.7025 25.06C55.8838 24.964 56.0172 24.8307 56.1025 24.66C56.1878 24.4893 56.2305 24.2973 56.2305 24.084C56.2305 23.7747 56.1558 23.4653 56.0065 23.156C55.8572 22.8467 55.6652 22.5907 55.4305 22.388C55.2065 22.1853 54.9665 22.084 54.7105 22.084C54.5185 22.084 54.3318 22.1373 54.1505 22.244C53.9692 22.3507 53.7825 22.548 53.5905 22.836C53.3985 23.124 53.1798 23.54 52.9345 24.084C52.6785 24.66 52.4332 25.1187 52.1985 25.46C51.9745 25.7907 51.7452 26.036 51.5105 26.196C51.2758 26.356 51.0305 26.4573 50.7745 26.5C50.5292 26.5533 50.2518 26.58 49.9425 26.58Z" fill="white"/>
<path d="M86.5091 27.9869H84.3818V11.9506H85.2C85.3302 11.9506 85.4551 11.8988 85.5471 11.8068C85.6392 11.7147 85.6909 11.5899 85.6909 11.4597C85.6909 11.3295 85.6392 11.2046 85.5471 11.1125C85.4551 11.0205 85.3302 10.9688 85.2 10.9688H70.8C70.6698 10.9688 70.5449 11.0205 70.4529 11.1125C70.3608 11.2046 70.3091 11.3295 70.3091 11.4597C70.3091 11.5899 70.3608 11.7147 70.4529 11.8068C70.5449 11.8988 70.6698 11.9506 70.8 11.9506H71.6182V27.9869H69.4909C69.3607 27.9869 69.2358 28.0387 69.1438 28.1307C69.0517 28.2228 69 28.3476 69 28.4778C69 28.608 69.0517 28.7329 69.1438 28.825C69.2358 28.917 69.3607 28.9688 69.4909 28.9688H86.5091C86.6393 28.9688 86.7642 28.917 86.8562 28.825C86.9483 28.7329 87 28.608 87 28.4778C87 28.3476 86.9483 28.2228 86.8562 28.1307C86.7642 28.0387 86.6393 27.9869 86.5091 27.9869ZM72.6 11.9506H83.4V27.9869H80.4545V24.5506C80.4545 24.4204 80.4028 24.2955 80.3108 24.2034C80.2187 24.1114 80.0938 24.0597 79.9636 24.0597H76.0364C75.9062 24.0597 75.7813 24.1114 75.6892 24.2034C75.5972 24.2955 75.5455 24.4204 75.5455 24.5506V27.9869H72.6V11.9506ZM79.4727 27.9869H76.5273V25.0415H79.4727V27.9869ZM74.8909 14.7324C74.8909 14.6022 74.9426 14.4773 75.0347 14.3853C75.1268 14.2932 75.2516 14.2415 75.3818 14.2415H76.6909C76.8211 14.2415 76.946 14.2932 77.038 14.3853C77.1301 14.4773 77.1818 14.6022 77.1818 14.7324C77.1818 14.8626 77.1301 14.9874 77.038 15.0795C76.946 15.1716 76.8211 15.2233 76.6909 15.2233H75.3818C75.2516 15.2233 75.1268 15.1716 75.0347 15.0795C74.9426 14.9874 74.8909 14.8626 74.8909 14.7324ZM78.8182 14.7324C78.8182 14.6022 78.8699 14.4773 78.962 14.3853C79.054 14.2932 79.1789 14.2415 79.3091 14.2415H80.6182C80.7484 14.2415 80.8732 14.2932 80.9653 14.3853C81.0574 14.4773 81.1091 14.6022 81.1091 14.7324C81.1091 14.8626 81.0574 14.9874 80.9653 15.0795C80.8732 15.1716 80.7484 15.2233 80.6182 15.2233H79.3091C79.1789 15.2233 79.054 15.1716 78.962 15.0795C78.8699 14.9874 78.8182 14.8626 78.8182 14.7324ZM74.8909 18.0051C74.8909 17.8749 74.9426 17.7501 75.0347 17.658C75.1268 17.5659 75.2516 17.5142 75.3818 17.5142H76.6909C76.8211 17.5142 76.946 17.5659 77.038 17.658C77.1301 17.7501 77.1818 17.8749 77.1818 18.0051C77.1818 18.1353 77.1301 18.2602 77.038 18.3522C76.946 18.4443 76.8211 18.496 76.6909 18.496H75.3818C75.2516 18.496 75.1268 18.4443 75.0347 18.3522C74.9426 18.2602 74.8909 18.1353 74.8909 18.0051ZM78.8182 18.0051C78.8182 17.8749 78.8699 17.7501 78.962 17.658C79.054 17.5659 79.1789 17.5142 79.3091 17.5142H80.6182C80.7484 17.5142 80.8732 17.5659 80.9653 17.658C81.0574 17.7501 81.1091 17.8749 81.1091 18.0051C81.1091 18.1353 81.0574 18.2602 80.9653 18.3522C80.8732 18.4443 80.7484 18.496 80.6182 18.496H79.3091C79.1789 18.496 79.054 18.4443 78.962 18.3522C78.8699 18.2602 78.8182 18.1353 78.8182 18.0051ZM75.3818 21.7687C75.2516 21.7687 75.1268 21.717 75.0347 21.625C74.9426 21.5329 74.8909 21.408 74.8909 21.2778C74.8909 21.1476 74.9426 21.0228 75.0347 20.9307C75.1268 20.8387 75.2516 20.7869 75.3818 20.7869H76.6909C76.8211 20.7869 76.946 20.8387 77.038 20.9307C77.1301 21.0228 77.1818 21.1476 77.1818 21.2778C77.1818 21.408 77.1301 21.5329 77.038 21.625C76.946 21.717 76.8211 21.7687 76.6909 21.7687H75.3818ZM78.8182 21.2778C78.8182 21.1476 78.8699 21.0228 78.962 20.9307C79.054 20.8387 79.1789 20.7869 79.3091 20.7869H80.6182C80.7484 20.7869 80.8732 20.8387 80.9653 20.9307C81.0574 21.0228 81.1091 21.1476 81.1091 21.2778C81.1091 21.408 81.0574 21.5329 80.9653 21.625C80.8732 21.717 80.7484 21.7687 80.6182 21.7687H79.3091C79.1789 21.7687 79.054 21.717 78.962 21.625C78.8699 21.5329 78.8182 21.408 78.8182 21.2778Z" fill="white" stroke="white" stroke-width="0.7"/>
</svg>
