<svg width="17" height="17" viewBox="0 0 17 17" fill="none" xmlns="http://www.w3.org/2000/svg">
<g opacity="0.4">
<path d="M9.91669 7.0835H11.3334V7.6197C11.8134 7.29898 12.3715 7.11465 12.9481 7.08637C13.5247 7.05809 14.0981 7.18694 14.6072 7.45916C15.1163 7.73137 15.5419 8.13674 15.8386 8.63197C16.1352 9.1272 16.2919 9.6937 16.2917 10.271V14.1668H14.875V10.271C14.875 9.25808 14.0434 8.50016 13.1042 8.50016C12.1649 8.50016 11.3334 9.25808 11.3334 10.271V14.1668H9.91669V7.0835ZM8.50002 2.8335V4.25016H2.83335V7.79183H8.50002V9.2085H2.83335V12.7502H8.50002V14.1668H1.41669V2.8335H8.50002Z" fill="black"/>
</g>
</svg>
