<svg width="13" height="18" viewBox="0 0 13 18" fill="none" xmlns="http://www.w3.org/2000/svg">
<path d="M0 2.16667V15.1667C0 15.7413 0.228273 16.2924 0.634602 16.6987C1.04093 17.1051 1.59203 17.3333 2.16667 17.3333H12.4583C12.602 17.3333 12.7398 17.2763 12.8414 17.1747C12.9429 17.0731 13 16.9353 13 16.7917C13 16.648 12.9429 16.5102 12.8414 16.4086C12.7398 16.3071 12.602 16.25 12.4583 16.25H2.16667C1.87935 16.25 1.6038 16.1359 1.40063 15.9327C1.19747 15.7295 1.08333 15.454 1.08333 15.1667H11.9167C12.204 15.1667 12.4795 15.0525 12.6827 14.8494C12.8859 14.6462 13 14.3707 13 14.0833V2.16667C13 1.59203 12.7717 1.04093 12.3654 0.634602C11.9591 0.228273 11.408 0 10.8333 0H2.16667C1.59203 0 1.04093 0.228273 0.634602 0.634602C0.228273 1.04093 0 1.59203 0 2.16667ZM10.8333 1.08333C11.1207 1.08333 11.3962 1.19747 11.5994 1.40063C11.8025 1.6038 11.9167 1.87935 11.9167 2.16667V14.0833H1.08333V2.16667C1.08333 1.87935 1.19747 1.6038 1.40063 1.40063C1.6038 1.19747 1.87935 1.08333 2.16667 1.08333H10.8333ZM6.5 11.9167C8.82158 11.9167 9.75 10.8972 9.75 9.88542C9.75 9.21267 9.126 8.66667 8.35683 8.66667H4.64317C3.874 8.66667 3.25 9.21267 3.25 9.88542C3.25 10.9005 4.17842 11.9167 6.5 11.9167ZM8.125 5.95833C8.125 6.38931 7.9538 6.80263 7.64905 7.10738C7.3443 7.41213 6.93098 7.58333 6.5 7.58333C6.06902 7.58333 5.6557 7.41213 5.35095 7.10738C5.04621 6.80263 4.875 6.38931 4.875 5.95833C4.875 5.52736 5.04621 5.11403 5.35095 4.80928C5.6557 4.50454 6.06902 4.33333 6.5 4.33333C6.93098 4.33333 7.3443 4.50454 7.64905 4.80928C7.9538 5.11403 8.125 5.52736 8.125 5.95833Z" fill="white"/>
</svg>
