<svg width="13" height="14" viewBox="0 0 13 14" fill="none" xmlns="http://www.w3.org/2000/svg">
<path d="M6.237 0.550781C5.00344 0.550781 3.79758 0.916574 2.77191 1.6019C1.74624 2.28723 0.94683 3.26132 0.474766 4.40098C0.00270239 5.54064 -0.120811 6.79469 0.119845 8.00455C0.360501 9.21441 0.954517 10.3257 1.82678 11.198C2.69904 12.0702 3.81036 12.6643 5.02022 12.9049C6.23008 13.1456 7.48413 13.0221 8.6238 12.55C9.76346 12.0779 10.7375 11.2785 11.4229 10.2529C12.1082 9.22719 12.474 8.02133 12.474 6.78777C12.4723 5.13415 11.8146 3.54877 10.6453 2.37948C9.47601 1.2102 7.89062 0.552527 6.237 0.550781ZM6.237 12.0652C5.19322 12.0652 4.17287 11.7557 3.305 11.1758C2.43713 10.5959 1.7607 9.77169 1.36126 8.80737C0.961825 7.84304 0.857314 6.78192 1.06095 5.75819C1.26458 4.73447 1.76721 3.79411 2.50527 3.05605C3.24334 2.31798 4.18369 1.81535 5.20742 1.61172C6.23115 1.40809 7.29227 1.5126 8.2566 1.91204C9.22093 2.31148 10.0452 2.9879 10.625 3.85578C11.2049 4.72365 11.5145 5.74399 11.5145 6.78777C11.5129 8.18695 10.9563 9.52837 9.96698 10.5177C8.9776 11.5071 7.63618 12.0636 6.237 12.0652ZM10.0752 6.78777C10.0752 6.91501 10.0246 7.03705 9.93463 7.12702C9.84466 7.21699 9.72263 7.26754 9.59538 7.26754H6.237C6.10976 7.26754 5.98773 7.21699 5.89775 7.12702C5.80778 7.03705 5.75723 6.91501 5.75723 6.78777V3.42939C5.75723 3.30215 5.80778 3.18012 5.89775 3.09014C5.98773 3.00017 6.10976 2.94962 6.237 2.94962C6.36424 2.94962 6.48628 3.00017 6.57625 3.09014C6.66622 3.18012 6.71677 3.30215 6.71677 3.42939V6.308H9.59538C9.72263 6.308 9.84466 6.35855 9.93463 6.44852C10.0246 6.5385 10.0752 6.66053 10.0752 6.78777Z" fill="#818181"/>
</svg>
