<svg width="7" height="8" viewBox="0 0 7 8" fill="none" xmlns="http://www.w3.org/2000/svg">
<path d="M2.76316 1.19737V1.28947H4.23684V1.19737C4.23684 1.00195 4.15921 0.814527 4.02103 0.676342C3.88284 0.538158 3.69542 0.460526 3.5 0.460526C3.30458 0.460526 3.11716 0.538158 2.97897 0.676342C2.84079 0.814527 2.76316 1.00195 2.76316 1.19737ZM2.30263 1.28947V1.19737C2.30263 0.879807 2.42878 0.575251 2.65333 0.350701C2.87788 0.126151 3.18244 0 3.5 0C3.81756 0 4.12212 0.126151 4.34667 0.350701C4.57122 0.575251 4.69737 0.879807 4.69737 1.19737V1.28947H6.76974C6.83081 1.28947 6.88937 1.31373 6.93256 1.35692C6.97574 1.4001 7 1.45867 7 1.51974C7 1.58081 6.97574 1.63937 6.93256 1.68256C6.88937 1.72574 6.83081 1.75 6.76974 1.75H6.23239L5.86397 6.14453C5.83598 6.47825 5.68363 6.78927 5.43713 7.01595C5.19062 7.24264 4.86794 7.36844 4.53305 7.36842H2.46695C2.13209 7.36839 1.80946 7.24257 1.56299 7.01589C1.31652 6.78921 1.1642 6.47821 1.13621 6.14453L0.767789 1.75H0.230263C0.169194 1.75 0.110625 1.72574 0.0674425 1.68256C0.0242598 1.63937 0 1.58081 0 1.51974C0 1.45867 0.0242598 1.4001 0.0674425 1.35692C0.110625 1.31373 0.169194 1.28947 0.230263 1.28947H2.30263ZM3.03947 2.99342C3.03947 2.96318 3.03352 2.93324 3.02195 2.9053C3.01037 2.87737 2.99341 2.85198 2.97203 2.8306C2.95065 2.80922 2.92526 2.79226 2.89733 2.78069C2.86939 2.76911 2.83945 2.76316 2.80921 2.76316C2.77897 2.76316 2.74903 2.76911 2.72109 2.78069C2.69316 2.79226 2.66777 2.80922 2.64639 2.8306C2.62501 2.85198 2.60805 2.87737 2.59647 2.9053C2.5849 2.93324 2.57895 2.96318 2.57895 2.99342V5.66447C2.57895 5.69471 2.5849 5.72466 2.59647 5.75259C2.60805 5.78053 2.62501 5.80591 2.64639 5.82729C2.66777 5.84868 2.69316 5.86564 2.72109 5.87721C2.74903 5.88878 2.77897 5.89474 2.80921 5.89474C2.83945 5.89474 2.86939 5.88878 2.89733 5.87721C2.92526 5.86564 2.95065 5.84868 2.97203 5.82729C2.99341 5.80591 3.01037 5.78053 3.02195 5.75259C3.03352 5.72466 3.03947 5.69471 3.03947 5.66447V2.99342ZM4.19079 2.76316C4.06368 2.76316 3.96053 2.86632 3.96053 2.99342V5.66447C3.96053 5.72554 3.98479 5.78411 4.02797 5.82729C4.07115 5.87048 4.12972 5.89474 4.19079 5.89474C4.25186 5.89474 4.31043 5.87048 4.35361 5.82729C4.39679 5.78411 4.42105 5.72554 4.42105 5.66447V2.99342C4.42105 2.86632 4.31789 2.76316 4.19079 2.76316Z" fill="#EB4335"/>
</svg>
