<svg width="27" height="24" viewBox="0 0 27 24" fill="none" xmlns="http://www.w3.org/2000/svg">
<path d="M12.207 12C14.9685 12 17.207 9.76142 17.207 7C17.207 4.23858 14.9685 2 12.207 2C9.44561 2 7.20703 4.23858 7.20703 7C7.20703 9.76142 9.44561 12 12.207 12Z" stroke="#9DB2CE" stroke-width="1.5" stroke-linecap="round" stroke-linejoin="round"/>
<path d="M20.7969 22C20.7969 18.13 16.9469 15 12.2069 15C7.46694 15 3.61694 18.13 3.61694 22" stroke="#9DB2CE" stroke-width="1.5" stroke-linecap="round" stroke-linejoin="round"/>
<path d="M21.9351 17.3691C23.3821 17.3691 24.5551 16.1961 24.5551 14.7491C24.5551 13.3021 23.3821 12.1292 21.9351 12.1292C20.4882 12.1292 19.3152 13.3021 19.3152 14.7491C19.3152 16.1961 20.4882 17.3691 21.9351 17.3691Z" stroke="#9DB2CE" stroke-width="0.726" stroke-linecap="round" stroke-linejoin="round"/>
<path d="M25.5486 21.9586H18.2148L18.7517 21.1532L19.7014 20.2035L21.6726 19.7107H23.5692L25.0117 21.1532L25.5486 21.9586Z" fill="#9DB2CE" stroke="#9DB2CE"/>
<path d="M25.3258 22.4997H18.9792L19.1708 22.2962L20.0575 21.6681L21.9417 21.3345H23.7765L25.1343 22.2962L25.3258 22.4997Z" fill="#9DB2CE" stroke="#9DB2CE"/>
<path d="M19.6553 21.6928L19.6799 21.6903L19.7042 21.6854L21.4382 21.3345H23.0553L25.3561 22.4628L25.2822 22.4997H17.9742L18.1939 21.8407L19.6553 21.6928Z" fill="#9DB2CE" stroke="#9DB2CE"/>
<path d="M26.4372 22.6101C26.4372 20.5822 24.4199 18.9421 21.9361 18.9421C19.4524 18.9421 17.4351 20.5822 17.4351 22.6101" stroke="#9DB2CE" stroke-width="0.726" stroke-linecap="round" stroke-linejoin="round"/>
<path d="M19.4458 13.7975L20.5284 12.7149L21.0697 12.1736H22.1524L23.7763 12.7149L24.3176 13.7975V14.3388V15.9628L23.235 17.0454H22.6937H21.6111H21.0697L20.5284 16.5041L19.4458 15.4215V14.8802V13.7975Z" fill="#9DB2CE"/>
</svg>
