<svg width="29" height="24" viewBox="0 0 29 24" fill="none" xmlns="http://www.w3.org/2000/svg">
<path d="M5.77613 9.53279L8.58238 6.72656C8.79877 6.51016 8.91801 6.22238 8.91801 5.91632C8.91801 5.61025 8.79877 5.32247 8.58238 5.10602L8.09709 4.62073C7.6503 4.17395 6.92339 4.17395 6.47654 4.62073L3.6703 7.42697C3.22351 7.87375 3.22351 8.60072 3.6703 9.0475L4.15558 9.53279C4.37898 9.75618 4.67243 9.86788 4.96589 9.86788C5.25928 9.86788 5.55273 9.75618 5.77613 9.53279ZM4.18238 8.53549C4.01794 8.37105 4.01794 8.10348 4.18238 7.93905L6.98863 5.13281C7.07081 5.05056 7.17883 5.00947 7.28685 5.00947C7.39486 5.00947 7.50288 5.05056 7.58507 5.13281L8.07036 5.6181C8.15001 5.69775 8.19388 5.80366 8.19388 5.91632C8.19388 6.02898 8.15001 6.13488 8.07036 6.21454L5.26411 9.02077C5.09973 9.18533 4.8321 9.18527 4.66767 9.02077L4.18238 8.53549Z" fill="#969696" stroke="#969696" stroke-width="0.224699"/>
<path d="M28.0316 12.5281L27.6423 11.4337C27.1985 10.186 26.482 9.02737 25.5648 8.07122C25.7076 7.12068 25.4025 6.14667 24.7453 5.48953C24.0886 4.83292 23.1159 4.52764 22.166 4.66969L21.2289 3.73249L21.5756 3.38569C21.7171 3.24431 21.7171 3.01506 21.5756 2.87368L19.8544 1.15243C19.7131 1.01104 19.4837 1.01104 19.3424 1.15243L16.1934 4.30135C16.052 4.44274 16.052 4.67199 16.1934 4.81337L17.9147 6.53468C17.9826 6.60257 18.0746 6.64071 18.1707 6.64071C18.2667 6.64071 18.3587 6.60257 18.4266 6.53468L18.7734 6.18789L19.7106 7.12503C19.6539 7.50441 19.6697 7.88717 19.7496 8.25231L15.9655 12.0364L10.6489 6.7197C11.0799 6.13726 11.0334 5.31 10.5059 4.78254L7.44948 1.72612C7.16821 1.44485 6.79432 1.28995 6.39659 1.28995C5.99886 1.28995 5.62491 1.44485 5.34371 1.72612L0.775768 6.29415C0.494503 6.57541 0.3396 6.94937 0.3396 7.34703C0.3396 7.74476 0.494503 8.11871 0.775768 8.39991L3.8322 11.4563C4.12252 11.7466 4.50377 11.8918 4.88515 11.8918C5.14861 11.8918 5.41135 11.8208 5.64476 11.6822L7.5368 12.0367L8.56452 13.8196C8.61732 13.9113 8.70759 13.9753 8.81157 13.9947L10.8352 14.3737L11.8562 16.1457L6.79504 21.2068C6.21483 21.787 6.21858 22.7348 6.80343 23.3196C7.09719 23.6134 7.48243 23.7603 7.86688 23.7603C8.24747 23.7603 8.62716 23.6161 8.91584 23.3275L14.6446 17.5987L15.1608 18.4944C15.2136 18.5861 15.3039 18.6501 15.4079 18.6695L17.4314 19.048L18.4586 20.8314C18.5114 20.9231 18.6017 20.9872 18.7057 21.0067L20.7293 21.3851L21.757 23.1686C21.8098 23.2603 21.9001 23.3242 22.0041 23.3437L24.191 23.7535C24.2131 23.7576 24.2354 23.7597 24.2576 23.7597C24.3511 23.7597 24.442 23.7234 24.5102 23.657L25.8058 22.3952C25.8752 22.3276 25.9146 22.235 25.9152 22.1382C25.9158 22.0413 25.8777 21.9483 25.8092 21.8798L18.0863 14.1571L21.8032 10.4403C22.2219 10.5585 22.6694 10.5903 23.1121 10.5238C24.0683 11.441 25.2269 12.1574 26.4747 12.6012L27.5692 12.9906C27.6087 13.0047 27.6498 13.0115 27.6904 13.0115C27.7849 13.0115 27.8774 12.9745 27.9465 12.9055C28.0453 12.8067 28.0785 12.6598 28.0316 12.5281ZM18.1707 5.76662L16.9614 4.55733L19.5983 1.92042L20.8076 3.12966L18.1707 5.76662ZM4.34422 10.9444L1.28779 7.88796C1.14326 7.74343 1.06373 7.55136 1.06373 7.34703C1.06373 7.14271 1.14332 6.95063 1.28779 6.80617L5.85579 2.23825C6.00025 2.09379 6.19233 2.0142 6.39665 2.0142C6.60098 2.0142 6.79305 2.09379 6.93752 2.23825L9.99395 5.29468C10.2922 5.5929 10.2922 6.07812 9.99395 6.3764L5.42445 10.9458C5.12604 11.2425 4.64196 11.2422 4.34422 10.9444ZM11.3794 13.8679C11.3266 13.7763 11.2363 13.7123 11.1323 13.6928L9.1087 13.3137L8.08098 11.5307C8.02818 11.4391 7.9379 11.3751 7.83399 11.3557L6.32201 11.0724L10.1498 7.24469L15.4536 12.5485L12.3865 15.6156L11.3794 13.8679ZM25.0377 22.1326L24.1395 23.0073L22.3011 22.6629L21.2734 20.8793C21.2206 20.7876 21.1303 20.7236 21.0263 20.7042L19.0027 20.3257L17.9756 18.5423C17.9228 18.4506 17.8325 18.3865 17.7285 18.367L15.7049 17.9886L15.1747 17.0687L17.5743 14.6692L25.0377 22.1326ZM8.40376 22.8157C8.1059 23.1136 7.61766 23.11 7.31545 22.8078C7.01295 22.5053 7.00915 22.0169 7.30707 21.719L20.0204 9.00571C20.1541 9.26265 20.3251 9.49896 20.5305 9.70437C20.697 9.8708 20.8839 10.0145 21.0854 10.1342L8.40376 22.8157ZM26.7174 11.9191C25.5103 11.4896 24.3935 10.7839 23.4876 9.87804C23.419 9.80943 23.3266 9.77201 23.2317 9.77201C23.2061 9.77201 23.1804 9.77467 23.155 9.78022C22.382 9.94761 21.5727 9.72241 21.0426 9.19229C20.5125 8.66217 20.2872 7.85278 20.4547 7.07995C20.4808 6.95962 20.4439 6.83429 20.3569 6.74721L19.3006 5.69095L20.732 4.2596L21.7883 5.31586C21.8753 5.40287 22.0005 5.43992 22.121 5.41367C22.8937 5.24622 23.7033 5.47136 24.2334 6.00154C24.7636 6.53173 24.9889 7.34112 24.8213 8.11388C24.7952 8.23421 24.8321 8.35954 24.9191 8.44662C25.825 9.3525 26.5308 10.4693 26.9601 11.6763L27.0941 12.053L26.7174 11.9191Z" fill="#969696" stroke="#969696" stroke-width="0.224699"/>
</svg>
