<svg width="12" height="12" viewBox="0 0 12 12" fill="none" xmlns="http://www.w3.org/2000/svg">
<path d="M6.00352 6.00622C7.63825 6.00622 8.97084 4.6328 8.97084 2.96109C8.97084 1.30237 7.65203 0 6.00352 0C4.37552 0 3.03619 1.32836 3.03619 2.97408C3.04293 4.63916 4.37552 6.00622 6.00352 6.00622ZM6.00352 5.02785C5.00063 5.02785 4.14194 4.12109 4.14194 2.97381C4.14194 1.84671 4.98686 0.978368 6.00352 0.978368C7.03365 0.978368 7.8648 1.83371 7.8648 2.96109C7.8648 4.10782 7.01988 5.02785 6.00352 5.02785ZM1.68984 12H10.3172C11.4572 12 12 11.6757 12 10.9633C12 9.26533 9.73311 6.80987 6.00352 6.80987C2.27363 6.80987 0 9.2656 0 10.963C0 11.6757 0.542764 12 1.68984 12ZM1.36013 11.0211C1.18136 11.0211 1.10604 10.9757 1.10604 10.8397C1.10604 9.77704 2.85068 7.78768 6.00322 7.78768C9.15635 7.78768 10.894 9.77704 10.894 10.8397C10.894 10.9757 10.8254 11.0211 10.6469 11.0211H1.36013Z" fill="#96B2DC"/>
</svg>
