<svg width="107" height="42" viewBox="0 0 107 42" fill="none" xmlns="http://www.w3.org/2000/svg">
<rect width="106.3" height="42" rx="8.08" fill="#3B72C5"/>
<path d="M27.5091 27.9869H25.3818V11.9506H26.2C26.3302 11.9506 26.4551 11.8988 26.5471 11.8068C26.6392 11.7147 26.6909 11.5899 26.6909 11.4597C26.6909 11.3295 26.6392 11.2046 26.5471 11.1125C26.4551 11.0205 26.3302 10.9688 26.2 10.9688H11.8C11.6698 10.9688 11.5449 11.0205 11.4529 11.1125C11.3608 11.2046 11.3091 11.3295 11.3091 11.4597C11.3091 11.5899 11.3608 11.7147 11.4529 11.8068C11.5449 11.8988 11.6698 11.9506 11.8 11.9506H12.6182V27.9869H10.4909C10.3607 27.9869 10.2358 28.0387 10.1438 28.1307C10.0517 28.2228 10 28.3476 10 28.4778C10 28.608 10.0517 28.7329 10.1438 28.825C10.2358 28.917 10.3607 28.9687 10.4909 28.9687H27.5091C27.6393 28.9687 27.7642 28.917 27.8562 28.825C27.9483 28.7329 28 28.608 28 28.4778C28 28.3476 27.9483 28.2228 27.8562 28.1307C27.7642 28.0387 27.6393 27.9869 27.5091 27.9869ZM13.6 11.9506H24.4V27.9869H21.4545V24.5506C21.4545 24.4204 21.4028 24.2955 21.3108 24.2034C21.2187 24.1114 21.0938 24.0597 20.9636 24.0597H17.0364C16.9062 24.0597 16.7813 24.1114 16.6892 24.2034C16.5972 24.2955 16.5455 24.4204 16.5455 24.5506V27.9869H13.6V11.9506ZM20.4727 27.9869H17.5273V25.0415H20.4727V27.9869ZM15.8909 14.7324C15.8909 14.6022 15.9426 14.4773 16.0347 14.3853C16.1268 14.2932 16.2516 14.2415 16.3818 14.2415H17.6909C17.8211 14.2415 17.946 14.2932 18.038 14.3853C18.1301 14.4773 18.1818 14.6022 18.1818 14.7324C18.1818 14.8626 18.1301 14.9874 18.038 15.0795C17.946 15.1716 17.8211 15.2233 17.6909 15.2233H16.3818C16.2516 15.2233 16.1268 15.1716 16.0347 15.0795C15.9426 14.9874 15.8909 14.8626 15.8909 14.7324ZM19.8182 14.7324C19.8182 14.6022 19.8699 14.4773 19.962 14.3853C20.054 14.2932 20.1789 14.2415 20.3091 14.2415H21.6182C21.7484 14.2415 21.8732 14.2932 21.9653 14.3853C22.0574 14.4773 22.1091 14.6022 22.1091 14.7324C22.1091 14.8626 22.0574 14.9874 21.9653 15.0795C21.8732 15.1716 21.7484 15.2233 21.6182 15.2233H20.3091C20.1789 15.2233 20.054 15.1716 19.962 15.0795C19.8699 14.9874 19.8182 14.8626 19.8182 14.7324ZM15.8909 18.0051C15.8909 17.8749 15.9426 17.7501 16.0347 17.658C16.1268 17.5659 16.2516 17.5142 16.3818 17.5142H17.6909C17.8211 17.5142 17.946 17.5659 18.038 17.658C18.1301 17.7501 18.1818 17.8749 18.1818 18.0051C18.1818 18.1353 18.1301 18.2602 18.038 18.3522C17.946 18.4443 17.8211 18.496 17.6909 18.496H16.3818C16.2516 18.496 16.1268 18.4443 16.0347 18.3522C15.9426 18.2602 15.8909 18.1353 15.8909 18.0051ZM19.8182 18.0051C19.8182 17.8749 19.8699 17.7501 19.962 17.658C20.054 17.5659 20.1789 17.5142 20.3091 17.5142H21.6182C21.7484 17.5142 21.8732 17.5659 21.9653 17.658C22.0574 17.7501 22.1091 17.8749 22.1091 18.0051C22.1091 18.1353 22.0574 18.2602 21.9653 18.3522C21.8732 18.4443 21.7484 18.496 21.6182 18.496H20.3091C20.1789 18.496 20.054 18.4443 19.962 18.3522C19.8699 18.2602 19.8182 18.1353 19.8182 18.0051ZM16.3818 21.7687C16.2516 21.7687 16.1268 21.717 16.0347 21.625C15.9426 21.5329 15.8909 21.408 15.8909 21.2778C15.8909 21.1476 15.9426 21.0228 16.0347 20.9307C16.1268 20.8387 16.2516 20.7869 16.3818 20.7869H17.6909C17.8211 20.7869 17.946 20.8387 18.038 20.9307C18.1301 21.0228 18.1818 21.1476 18.1818 21.2778C18.1818 21.408 18.1301 21.5329 18.038 21.625C17.946 21.717 17.8211 21.7687 17.6909 21.7687H16.3818ZM19.8182 21.2778C19.8182 21.1476 19.8699 21.0228 19.962 20.9307C20.054 20.8387 20.1789 20.7869 20.3091 20.7869H21.6182C21.7484 20.7869 21.8732 20.8387 21.9653 20.9307C22.0574 21.0228 22.1091 21.1476 22.1091 21.2778C22.1091 21.408 22.0574 21.5329 21.9653 21.625C21.8732 21.717 21.7484 21.7687 21.6182 21.7687H20.3091C20.1789 21.7687 20.054 21.717 19.962 21.625C19.8699 21.5329 19.8182 21.408 19.8182 21.2778Z" fill="white" stroke="white" stroke-width="0.7"/>
<path d="M36.3388 26V16.5455H39.7088C40.4443 16.5455 41.0537 16.6793 41.5369 16.9471C42.0201 17.2148 42.3817 17.5811 42.6218 18.0458C42.8618 18.5075 42.9819 19.0276 42.9819 19.6062C42.9819 20.1879 42.8603 20.7111 42.6172 21.1758C42.3771 21.6374 42.0139 22.0037 41.5277 22.2745C41.0445 22.5423 40.4366 22.6761 39.7042 22.6761H37.3867V21.4666H39.5749C40.0396 21.4666 40.4166 21.3866 40.7059 21.2266C40.9952 21.0634 41.2076 20.8419 41.343 20.5618C41.4784 20.2817 41.5461 19.9632 41.5461 19.6062C41.5461 19.2492 41.4784 18.9322 41.343 18.6552C41.2076 18.3782 40.9937 18.1612 40.7013 18.0043C40.412 17.8473 40.0304 17.7688 39.5564 17.7688H37.7652V26H36.3388ZM44.6444 26V18.9091H45.9786V20.0355H46.0524C46.1817 19.6539 46.4094 19.3538 46.7357 19.1353C47.065 18.9137 47.4374 18.8029 47.8528 18.8029C47.939 18.8029 48.0406 18.806 48.1575 18.8121C48.2776 18.8183 48.3714 18.826 48.4391 18.8352V20.1555C48.3837 20.1402 48.2853 20.1232 48.1437 20.1048C48.0021 20.0832 47.8605 20.0724 47.719 20.0724C47.3927 20.0724 47.1019 20.1417 46.8464 20.2802C46.5941 20.4156 46.394 20.6049 46.2463 20.848C46.0986 21.0881 46.0247 21.362 46.0247 21.6697V26H44.6444ZM52.4676 26.1431C51.8028 26.1431 51.2227 25.9908 50.7272 25.6861C50.2317 25.3814 49.847 24.9551 49.5731 24.4073C49.2992 23.8595 49.1622 23.2193 49.1622 22.4869C49.1622 21.7513 49.2992 21.1081 49.5731 20.5572C49.847 20.0063 50.2317 19.5785 50.7272 19.2738C51.2227 18.9691 51.8028 18.8168 52.4676 18.8168C53.1324 18.8168 53.7125 18.9691 54.208 19.2738C54.7035 19.5785 55.0882 20.0063 55.3621 20.5572C55.636 21.1081 55.773 21.7513 55.773 22.4869C55.773 23.2193 55.636 23.8595 55.3621 24.4073C55.0882 24.9551 54.7035 25.3814 54.208 25.6861C53.7125 25.9908 53.1324 26.1431 52.4676 26.1431ZM52.4722 24.9844C52.9031 24.9844 53.2601 24.8705 53.5432 24.6428C53.8264 24.415 54.0357 24.1119 54.1711 23.7333C54.3096 23.3548 54.3788 22.9377 54.3788 22.4822C54.3788 22.0298 54.3096 21.6143 54.1711 21.2358C54.0357 20.8542 53.8264 20.5479 53.5432 20.3171C53.2601 20.0863 52.9031 19.9709 52.4722 19.9709C52.0383 19.9709 51.6782 20.0863 51.392 20.3171C51.1088 20.5479 50.898 20.8542 50.7595 21.2358C50.6241 21.6143 50.5564 22.0298 50.5564 22.4822C50.5564 22.9377 50.6241 23.3548 50.7595 23.7333C50.898 24.1119 51.1088 24.415 51.392 24.6428C51.6782 24.8705 52.0383 24.9844 52.4722 24.9844ZM57.4147 28.6591V18.9091H58.7628V20.0586H58.8782C58.9582 19.9109 59.0736 19.7401 59.2244 19.5462C59.3752 19.3523 59.5845 19.183 59.8522 19.0384C60.12 18.8906 60.4739 18.8168 60.914 18.8168C61.4865 18.8168 61.9974 18.9614 62.4467 19.2507C62.896 19.54 63.2484 19.957 63.5039 20.5018C63.7624 21.0465 63.8917 21.7021 63.8917 22.4684C63.8917 23.2347 63.7639 23.8918 63.5085 24.4396C63.2531 24.9844 62.9022 25.4045 62.4559 25.6999C62.0097 25.9923 61.5003 26.1385 60.9279 26.1385C60.497 26.1385 60.1446 26.0662 59.8707 25.9215C59.5999 25.7769 59.3875 25.6076 59.2336 25.4137C59.0798 25.2198 58.9613 25.0475 58.8782 24.8967H58.7951V28.6591H57.4147ZM58.7674 22.4545C58.7674 22.9531 58.8397 23.3902 58.9844 23.7656C59.129 24.1411 59.3383 24.435 59.6122 24.6474C59.8861 24.8567 60.2216 24.9613 60.6186 24.9613C61.031 24.9613 61.3757 24.852 61.6527 24.6335C61.9297 24.4119 62.1389 24.1119 62.2805 23.7333C62.4252 23.3548 62.4975 22.9285 62.4975 22.4545C62.4975 21.9867 62.4267 21.5666 62.2851 21.1942C62.1466 20.8219 61.9374 20.5279 61.6573 20.3125C61.3803 20.0971 61.0341 19.9893 60.6186 19.9893C60.2185 19.9893 59.8799 20.0924 59.603 20.2987C59.329 20.5049 59.1213 20.7926 58.9797 21.1619C58.8382 21.5312 58.7674 21.9621 58.7674 22.4545ZM68.5953 26.1431C67.8967 26.1431 67.295 25.9938 66.7903 25.6953C66.2886 25.3937 65.9008 24.9705 65.6269 24.4258C65.3561 23.878 65.2206 23.2363 65.2206 22.5007C65.2206 21.7744 65.3561 21.1342 65.6269 20.5803C65.9008 20.0263 66.2824 19.5939 66.7718 19.283C67.2642 18.9722 67.8397 18.8168 68.4983 18.8168C68.8984 18.8168 69.2862 18.8829 69.6617 19.0153C70.0372 19.1476 70.3742 19.3554 70.6727 19.6385C70.9712 19.9216 71.2067 20.2894 71.379 20.7418C71.5514 21.1912 71.6376 21.7375 71.6376 22.3807V22.87H66.0008V21.8359H70.2849C70.2849 21.4728 70.2111 21.1512 70.0633 20.8711C69.9156 20.5879 69.7079 20.3648 69.4401 20.2017C69.1754 20.0386 68.8646 19.957 68.5076 19.957C68.1198 19.957 67.7813 20.0524 67.492 20.2433C67.2057 20.431 66.9841 20.6772 66.8272 20.9819C66.6733 21.2835 66.5964 21.6113 66.5964 21.9652V22.7731C66.5964 23.247 66.6795 23.6502 66.8456 23.9826C67.0149 24.315 67.2504 24.5689 67.552 24.7443C67.8536 24.9167 68.206 25.0028 68.6091 25.0028C68.8707 25.0028 69.1093 24.9659 69.3247 24.892C69.5401 24.8151 69.7263 24.7012 69.8833 24.5504C70.0403 24.3996 70.1603 24.2134 70.2434 23.9918L71.5498 24.2273C71.4452 24.612 71.2575 24.949 70.9866 25.2383C70.7189 25.5245 70.3819 25.7476 69.9756 25.9077C69.5724 26.0646 69.1123 26.1431 68.5953 26.1431ZM73.2701 26V18.9091H74.6042V20.0355H74.6781C74.8074 19.6539 75.0351 19.3538 75.3613 19.1353C75.6906 18.9137 76.063 18.8029 76.4785 18.8029C76.5647 18.8029 76.6663 18.806 76.7832 18.8121C76.9032 18.8183 76.9971 18.826 77.0648 18.8352V20.1555C77.0094 20.1402 76.9109 20.1232 76.7694 20.1048C76.6278 20.0832 76.4862 20.0724 76.3446 20.0724C76.0184 20.0724 75.7276 20.1417 75.4721 20.2802C75.2198 20.4156 75.0197 20.6049 74.872 20.848C74.7243 21.0881 74.6504 21.362 74.6504 21.6697V26H73.2701ZM82.0893 18.9091V20.017H78.2161V18.9091H82.0893ZM79.2548 17.2102H80.6351V23.918C80.6351 24.1857 80.6751 24.3873 80.7551 24.5227C80.8351 24.6551 80.9382 24.7459 81.0644 24.7951C81.1937 24.8413 81.3337 24.8643 81.4845 24.8643C81.5953 24.8643 81.6923 24.8567 81.7754 24.8413C81.8585 24.8259 81.9231 24.8136 81.9693 24.8043L82.2185 25.9446C82.1385 25.9754 82.0247 26.0062 81.8769 26.0369C81.7292 26.0708 81.5445 26.0893 81.323 26.0923C80.9598 26.0985 80.6212 26.0339 80.3073 25.8984C79.9934 25.763 79.7395 25.5537 79.5456 25.2706C79.3517 24.9875 79.2548 24.632 79.2548 24.2042V17.2102ZM83.7172 26V18.9091H85.0975V26H83.7172ZM84.4143 17.815C84.1742 17.815 83.968 17.735 83.7957 17.5749C83.6264 17.4118 83.5418 17.2179 83.5418 16.9933C83.5418 16.7655 83.6264 16.5716 83.7957 16.4116C83.968 16.2485 84.1742 16.1669 84.4143 16.1669C84.6543 16.1669 84.859 16.2485 85.0283 16.4116C85.2006 16.5716 85.2868 16.7655 85.2868 16.9933C85.2868 17.2179 85.2006 17.4118 85.0283 17.5749C84.859 17.735 84.6543 17.815 84.4143 17.815ZM90.1116 26.1431C89.413 26.1431 88.8113 25.9938 88.3066 25.6953C87.8049 25.3937 87.4171 24.9705 87.1432 24.4258C86.8724 23.878 86.737 23.2363 86.737 22.5007C86.737 21.7744 86.8724 21.1342 87.1432 20.5803C87.4171 20.0263 87.7987 19.5939 88.2881 19.283C88.7805 18.9722 89.356 18.8168 90.0147 18.8168C90.4147 18.8168 90.8025 18.8829 91.178 19.0153C91.5535 19.1476 91.8905 19.3554 92.189 19.6385C92.4875 19.9216 92.723 20.2894 92.8953 20.7418C93.0677 21.1912 93.1539 21.7375 93.1539 22.3807V22.87H87.5171V21.8359H91.8012C91.8012 21.4728 91.7274 21.1512 91.5796 20.8711C91.4319 20.5879 91.2242 20.3648 90.9564 20.2017C90.6917 20.0386 90.3809 19.957 90.0239 19.957C89.6361 19.957 89.2976 20.0524 89.0083 20.2433C88.722 20.431 88.5004 20.6772 88.3435 20.9819C88.1896 21.2835 88.1127 21.6113 88.1127 21.9652V22.7731C88.1127 23.247 88.1958 23.6502 88.362 23.9826C88.5312 24.315 88.7667 24.5689 89.0683 24.7443C89.3699 24.9167 89.7223 25.0028 90.1254 25.0028C90.387 25.0028 90.6256 24.9659 90.841 24.892C91.0564 24.8151 91.2426 24.7012 91.3996 24.5504C91.5566 24.3996 91.6766 24.2134 91.7597 23.9918L93.0661 24.2273C92.9615 24.612 92.7738 24.949 92.5029 25.2383C92.2352 25.5245 91.8982 25.7476 91.4919 25.9077C91.0888 26.0646 90.6286 26.1431 90.1116 26.1431ZM100.1 20.6403L98.8489 20.8619C98.7966 20.7018 98.7135 20.5495 98.5996 20.4048C98.4888 20.2602 98.338 20.1417 98.1472 20.0494C97.9564 19.957 97.7178 19.9109 97.4316 19.9109C97.0408 19.9109 96.7145 19.9986 96.4529 20.174C96.1913 20.3464 96.0605 20.5695 96.0605 20.8434C96.0605 21.0804 96.1482 21.2712 96.3237 21.4158C96.4991 21.5605 96.7822 21.679 97.1731 21.7713L98.2995 22.0298C98.952 22.1806 99.4382 22.413 99.7583 22.7269C100.078 23.0408 100.238 23.4486 100.238 23.9503C100.238 24.375 100.115 24.7536 99.8691 25.0859C99.626 25.4152 99.2859 25.6738 98.8489 25.8615C98.4149 26.0492 97.9117 26.1431 97.3393 26.1431C96.5453 26.1431 95.8974 25.9738 95.3958 25.6353C94.8941 25.2937 94.5863 24.8089 94.4725 24.1811L95.8066 23.978C95.8897 24.3258 96.0605 24.5889 96.319 24.7674C96.5776 24.9428 96.9146 25.0305 97.3301 25.0305C97.7825 25.0305 98.1441 24.9367 98.4149 24.7489C98.6858 24.5581 98.8212 24.3258 98.8212 24.0518C98.8212 23.8303 98.7381 23.6441 98.5719 23.4933C98.4088 23.3424 98.1579 23.2286 97.8194 23.1516L96.6191 22.8885C95.9574 22.7377 95.4681 22.4976 95.1511 22.1683C94.8372 21.839 94.6802 21.422 94.6802 20.9173C94.6802 20.4987 94.7971 20.1325 95.031 19.8185C95.265 19.5046 95.5881 19.2599 96.0005 19.0845C96.4129 18.906 96.8853 18.8168 97.4178 18.8168C98.1841 18.8168 98.7873 18.983 99.2274 19.3153C99.6675 19.6446 99.9584 20.0863 100.1 20.6403Z" fill="white"/>
</svg>
