<svg width="8" height="8" viewBox="0 0 8 8" fill="none" xmlns="http://www.w3.org/2000/svg">
<path d="M2.53125 1C2.70625 1 3.40625 2.575 3.40625 2.75C3.40625 3.1 2.88125 3.45 2.70625 3.8C2.53125 4.15 2.88125 4.5 3.23125 4.85C3.36926 4.98801 3.93125 5.55 4.28125 5.375C4.63125 5.2 4.98125 4.675 5.33125 4.675C5.50625 4.675 7.08125 5.375 7.08125 5.55C7.08125 6.25 6.55625 6.775 6.03125 6.95C5.50625 7.125 5.15625 7.125 4.45625 6.95C3.75625 6.775 3.23125 6.6 2.35625 5.725C1.48125 4.85 1.30625 4.325 1.13125 3.625C0.95625 2.925 0.95625 2.575 1.13125 2.05C1.30625 1.525 1.83125 1 2.53125 1Z" stroke="#4584FF" stroke-width="0.5" stroke-linecap="round" stroke-linejoin="round"/>
<path d="M4.63135 2.41553C4.86263 2.52168 5.07133 2.66863 5.24819 2.84714C5.42046 3.02102 5.56256 3.22484 5.66595 3.45011" stroke="#4584FF" stroke-width="0.5" stroke-linecap="round" stroke-linejoin="round"/>
<path d="M6.993 3.10017C6.86679 2.60991 6.61119 2.17162 6.26472 1.82389C5.91584 1.47375 5.47488 1.21544 4.9812 1.08838" stroke="#4584FF" stroke-width="0.5" stroke-linecap="round" stroke-linejoin="round"/>
</svg>
