<svg width="19" height="19" viewBox="0 0 19 19" fill="none" xmlns="http://www.w3.org/2000/svg">
<path d="M18.5 18.5L13.3571 13.3571M8.21429 15.9286C7.20123 15.9286 6.1981 15.729 5.26216 15.3414C4.32622 14.9537 3.4758 14.3854 2.75946 13.6691C2.04312 12.9528 1.47489 12.1024 1.08722 11.1664C0.699536 10.2305 0.5 9.22734 0.5 8.21429C0.5 7.20123 0.699536 6.1981 1.08722 5.26216C1.47489 4.32622 2.04312 3.4758 2.75946 2.75946C3.4758 2.04312 4.32622 1.47489 5.26216 1.08722C6.1981 0.699536 7.20123 0.5 8.21429 0.5C10.2602 0.5 12.2224 1.31275 13.6691 2.75946C15.1158 4.20617 15.9286 6.16833 15.9286 8.21429C15.9286 10.2602 15.1158 12.2224 13.6691 13.6691C12.2224 15.1158 10.2602 15.9286 8.21429 15.9286Z" stroke="black"/>
</svg>
