<svg width="17" height="16" viewBox="0 0 17 16" fill="none" xmlns="http://www.w3.org/2000/svg">
<path fill-rule="evenodd" clip-rule="evenodd" d="M2.38219 1.29083C3.37818 0.300573 5.01824 0.476528 5.85218 1.59118L6.885 2.96936C7.56426 3.87615 7.5037 5.14302 6.69758 5.94423L6.50281 6.13901C6.48081 6.22079 6.47857 6.30662 6.49626 6.38944C6.54782 6.72335 6.82689 7.43044 7.99556 8.59256C9.16422 9.75469 9.87623 10.0329 10.215 10.0853C10.3003 10.1035 10.3887 10.1009 10.4728 10.078L10.8067 9.74568C11.5237 9.03368 12.6236 8.90028 13.5107 9.38232L15.0738 10.2334C16.4136 10.9602 16.7516 12.7803 15.6549 13.8712L14.492 15.0268C14.1253 15.391 13.6327 15.6946 13.032 15.7511C11.5507 15.8894 8.09949 15.7126 4.47155 12.1059C1.08586 8.73906 0.436051 5.80265 0.353393 4.35573C0.312474 3.62408 0.657836 3.00537 1.09813 2.56835L2.38219 1.29083ZM4.87011 2.32692C4.45518 1.77287 3.68262 1.72867 3.24723 2.16161L1.96236 3.4383C1.69229 3.70674 1.56298 4.003 1.57935 4.28616C1.64482 5.43601 2.16859 8.08516 5.33741 11.236C8.66173 14.5407 11.7315 14.6397 12.9182 14.5284C13.1604 14.5063 13.4011 14.3803 13.6261 14.1568L14.7882 13.0004C15.2613 12.5307 15.1573 11.6746 14.4879 11.3113L12.9247 10.461C12.4926 10.2269 11.9869 10.3038 11.6726 10.6165L11.3002 10.9872L10.8665 10.5518C11.3002 10.9872 11.2994 10.988 11.2986 10.988L11.2978 10.9896L11.2953 10.9921L11.2896 10.997L11.2773 11.0085C11.2425 11.0402 11.2053 11.0692 11.166 11.0952C11.1005 11.1386 11.0138 11.1869 10.9049 11.227C10.684 11.3096 10.391 11.3538 10.0293 11.2982C9.31972 11.1893 8.37938 10.7057 7.1297 9.46334C5.88083 8.22101 5.39306 7.2864 5.2834 6.57767C5.22693 6.21594 5.27194 5.92296 5.35542 5.70199C5.40171 5.57781 5.46746 5.46178 5.5502 5.35826L5.57638 5.32962L5.58784 5.31734L5.59275 5.31243L5.59521 5.30998L5.59684 5.30834L5.83254 5.07428C6.18282 4.72482 6.23192 4.14622 5.90211 3.7051L4.87011 2.32692Z" fill="white"/>
</svg>
